<svg xmlns="http://www.w3.org/2000/svg" viewBox="0 0 205.83 217.14"><defs><style>.cls-1{fill:#00518f;}.cls-2{fill:#f7cf2b;}.cls-3{fill:#ededed;}.cls-4{fill:#fec;}</style></defs><title>asesoria tls</title><g id="Capa_2" data-name="Capa 2"><g id="Capa_1-2" data-name="Capa 1"><path class="cls-1" d="M27,187.11a.49.49,0,0,1,0,.92,1.76,1.76,0,0,1-1.59,0,.49.49,0,0,1,0-.92,1.76,1.76,0,0,1,1.59,0"/><path class="cls-1" d="M31.12,184.7a.49.49,0,0,1,0,.92,1.76,1.76,0,0,1-1.59,0,.49.49,0,0,1,0-.92,1.76,1.76,0,0,1,1.59,0"/><path class="cls-1" d="M35.29,182.3a.49.49,0,0,1,0,.92,1.76,1.76,0,0,1-1.59,0,.49.49,0,0,1,0-.92,1.76,1.76,0,0,1,1.59,0"/><path class="cls-1" d="M39.45,179.89a.49.49,0,0,1,0,.92,1.76,1.76,0,0,1-1.59,0,.49.49,0,0,1,0-.92,1.76,1.76,0,0,1,1.59,0"/><path class="cls-1" d="M43.62,177.49a.49.49,0,0,1,0,.92,1.76,1.76,0,0,1-1.59,0,.49.49,0,0,1,0-.92,1.76,1.76,0,0,1,1.59,0"/><path class="cls-1" d="M22.79,184.7a.49.49,0,0,1,0,.92,1.76,1.76,0,0,1-1.59,0,.49.49,0,0,1,0-.92,1.76,1.76,0,0,1,1.59,0"/><path class="cls-1" d="M27,182.3a.49.49,0,0,1,0,.92,1.76,1.76,0,0,1-1.59,0,.49.49,0,0,1,0-.92,1.76,1.76,0,0,1,1.59,0"/><path class="cls-1" d="M31.12,179.89a.49.49,0,0,1,0,.92,1.76,1.76,0,0,1-1.59,0,.49.49,0,0,1,0-.92,1.76,1.76,0,0,1,1.59,0"/><path class="cls-1" d="M35.29,177.49a.49.49,0,0,1,0,.92,1.76,1.76,0,0,1-1.59,0,.49.49,0,0,1,0-.92,1.76,1.76,0,0,1,1.59,0"/><path class="cls-1" d="M39.45,175.08a.49.49,0,0,1,0,.92,1.76,1.76,0,0,1-1.59,0,.49.49,0,0,1,0-.92,1.76,1.76,0,0,1,1.59,0"/><path class="cls-1" d="M18.62,182.3a.49.49,0,0,1,0,.92,1.76,1.76,0,0,1-1.59,0,.49.49,0,0,1,0-.92,1.76,1.76,0,0,1,1.59,0"/><path class="cls-1" d="M22.79,179.89a.49.49,0,0,1,0,.92,1.76,1.76,0,0,1-1.59,0,.49.49,0,0,1,0-.92,1.76,1.76,0,0,1,1.59,0"/><path class="cls-1" d="M27,177.49a.49.49,0,0,1,0,.92,1.76,1.76,0,0,1-1.59,0,.49.49,0,0,1,0-.92,1.76,1.76,0,0,1,1.59,0"/><path class="cls-1" d="M31.12,175.08a.49.49,0,0,1,0,.92,1.76,1.76,0,0,1-1.59,0,.49.49,0,0,1,0-.92,1.76,1.76,0,0,1,1.59,0"/><path class="cls-1" d="M35.29,172.68a.49.49,0,0,1,0,.92,1.76,1.76,0,0,1-1.59,0,.49.49,0,0,1,0-.92,1.76,1.76,0,0,1,1.59,0"/><path class="cls-1" d="M14.46,179.89a.49.49,0,0,1,0,.92,1.76,1.76,0,0,1-1.59,0,.49.49,0,0,1,0-.92,1.76,1.76,0,0,1,1.59,0"/><path class="cls-1" d="M18.62,177.49a.49.49,0,0,1,0,.92,1.76,1.76,0,0,1-1.59,0,.49.49,0,0,1,0-.92,1.76,1.76,0,0,1,1.59,0"/><path class="cls-1" d="M22.79,175.08a.49.49,0,0,1,0,.92,1.76,1.76,0,0,1-1.59,0,.49.49,0,0,1,0-.92,1.76,1.76,0,0,1,1.59,0"/><path class="cls-1" d="M27,172.68a.49.49,0,0,1,0,.92,1.76,1.76,0,0,1-1.59,0,.49.49,0,0,1,0-.92,1.76,1.76,0,0,1,1.59,0"/><path class="cls-1" d="M31.12,170.27a.49.49,0,0,1,0,.92,1.76,1.76,0,0,1-1.59,0,.49.49,0,0,1,0-.92,1.76,1.76,0,0,1,1.59,0"/><path class="cls-1" d="M10.29,177.49a.49.49,0,0,1,0,.92,1.76,1.76,0,0,1-1.59,0,.49.49,0,0,1,0-.92,1.76,1.76,0,0,1,1.59,0"/><path class="cls-1" d="M14.46,175.08a.49.49,0,0,1,0,.92,1.76,1.76,0,0,1-1.59,0,.49.49,0,0,1,0-.92,1.76,1.76,0,0,1,1.59,0"/><path class="cls-1" d="M18.62,172.68a.49.49,0,0,1,0,.92,1.76,1.76,0,0,1-1.59,0,.49.49,0,0,1,0-.92,1.76,1.76,0,0,1,1.59,0"/><path class="cls-1" d="M22.79,170.27a.49.49,0,0,1,0,.92,1.75,1.75,0,0,1-1.59,0,.49.49,0,0,1,0-.92,1.76,1.76,0,0,1,1.59,0"/><path class="cls-1" d="M27,167.87a.49.49,0,0,1,0,.92,1.76,1.76,0,0,1-1.59,0,.49.49,0,0,1,0-.92,1.76,1.76,0,0,1,1.59,0"/><path class="cls-1" d="M6.09,175.06a.49.49,0,0,1,0,.92,1.76,1.76,0,0,1-1.59,0,.49.49,0,0,1,0-.92,1.75,1.75,0,0,1,1.59,0"/><path class="cls-1" d="M10.25,172.65a.49.49,0,0,1,0,.92,1.75,1.75,0,0,1-1.59,0,.49.49,0,0,1,0-.92,1.76,1.76,0,0,1,1.59,0"/><path class="cls-1" d="M14.42,170.25a.49.49,0,0,1,0,.92,1.76,1.76,0,0,1-1.59,0,.49.49,0,0,1,0-.92,1.76,1.76,0,0,1,1.59,0"/><path class="cls-1" d="M18.59,167.84a.49.49,0,0,1,0,.92,1.76,1.76,0,0,1-1.59,0,.49.49,0,0,1,0-.92,1.76,1.76,0,0,1,1.59,0"/><path class="cls-1" d="M22.75,165.44a.49.49,0,0,1,0,.92,1.76,1.76,0,0,1-1.59,0,.49.49,0,0,1,0-.92,1.76,1.76,0,0,1,1.59,0"/><path class="cls-1" d="M1.92,172.65a.49.49,0,0,1,0,.92,1.75,1.75,0,0,1-1.59,0,.49.49,0,0,1,0-.92,1.76,1.76,0,0,1,1.59,0"/><path class="cls-1" d="M6.09,170.25a.49.49,0,0,1,0,.92,1.76,1.76,0,0,1-1.59,0,.49.49,0,0,1,0-.92,1.76,1.76,0,0,1,1.59,0"/><path class="cls-1" d="M10.25,167.84a.49.49,0,0,1,0,.92,1.76,1.76,0,0,1-1.59,0,.49.49,0,0,1,0-.92,1.76,1.76,0,0,1,1.59,0"/><path class="cls-1" d="M14.42,165.44a.49.49,0,0,1,0,.92,1.76,1.76,0,0,1-1.59,0,.49.49,0,0,1,0-.92,1.76,1.76,0,0,1,1.59,0"/><path class="cls-1" d="M18.59,163a.49.49,0,0,1,0,.92A1.76,1.76,0,0,1,17,164a.49.49,0,0,1,0-.92,1.76,1.76,0,0,1,1.59,0"/><path class="cls-1" d="M1.92,167.84a.49.49,0,0,1,0,.92,1.76,1.76,0,0,1-1.59,0,.49.49,0,0,1,0-.92,1.76,1.76,0,0,1,1.59,0"/><path class="cls-1" d="M6.09,165.44a.49.49,0,0,1,0,.92,1.76,1.76,0,0,1-1.59,0,.49.49,0,0,1,0-.92,1.76,1.76,0,0,1,1.59,0"/><path class="cls-1" d="M10.26,163a.49.49,0,0,1,0,.92,1.76,1.76,0,0,1-1.59,0,.49.49,0,0,1,0-.92,1.76,1.76,0,0,1,1.59,0"/><path class="cls-1" d="M14.42,160.63a.49.49,0,0,1,0,.92,1.76,1.76,0,0,1-1.59,0,.49.49,0,0,1,0-.92,1.76,1.76,0,0,1,1.59,0"/><path class="cls-1" d="M1.92,163a.49.49,0,0,1,0,.92,1.76,1.76,0,0,1-1.59,0,.49.49,0,0,1,0-.92,1.76,1.76,0,0,1,1.59,0"/><path class="cls-1" d="M6.09,160.63a.49.49,0,0,1,0,.92,1.76,1.76,0,0,1-1.59,0,.49.49,0,0,1,0-.92,1.76,1.76,0,0,1,1.59,0"/><path class="cls-1" d="M10.26,158.22a.49.49,0,0,1,0,.92,1.75,1.75,0,0,1-1.59,0,.49.49,0,0,1,0-.92,1.76,1.76,0,0,1,1.59,0"/><path class="cls-1" d="M85.22,216a.49.49,0,0,1,0,.92,1.76,1.76,0,0,1-1.59,0,.49.49,0,0,1,0-.92,1.76,1.76,0,0,1,1.59,0"/><path class="cls-1" d="M89.38,213.63a.49.49,0,0,1,0,.92,1.76,1.76,0,0,1-1.59,0,.49.49,0,0,1,0-.92,1.76,1.76,0,0,1,1.59,0"/><path class="cls-1" d="M81,213.6a.49.49,0,0,1,0,.92,1.75,1.75,0,0,1-1.59,0,.49.49,0,0,1,0-.92,1.76,1.76,0,0,1,1.59,0"/><path class="cls-1" d="M85.18,211.2a.49.49,0,0,1,0,.92,1.76,1.76,0,0,1-1.59,0,.49.49,0,0,1,0-.92,1.76,1.76,0,0,1,1.59,0"/><path class="cls-1" d="M76.85,216a.49.49,0,0,1,0,.92,1.76,1.76,0,0,1-1.59,0,.49.49,0,0,1,0-.92,1.76,1.76,0,0,1,1.59,0"/><path class="cls-1" d="M76.85,211.2a.49.49,0,0,1,0,.92,1.76,1.76,0,0,1-1.59,0,.49.49,0,0,1,0-.92,1.76,1.76,0,0,1,1.59,0"/><path class="cls-1" d="M81,208.79a.49.49,0,0,1,0,.92,1.76,1.76,0,0,1-1.59,0,.49.49,0,0,1,0-.92,1.75,1.75,0,0,1,1.59,0"/><path class="cls-1" d="M72.68,213.6a.49.49,0,0,1,0,.92,1.75,1.75,0,0,1-1.59,0,.49.49,0,0,1,0-.92,1.76,1.76,0,0,1,1.59,0"/><path class="cls-1" d="M72.68,208.79a.49.49,0,0,1,0,.92,1.76,1.76,0,0,1-1.59,0,.49.49,0,0,1,0-.92,1.75,1.75,0,0,1,1.59,0"/><path class="cls-1" d="M76.85,206.39a.49.49,0,0,1,0,.92,1.76,1.76,0,0,1-1.59,0,.49.49,0,0,1,0-.92,1.76,1.76,0,0,1,1.59,0"/><path class="cls-1" d="M68.52,211.2a.49.49,0,0,1,0,.92,1.76,1.76,0,0,1-1.59,0,.49.49,0,0,1,0-.92,1.76,1.76,0,0,1,1.59,0"/><path class="cls-1" d="M68.52,206.39a.49.49,0,0,1,0,.92,1.76,1.76,0,0,1-1.59,0,.49.49,0,0,1,0-.92,1.76,1.76,0,0,1,1.59,0"/><path class="cls-1" d="M72.68,204a.49.49,0,0,1,0,.92,1.76,1.76,0,0,1-1.59,0,.49.49,0,0,1,0-.92,1.76,1.76,0,0,1,1.59,0"/><path class="cls-1" d="M64.35,208.79a.49.49,0,0,1,0,.92,1.76,1.76,0,0,1-1.59,0,.49.49,0,0,1,0-.92,1.76,1.76,0,0,1,1.59,0"/><path class="cls-1" d="M60.19,206.39a.49.49,0,0,1,0,.92,1.76,1.76,0,0,1-1.59,0,.49.49,0,0,1,0-.92,1.76,1.76,0,0,1,1.59,0"/><path class="cls-1" d="M68.52,201.58a.49.49,0,0,1,0,.92,1.76,1.76,0,0,1-1.59,0,.49.49,0,0,1,0-.92,1.76,1.76,0,0,1,1.59,0"/><path class="cls-1" d="M64.35,204a.49.49,0,0,1,0,.92,1.76,1.76,0,0,1-1.59,0,.49.49,0,0,1,0-.92,1.76,1.76,0,0,1,1.59,0"/><path class="cls-1" d="M56,204a.49.49,0,0,1,0,.92,1.76,1.76,0,0,1-1.59,0,.49.49,0,0,1,0-.92A1.76,1.76,0,0,1,56,204"/><path class="cls-1" d="M60.19,201.58a.49.49,0,0,1,0,.92,1.76,1.76,0,0,1-1.59,0,.49.49,0,0,1,0-.92,1.76,1.76,0,0,1,1.59,0"/><path class="cls-1" d="M64.35,199.17a.49.49,0,0,1,0,.92,1.76,1.76,0,0,1-1.59,0,.49.49,0,0,1,0-.92,1.76,1.76,0,0,1,1.59,0"/><path class="cls-1" d="M51.85,201.58a.49.49,0,0,1,0,.92,1.76,1.76,0,0,1-1.59,0,.49.49,0,0,1,0-.92,1.76,1.76,0,0,1,1.59,0"/><path class="cls-1" d="M56,199.17a.49.49,0,0,1,0,.92,1.76,1.76,0,0,1-1.59,0,.49.49,0,0,1,0-.92,1.76,1.76,0,0,1,1.59,0"/><path class="cls-1" d="M60.19,196.76a.49.49,0,0,1,0,.92,1.76,1.76,0,0,1-1.59,0,.49.49,0,0,1,0-.92,1.76,1.76,0,0,1,1.59,0"/><path class="cls-1" d="M47.69,199.17a.49.49,0,0,1,0,.92,1.76,1.76,0,0,1-1.59,0,.49.49,0,0,1,0-.92,1.76,1.76,0,0,1,1.59,0"/><path class="cls-1" d="M51.85,196.76a.49.49,0,0,1,0,.92,1.76,1.76,0,0,1-1.59,0,.49.49,0,0,1,0-.92,1.76,1.76,0,0,1,1.59,0"/><path class="cls-1" d="M56,194.36a.49.49,0,0,1,0,.92,1.75,1.75,0,0,1-1.59,0,.49.49,0,0,1,0-.92,1.76,1.76,0,0,1,1.59,0"/><path class="cls-1" d="M43.49,196.74a.49.49,0,0,1,0,.92,1.75,1.75,0,0,1-1.59,0,.49.49,0,0,1,0-.92,1.76,1.76,0,0,1,1.59,0"/><path class="cls-1" d="M47.65,194.34a.49.49,0,0,1,0,.92,1.76,1.76,0,0,1-1.59,0,.49.49,0,0,1,0-.92,1.76,1.76,0,0,1,1.59,0"/><path class="cls-1" d="M51.82,191.93a.49.49,0,0,1,0,.92,1.76,1.76,0,0,1-1.59,0,.49.49,0,0,1,0-.92,1.75,1.75,0,0,1,1.59,0"/><path class="cls-1" d="M39.32,194.34a.49.49,0,0,1,0,.92,1.76,1.76,0,0,1-1.59,0,.49.49,0,0,1,0-.92,1.76,1.76,0,0,1,1.59,0"/><path class="cls-1" d="M43.49,191.93a.49.49,0,0,1,0,.92,1.76,1.76,0,0,1-1.59,0,.49.49,0,0,1,0-.92,1.75,1.75,0,0,1,1.59,0"/><path class="cls-1" d="M47.65,189.52a.49.49,0,0,1,0,.92,1.76,1.76,0,0,1-1.59,0,.49.49,0,0,1,0-.92,1.76,1.76,0,0,1,1.59,0"/><path class="cls-1" d="M35.15,191.93a.49.49,0,0,1,0,.92,1.76,1.76,0,0,1-1.59,0,.49.49,0,0,1,0-.92,1.76,1.76,0,0,1,1.59,0"/><path class="cls-1" d="M39.32,189.52a.49.49,0,0,1,0,.92,1.76,1.76,0,0,1-1.59,0,.49.49,0,0,1,0-.92,1.76,1.76,0,0,1,1.59,0"/><path class="cls-1" d="M43.49,187.12a.49.49,0,0,1,0,.92,1.76,1.76,0,0,1-1.59,0,.49.49,0,0,1,0-.92,1.76,1.76,0,0,1,1.59,0"/><path class="cls-1" d="M31,189.52a.49.49,0,0,1,0,.92,1.76,1.76,0,0,1-1.59,0,.49.49,0,0,1,0-.92,1.76,1.76,0,0,1,1.59,0"/><path class="cls-1" d="M35.15,187.12a.49.49,0,0,1,0,.92,1.76,1.76,0,0,1-1.59,0,.49.49,0,0,1,0-.92,1.76,1.76,0,0,1,1.59,0"/><path class="cls-1" d="M39.32,184.71a.49.49,0,0,1,0,.92,1.76,1.76,0,0,1-1.59,0,.49.49,0,0,1,0-.92,1.76,1.76,0,0,1,1.59,0"/><path class="cls-1" d="M92,211.26a1.76,1.76,0,0,1,1.59,0,.49.49,0,0,1,0,.92,1.76,1.76,0,0,1-1.59,0,.49.49,0,0,1,0-.92"/><path class="cls-1" d="M97.73,208.85a.49.49,0,0,1,0,.92,1.76,1.76,0,0,1-1.59,0,.49.49,0,0,1,0-.92,1.76,1.76,0,0,1,1.59,0"/><path class="cls-1" d="M87.76,208.83a1.76,1.76,0,0,1,1.59,0,.49.49,0,0,1,0,.92,1.76,1.76,0,0,1-1.59,0,.49.49,0,0,1,0-.92"/><path class="cls-1" d="M93.53,206.42a.49.49,0,0,1,0,.92,1.75,1.75,0,0,1-1.59,0,.49.49,0,0,1,0-.92,1.76,1.76,0,0,1,1.59,0"/><path class="cls-1" d="M97.69,204a.49.49,0,0,1,0,.92,1.76,1.76,0,0,1-1.59,0,.49.49,0,0,1,0-.92,1.76,1.76,0,0,1,1.59,0"/><path class="cls-1" d="M83.59,206.42a1.76,1.76,0,0,1,1.59,0,.49.49,0,0,1,0,.92,1.76,1.76,0,0,1-1.59,0,.49.49,0,0,1,0-.92"/><path class="cls-1" d="M89.36,204a.49.49,0,0,1,0,.92,1.76,1.76,0,0,1-1.59,0,.49.49,0,0,1,0-.92,1.76,1.76,0,0,1,1.59,0"/><path class="cls-1" d="M93.53,201.61a.49.49,0,0,1,0,.92,1.76,1.76,0,0,1-1.59,0,.49.49,0,0,1,0-.92,1.76,1.76,0,0,1,1.59,0"/><path class="cls-1" d="M97.69,199.2a.49.49,0,0,1,0,.92,1.76,1.76,0,0,1-1.59,0,.49.49,0,0,1,0-.92,1.76,1.76,0,0,1,1.59,0"/><path class="cls-1" d="M79.43,204A1.76,1.76,0,0,1,81,204a.49.49,0,0,1,0,.92,1.76,1.76,0,0,1-1.59,0,.49.49,0,0,1,0-.92"/><path class="cls-1" d="M85.19,201.61a.49.49,0,0,1,0,.92,1.76,1.76,0,0,1-1.59,0,.49.49,0,0,1,0-.92,1.76,1.76,0,0,1,1.59,0"/><path class="cls-1" d="M89.36,199.2a.49.49,0,0,1,0,.92,1.76,1.76,0,0,1-1.59,0,.49.49,0,0,1,0-.92,1.76,1.76,0,0,1,1.59,0"/><path class="cls-1" d="M93.53,196.8a.49.49,0,0,1,0,.92,1.76,1.76,0,0,1-1.59,0,.49.49,0,0,1,0-.92,1.76,1.76,0,0,1,1.59,0"/><path class="cls-1" d="M75.26,201.61a1.76,1.76,0,0,1,1.59,0,.49.49,0,0,1,0,.92,1.76,1.76,0,0,1-1.59,0,.49.49,0,0,1,0-.92"/><path class="cls-1" d="M81,199.2a.49.49,0,0,1,0,.92,1.76,1.76,0,0,1-1.59,0,.49.49,0,0,1,0-.92,1.76,1.76,0,0,1,1.59,0"/><path class="cls-1" d="M85.19,196.8a.49.49,0,0,1,0,.92,1.76,1.76,0,0,1-1.59,0,.49.49,0,0,1,0-.92,1.76,1.76,0,0,1,1.59,0"/><path class="cls-1" d="M71.1,199.2a1.76,1.76,0,0,1,1.59,0,.49.49,0,0,1,0,.92,1.76,1.76,0,0,1-1.59,0,.49.49,0,0,1,0-.92"/><path class="cls-1" d="M76.86,196.8a.49.49,0,0,1,0,.92,1.76,1.76,0,0,1-1.59,0,.49.49,0,0,1,0-.92,1.76,1.76,0,0,1,1.59,0"/><path class="cls-1" d="M66.93,196.8a1.76,1.76,0,0,1,1.59,0,.49.49,0,0,1,0,.92,1.76,1.76,0,0,1-1.59,0,.49.49,0,0,1,0-.92"/><path class="cls-1" d="M72.7,194.39a.49.49,0,0,1,0,.92,1.76,1.76,0,0,1-1.59,0,.49.49,0,0,1,0-.92,1.76,1.76,0,0,1,1.59,0"/><path class="cls-1" d="M68.53,192a.49.49,0,0,1,0,.92,1.75,1.75,0,0,1-1.59,0,.49.49,0,0,1,0-.92,1.76,1.76,0,0,1,1.59,0h0"/><path class="cls-1" d="M62.77,194.39a1.76,1.76,0,0,1,1.59,0,.49.49,0,0,1,0,.92,1.76,1.76,0,0,1-1.59,0,.49.49,0,0,1,0-.92"/><path class="cls-1" d="M58.6,192a1.76,1.76,0,0,1,1.59,0,.49.49,0,0,1,0,.92,1.77,1.77,0,0,1-1.59,0,.49.49,0,0,1,0-.92"/><path class="cls-1" d="M64.36,189.58a.49.49,0,0,1,0,.92,1.76,1.76,0,0,1-1.59,0,.49.49,0,0,1,0-.92,1.75,1.75,0,0,1,1.59,0h0"/><path class="cls-1" d="M54.4,189.56a1.76,1.76,0,0,1,1.59,0,.49.49,0,0,1,0,.92,1.76,1.76,0,0,1-1.59,0,.49.49,0,0,1,0-.92"/><path class="cls-1" d="M60.16,187.15a.49.49,0,0,1,0,.92,1.76,1.76,0,0,1-1.59,0,.49.49,0,0,1,0-.92,1.76,1.76,0,0,1,1.59,0"/><path class="cls-1" d="M50.23,187.15a1.76,1.76,0,0,1,1.59,0,.49.49,0,0,1,0,.92,1.76,1.76,0,0,1-1.59,0,.49.49,0,0,1,0-.92"/><path class="cls-1" d="M56,184.75a.49.49,0,0,1,0,.92,1.76,1.76,0,0,1-1.59,0,.49.49,0,0,1,0-.92,1.76,1.76,0,0,1,1.59,0"/><path class="cls-1" d="M46.07,184.75a1.76,1.76,0,0,1,1.59,0,.49.49,0,0,1,0,.92,1.76,1.76,0,0,1-1.59,0,.49.49,0,0,1,0-.92"/><path class="cls-1" d="M51.83,182.34a.49.49,0,0,1,0,.92,1.76,1.76,0,0,1-1.59,0,.49.49,0,0,1,0-.92,1.76,1.76,0,0,1,1.59,0"/><path class="cls-1" d="M41.9,182.34a1.76,1.76,0,0,1,1.59,0,.49.49,0,0,1,0,.92,1.76,1.76,0,0,1-1.59,0,.49.49,0,0,1,0-.92"/><path class="cls-1" d="M47.67,179.93a.49.49,0,0,1,0,.92,1.76,1.76,0,0,1-1.59,0,.49.49,0,0,1,0-.92,1.76,1.76,0,0,1,1.59,0"/><path class="cls-2" d="M31,91.05c1.77-5.84,3-10.37,3-10.37a82.34,82.34,0,0,0-8.42-2.94c-2.69-.88-6.07,0-9.52,2.75C9.13,86.06,4.71,96.74,6,105a10.92,10.92,0,0,0,4.27,7.2s5.6,4.78,10.6,4.19c1.85-.22,3.75-6.6,6.32-13.86A31.9,31.9,0,0,0,31,91.05"/><path class="cls-3" d="M30.87,91.05c.46-1.51.88-2.93,1.25-4.21a72,72,0,0,0-7.64-2.63h0c-2.69-.88-6.07,0-9.52,2.75a29.41,29.41,0,0,0-9.26,14.73A19.68,19.68,0,0,0,5.93,105a10.92,10.92,0,0,0,4.27,7.2s5.6,4.78,10.6,4.19c1.85-.22,3.75-6.6,6.32-13.86a31.88,31.88,0,0,0,3.74-11.51"/><path class="cls-1" d="M20,117.54c-4.92,0-9.83-4-10.4-4.49A12,12,0,0,1,5,105.2C3.6,96.53,8.06,85.55,15.35,79.65c3.62-2.93,7.36-4,10.53-2.93a81.19,81.19,0,0,1,8.48,3l.88.35L35,81s-1.23,4.57-3,10.31a33.14,33.14,0,0,1-3.85,11.8l-1,3c-2.62,7.55-4,11.19-6.12,11.45a8.7,8.7,0,0,1-1,.06m3.36-39.07a11,11,0,0,0-6.68,2.84C10.06,86.68,5.84,97,7.08,104.87a9.9,9.9,0,0,0,3.9,6.55c1.84,1.55,6.23,4.36,9.79,3.94,1-.39,2.86-5.73,4.34-10,.35-1,.71-2.06,1.09-3.13A31.42,31.42,0,0,0,29.9,90.94l0-.19c1.29-4.23,2.29-7.81,2.73-9.42a70.19,70.19,0,0,0-7.37-2.54,6.14,6.14,0,0,0-1.92-.3"/><path class="cls-1" d="M40,88.06c-.67-4.25-2.71-7.23-5.73-8.4-3.23-1.24-7.09-.25-10.87,2.81-7.15,5.79-11.87,17.51-10.5,26.14.67,4.25,2.71,7.23,5.72,8.4a7.91,7.91,0,0,0,2.86.52c2.54,0,5.3-1.13,8-3.33C36.68,108.4,41.39,96.68,40,88.06"/><path class="cls-1" d="M32.87,93.17c.67,4.24-1.65,10-5.17,12.84s-6.93,1.73-7.6-2.52,1.65-10,5.17-12.84,6.93-1.73,7.6,2.51"/><path class="cls-2" d="M23.95,108.66a4.58,4.58,0,0,1-1.65-.3c-1.72-.66-2.88-2.33-3.25-4.7-.73-4.65,1.7-10.73,5.55-13.84,2.08-1.69,4.24-2.22,6.07-1.52s2.88,2.33,3.25,4.7c.73,4.65-1.7,10.73-5.55,13.84a7.19,7.19,0,0,1-4.42,1.82M29,90.15a5.18,5.18,0,0,0-3.1,1.34c-3.2,2.59-5.39,8-4.78,11.84.25,1.58.93,2.66,1.91,3s2.52,0,4-1.18c3.2-2.59,5.39-8,4.78-11.85h0c-.25-1.58-.93-2.66-1.91-3a2.4,2.4,0,0,0-.86-.15"/><path class="cls-2" d="M93.76,191.53c-2.94-12.52-9.35-31.91-21.81-39.3l-7.41-4.41-.8-8.31a21.24,21.24,0,0,0,2.11-1.2l.09-.05.27-.19a7.54,7.54,0,0,0,3.57-5l1-4.34,3.41-15.22c.13-.47.24-1,.33-1.47l.09-.39h0a24.24,24.24,0,0,0,.33-3.67c.16-13.36-9-29.71-20.52-36.52-5.26-3.12-9.58-3.86-13.29-2.29l-.52.17-.28.16a9.72,9.72,0,0,0-1.24.69l-9.72,5.36-.52,1.07,4.73,3.57a24.89,24.89,0,0,0-.25,3.12,26.24,26.24,0,0,0,.13,3.55l.07.31.09.82c.09.72.19,1.13.33,1.86L37.77,114h0a38.29,38.29,0,0,0,5.87,14.47l-1,6.57c-1.81-1.07-5.06-3.2-7.41-4.6-4.87-2.89-8.44-3.06-11.7-1.47l-.44.18L22,129.8l0,0-8.5,4.73,1.91,3.07a44.36,44.36,0,0,0-2.59,5.87c-1.47,4.08,1.59,11,6.05,13.64l33.65,20,1.46.87,26,15.42c.34,3.12.88,7.32,1.17,9.51a1,1,0,0,0,1.5.75l9.47-5.27c1.69-.95,2.48-3.44,1.68-6.83"/><path class="cls-3" d="M93.76,196.2c-2.94-12.52-9.35-31.91-21.81-39.3l-7.41-4.41-.8-8.31c.69-.34-.44-1.59.26-2l-1-.48,1.11-3.52c1.74-1.16,3.34-.38,3.84-2.86l2.86-1.94,3.41-15.22c.13-.47.24-1,.33-1.47l.09-.39h0a24.37,24.37,0,0,0,.33-3.67c.16-13.36-9-29.71-20.52-36.52-5.26-3.12-9.58-3.86-13.29-2.29l-.52.17-.28.16a9.84,9.84,0,0,0-1.24.69l-9.72,5.36-.52,1.07,4.73,3.57a25.08,25.08,0,0,0-.25,3.12,26.39,26.39,0,0,0,.13,3.55l.07.31.09.82c.09.72.19,1.13.33,1.86l3.85,24.27h0a38.31,38.31,0,0,0,5.87,14.47l-1,6.57c-1.81-1.07-5.06-3.2-7.41-4.6-4.87-2.89-8.44-3.06-11.71-1.47l-.44.18-1.13.63,0,0-8.5,4.73,1.91,3.07a44.47,44.47,0,0,0-2.59,5.87c-1.47,4.08,1.59,11,6,13.64l33.65,20,1.46.87,26,15.42c.34,3.12-2.06,2.32-1.77,4.51a1,1,0,0,0,1.5.75L89.13,198c1.69-.95,5.42,1.56,4.63-1.83"/><path class="cls-1" d="M82.11,204.83a2.07,2.07,0,0,1-2.05-1.8c-.27-2.07-.77-5.95-1.11-9L18.28,158c-4.94-2.93-8.16-10.32-6.51-14.92a45.38,45.38,0,0,1,2.37-5.47L12,134.16,23.14,128c3.74-1.83,7.78-1.35,12.65,1.54,1.27.75,2.8,1.72,4.22,2.62l1.84,1.16.68-4.58a39.39,39.39,0,0,1-5.81-14.56l-4-24.8c-.09-.44-.16-.81-.23-1.34l-.15-1a26.64,26.64,0,0,1-.16-3.8,24.52,24.52,0,0,1,.18-2.63l-4.94-3.73,1.05-2.16,10-5.53a10,10,0,0,1,1.31-.72l.92-.37c3.95-1.68,8.61-.91,14.16,2.38,11.77,7,21.2,23.78,21,37.45a24.57,24.57,0,0,1-.24,3.12l.05,0-.23,1.15c-.09.49-.21,1-.34,1.5l-4.4,19.53a8.63,8.63,0,0,1-4,5.7l-.23.17c-.61.4-1.17.72-1.7,1l.68,7.06,6.95,4.14c12.4,7.35,19,25.8,22.3,40,.87,3.69,0,6.76-2.19,8l-9.47,5.28a2.09,2.09,0,0,1-1,.27m-67.17-69.9,1.64,2.65-.29.54a43.32,43.32,0,0,0-2.53,5.73c-1.31,3.63,1.57,10,5.59,12.37l61.58,36.52.06.53c.34,3.11.88,7.3,1.17,9.49l9.4-5.32c1.34-.75,1.8-3,1.16-5.66-2.65-11.28-8.94-31.29-21.32-38.63l-7.88-4.69-.92-9.58.65-.33a19.85,19.85,0,0,0,2-1.14l.31-.21a6.5,6.5,0,0,0,3.15-4.41l4.41-19.58c.13-.49.24-.94.32-1.42l.06-.38a23.2,23.2,0,0,0,.32-3.51c.15-13-8.82-29-20-35.6-4.93-2.92-9-3.65-12.33-2.23l-.7.28a9.71,9.71,0,0,0-1.18.65l-9.47,5.23,4.52,3.41-.09.62a23.77,23.77,0,0,0-.23,3,24.94,24.94,0,0,0,.13,3.42l0,.18.11.94c.06.47.13.79.2,1.18l.12.6,3.86,24.29a37.11,37.11,0,0,0,5.7,14l.23.34-1.28,8.54L42.13,136c-.85-.5-2-1.24-3.24-2-1.41-.89-2.91-1.84-4.17-2.58-4.25-2.53-7.56-3-10.7-1.43l-.49.21Z"/><path class="cls-2" d="M83.33,197.35C80.39,184.83,74,165.44,61.52,158l-7.41-4.41-.8-8.31c2.43-1.22,5.32-3,6-6.5l1-4.34,3.41-15.22c.13-.47.24-1,.33-1.47l.09-.39h0a24.38,24.38,0,0,0,.33-3.67C64.63,100.37,55.44,84,44,77.2S23,75.7,22.87,89.05A26.4,26.4,0,0,0,23,92.6l.07.31.09.82c.09.73.19,1.13.33,1.86l3.85,24.27h0a38.31,38.31,0,0,0,5.87,14.47l-1,6.57c-1.81-1.07-5.06-3.2-7.41-4.6-12.5-7.41-19.28,4.15-22.48,13-1.47,4.08,1.59,11,6,13.64l33.65,20,1.46.87L77,203.67c4.45,2.64,7.64-.57,6.29-6.32"/><path class="cls-1" d="M80,205.67a7,7,0,0,1-3.52-1.08L7.85,163.87C2.91,160.94-.32,153.55,1.34,149c2.1-5.81,5.89-13.21,12.08-15.43,3.64-1.31,7.66-.69,11.95,1.85,1.26.75,2.78,1.71,4.2,2.6l1.86,1.17.68-4.58A39.4,39.4,0,0,1,26.29,120l-4-24.8c-.09-.44-.16-.81-.23-1.34l-.15-1A26.51,26.51,0,0,1,21.8,89c.08-6.86,2.51-12,6.83-14.4s10-1.84,15.86,1.65c11.77,7,21.2,23.78,21,37.45a24.42,24.42,0,0,1-.24,3.12l0,0L65.12,118c-.09.49-.21,1-.34,1.5l-4.4,19.53c-.73,3.55-3.33,5.49-5.95,6.87l.68,7.06,6.95,4.14c12.4,7.36,19,25.8,22.3,40,.81,3.45.15,6.34-1.75,7.74a4.31,4.31,0,0,1-2.59.82M17.25,135a9.2,9.2,0,0,0-3.11.54c-5.41,1.94-8.86,8.77-10.8,14.15C2,153.3,4.91,159.66,8.93,162l68.66,40.72c1.53.9,2.86,1,3.76.38,1.18-.87,1.54-3,.94-5.54C79.65,186.32,73.36,166.3,61,159l-7.87-4.69-.92-9.57.65-.33c2.48-1.24,4.86-2.79,5.48-5.76L62.72,119c.13-.49.23-.94.32-1.42l.06-.38a23,23,0,0,0,.32-3.51c.15-13-8.82-29-20-35.6-5.22-3.1-10.09-3.67-13.73-1.63S24,83,23.93,89.06a25.62,25.62,0,0,0,.12,3.42l0,.17.12.95c.06.47.13.79.2,1.18l.12.6,3.85,24.29a37.12,37.12,0,0,0,5.71,14l.23.34-1.28,8.54-1.36-.81c-.85-.5-2-1.24-3.27-2-1.4-.89-2.9-1.83-4.15-2.57a13.92,13.92,0,0,0-7-2.21"/><polygon class="cls-1" points="64.73 113.02 74.89 106.52 75.29 109.16 69.86 133.76 66.5 137.87 63.98 139.34 64.8 147.84 54.14 153.79 53.32 145.29 59.01 141.9 60.15 135.8 64.73 113.02"/><polygon class="cls-1" points="80.55 190.24 91.67 184.02 94.07 192.69 93.93 195.7 91.95 198.76 82.3 203.44 82.98 198.91 81.85 192.12 80.55 190.24"/><path class="cls-2" d="M81.5,117.06c1.77-5.84,3-10.37,3-10.37a82.14,82.14,0,0,0-8.42-2.94h0c-2.69-.88-6.07,0-9.52,2.75-6.9,5.58-11.31,16.25-10,24.55a10.92,10.92,0,0,0,4.27,7.2s5.33,4.44,9.75,4.06c1.85-.16,4.61-6.47,7.17-13.73a31.88,31.88,0,0,0,3.74-11.51"/><path class="cls-3" d="M66.65,112.68a29.76,29.76,0,0,0-9.94,17.91c0,.15,0,.31.05.46a10.92,10.92,0,0,0,4.27,7.2s5.33,4.44,9.75,4.06c1.85-.16,4.61-6.47,7.17-13.73a31.89,31.89,0,0,0,3.74-11.51c.53-1.75,1-3.35,1.41-4.77a65.2,65.2,0,0,0-6.94-2.36h0c-2.69-.89-6.07,0-9.52,2.75"/><path class="cls-1" d="M70,143.4c-4.49,0-9.31-3.86-9.87-4.32a12,12,0,0,1-4.65-7.86c-1.37-8.67,3.1-19.66,10.39-25.55,3.62-2.93,7.36-4,10.52-2.93a81,81,0,0,1,8.48,3l.88.35-.25.91s-1.23,4.57-3,10.31a33.1,33.1,0,0,1-3.86,11.8c-4.34,12.33-6.49,14.15-8,14.28l-.65,0m3.89-38.91a11,11,0,0,0-6.68,2.84c-6.63,5.36-10.86,15.71-9.62,23.56a9.9,9.9,0,0,0,3.9,6.55c1.74,1.43,5.9,4.1,9,3.81.17-.05,2-.87,6.26-13a31.43,31.43,0,0,0,3.69-11.27l0-.19c1.29-4.23,2.29-7.81,2.73-9.42a70,70,0,0,0-7.37-2.54,6.14,6.14,0,0,0-1.92-.3"/><path class="cls-1" d="M89.52,114.23c1.31,8.3-3.22,19.56-10.12,25.14s-13.55,3.38-14.87-4.92,3.22-19.55,10.12-25.14,13.55-3.38,14.87,4.92"/><path class="cls-1" d="M72.06,143.53A7.9,7.9,0,0,1,69.2,143c-3-1.16-5.05-4.14-5.73-8.4C62.12,126,66.83,114.27,74,108.48c3.77-3.05,7.63-4.05,10.87-2.81,3,1.16,5.05,4.14,5.73,8.4,1.36,8.62-3.35,20.35-10.5,26.13a13.08,13.08,0,0,1-8,3.33M82,107.3a11.13,11.13,0,0,0-6.71,2.84c-6.62,5.36-11,16.19-9.73,24.14.55,3.47,2.1,5.86,4.38,6.73,2.46.94,5.65,0,8.76-2.48,6.62-5.36,11-16.19,9.73-24.14-.55-3.47-2.1-5.86-4.38-6.73a5.66,5.66,0,0,0-2-.37"/><path class="cls-1" d="M90,117c1,6.6-2.56,15.54-8,20s-10.78,2.69-11.82-3.91,2.56-15.54,8-20S88.91,110.43,90,117"/><path class="cls-2" d="M76.07,140.54a6.5,6.5,0,0,1-2.35-.43c-2.48-1-4.14-3.38-4.69-6.84-1.09-6.92,2.69-16.33,8.43-21,3.07-2.48,6.21-3.28,8.86-2.27,2.48,1,4.14,3.38,4.69,6.84,1.09,6.92-2.69,16.34-8.43,21a10.61,10.61,0,0,1-6.51,2.7M84,111.74A8.64,8.64,0,0,0,78.81,114c-5.21,4.22-8.65,12.73-7.66,19,.42,2.68,1.61,4.52,3.34,5.18s4.33,0,6.75-1.93c5.21-4.22,8.65-12.73,7.66-19-.42-2.67-1.61-4.51-3.34-5.18a4.33,4.33,0,0,0-1.55-.28"/><path class="cls-1" d="M27.38,137.47a1.69,1.69,0,0,1-2.39.2l-6.49-5.48c-6.09-5.15-5.4-12.86-3.81-17.42a1.69,1.69,0,0,1,2.33-.94h0a1.69,1.69,0,0,1,.87,2.06c-1,2.82-2.42,9.31,2.78,13.7l6.49,5.48a1.7,1.7,0,0,1,.2,2.39"/><path class="cls-1" d="M26.08,139.14a2.75,2.75,0,0,1-1.78-.65L17.81,133c-6-5.1-6.1-12.95-4.13-18.59a2.72,2.72,0,0,1,1.53-1.62,2.79,2.79,0,0,1,2.27.07,2.76,2.76,0,0,1,1.43,3.38c-1,3-2.11,8.67,2.46,12.54l6.49,5.48a2.77,2.77,0,0,1,.33,3.9,2.73,2.73,0,0,1-1.88,1h-.24m-9.8-24.41a.65.65,0,0,0-.24,0,.59.59,0,0,0-.33.34c-.84,2.41-3.07,10.71,3.49,16.25l6.49,5.48a.64.64,0,0,0,.46.15.63.63,0,0,0,.35-1.1L20,130.42c-5.75-4.86-4.09-12-3.1-14.87a.62.62,0,0,0-.33-.75.68.68,0,0,0-.29-.07"/><path class="cls-2" d="M17.62,112.86a2.8,2.8,0,0,0-2.27-.06,2.71,2.71,0,0,0-.7.48A9.45,9.45,0,0,0,15.9,115a.56.56,0,0,1,.51-.29.68.68,0,0,1,.29.07.62.62,0,0,1,.33.75l-.12.38A7.54,7.54,0,0,0,18.79,117h0c.08-.27.16-.52.24-.76a2.76,2.76,0,0,0-1.43-3.38"/><path class="cls-2" d="M35.82,136.61a6,6,0,1,1-6.81-5,6,6,0,0,1,6.81,5"/><path class="cls-3" d="M28.9,134.54a6,6,0,0,0-4.83,4.34,5.94,5.94,0,0,0,11.49.09,5.94,5.94,0,0,0-6.66-4.43"/><path class="cls-1" d="M36.88,136.44a7,7,0,1,0-6.95,8.11,7.16,7.16,0,0,0,1.09-.08,7,7,0,0,0,5.86-8m-7.7-3.75a5,5,0,0,1,.76-.06,4.85,4.85,0,0,1,1.47.23s0,.06,0,.09a6,6,0,0,1-5,6.81,5.81,5.81,0,0,1-.83,0,4.77,4.77,0,0,1-.53-1.53,4.9,4.9,0,0,1,4.08-5.59"/><path class="cls-1" d="M23.71,80.09a12.36,12.36,0,0,1,3.93-4.73c2-5.64,6.17-14.3,13.53-18.23,5.21-2.79,11.36-2.78,18.28,0C82.8,66.58,76.88,95.79,74.8,103.66a2.13,2.13,0,0,0,4.12,1c2.18-8.7,8.28-41-17.87-51.52-8.15-3.29-15.53-3.23-21.91.19C28.53,59,23.9,72.31,22.43,77.59a2.09,2.09,0,0,0,1.29,2.5"/><path class="cls-1" d="M76.87,107.38a3.2,3.2,0,0,1-3.1-4C76,95.05,81.39,67.16,59,58.14c-6.62-2.67-12.46-2.69-17.37-.06-7.22,3.86-11.26,12.71-13,17.64l-.11.32-.27.2a11.32,11.32,0,0,0-3.59,4.32l-.43.89-.92-.37A3.17,3.17,0,0,1,21.4,77.3c1.54-5.53,6.29-19,17.23-24.87,6.68-3.57,14.35-3.65,22.82-.24C88.21,63,82.38,95.32,80,105a3.14,3.14,0,0,1-1.54,2,3.19,3.19,0,0,1-1.56.4M49.64,54a27.37,27.37,0,0,1,10.2,2.18c24,9.68,18.3,39,16,47.77a1.06,1.06,0,0,0,1.55,1.18,1,1,0,0,0,.5-.66c2.32-9.23,7.92-40.12-17.24-50.27-7.85-3.17-14.92-3.12-21,.14-10.21,5.47-14.72,18.3-16.18,23.56a1,1,0,0,0,0,.48,13.14,13.14,0,0,1,3.3-3.66c2.31-6.34,6.58-14.58,13.92-18.5a18.76,18.76,0,0,1,9-2.21"/><path class="cls-1" d="M102.84,115a.43.43,0,0,1,0,.81,1.55,1.55,0,0,1-1.4,0,.43.43,0,0,1,0-.81,1.55,1.55,0,0,1,1.4,0"/><path class="cls-1" d="M99.18,112.87a.43.43,0,0,1,0,.81,1.56,1.56,0,0,1-1.4,0,.43.43,0,0,1,0-.81,1.55,1.55,0,0,1,1.4,0"/><path class="cls-1" d="M95.53,110.73a.43.43,0,0,1,0,.81,1.55,1.55,0,0,1-1.4,0,.43.43,0,0,1,0-.81,1.55,1.55,0,0,1,1.4,0"/><path class="cls-1" d="M91.87,108.59a.43.43,0,0,1,0,.81,1.55,1.55,0,0,1-1.4,0,.43.43,0,0,1,0-.81,1.55,1.55,0,0,1,1.4,0"/><path class="cls-1" d="M165.19,151.11a.43.43,0,0,1,0,.81,1.56,1.56,0,0,1-1.4,0,.43.43,0,0,1,0-.81,1.56,1.56,0,0,1,1.4,0"/><path class="cls-1" d="M143.12,159.45a.43.43,0,0,1,0,.81,1.56,1.56,0,0,1-1.4,0,.43.43,0,0,1,0-.81,1.56,1.56,0,0,1,1.4,0"/><path class="cls-1" d="M146.8,157.35a.43.43,0,0,1,0,.81,1.55,1.55,0,0,1-1.4,0,.43.43,0,0,1,0-.81,1.55,1.55,0,0,1,1.4,0"/><path class="cls-1" d="M150.49,155.26a.43.43,0,0,1,0,.81,1.55,1.55,0,0,1-1.4,0,.43.43,0,0,1,0-.81,1.55,1.55,0,0,1,1.4,0"/><path class="cls-1" d="M154.17,153.16a.43.43,0,0,1,0,.81,1.55,1.55,0,0,1-1.4,0,.43.43,0,0,1,0-.81,1.56,1.56,0,0,1,1.4,0"/><path class="cls-1" d="M157.85,151.07a.43.43,0,0,1,0,.81,1.56,1.56,0,0,1-1.4,0,.43.43,0,0,1,0-.81,1.55,1.55,0,0,1,1.4,0"/><path class="cls-1" d="M161.53,149a.43.43,0,0,1,0,.81,1.55,1.55,0,0,1-1.4,0,.43.43,0,0,1,0-.81,1.55,1.55,0,0,1,1.4,0"/><path class="cls-1" d="M135.78,159.4a.43.43,0,0,1,0,.81,1.56,1.56,0,0,1-1.4,0,.43.43,0,0,1,0-.81,1.55,1.55,0,0,1,1.4,0"/><path class="cls-1" d="M139.47,157.31a.43.43,0,0,1,0,.81,1.55,1.55,0,0,1-1.4,0,.43.43,0,0,1,0-.81,1.55,1.55,0,0,1,1.4,0"/><path class="cls-1" d="M143.15,155.21a.43.43,0,0,1,0,.81,1.55,1.55,0,0,1-1.4,0,.43.43,0,0,1,0-.81,1.56,1.56,0,0,1,1.4,0"/><path class="cls-1" d="M146.83,153.12a.43.43,0,0,1,0,.81,1.56,1.56,0,0,1-1.4,0,.43.43,0,0,1,0-.81,1.55,1.55,0,0,1,1.4,0"/><path class="cls-1" d="M150.51,151a.43.43,0,0,1,0,.81,1.55,1.55,0,0,1-1.4,0,.43.43,0,0,1,0-.81,1.55,1.55,0,0,1,1.4,0"/><path class="cls-1" d="M154.19,148.93a.43.43,0,0,1,0,.81,1.55,1.55,0,0,1-1.4,0,.43.43,0,0,1,0-.81,1.55,1.55,0,0,1,1.4,0"/><path class="cls-1" d="M157.88,146.83a.43.43,0,0,1,0,.81,1.56,1.56,0,0,1-1.4,0,.43.43,0,0,1,0-.81,1.56,1.56,0,0,1,1.4,0"/><path class="cls-1" d="M132.13,157.26a.43.43,0,0,1,0,.81,1.55,1.55,0,0,1-1.4,0,.43.43,0,0,1,0-.81,1.56,1.56,0,0,1,1.4,0"/><path class="cls-1" d="M135.81,155.17a.43.43,0,0,1,0,.81,1.56,1.56,0,0,1-1.4,0,.43.43,0,0,1,0-.81,1.56,1.56,0,0,1,1.4,0"/><path class="cls-1" d="M139.49,153.07a.43.43,0,0,1,0,.81,1.55,1.55,0,0,1-1.4,0,.43.43,0,0,1,0-.81,1.55,1.55,0,0,1,1.4,0"/><path class="cls-1" d="M143.18,151a.43.43,0,0,1,0,.81,1.55,1.55,0,0,1-1.4,0,.43.43,0,0,1,0-.81,1.55,1.55,0,0,1,1.4,0"/><path class="cls-1" d="M146.86,148.88a.43.43,0,0,1,0,.81,1.56,1.56,0,0,1-1.4,0,.43.43,0,0,1,0-.81,1.56,1.56,0,0,1,1.4,0"/><path class="cls-1" d="M150.54,146.79a.43.43,0,0,1,0,.81,1.56,1.56,0,0,1-1.4,0,.43.43,0,0,1,0-.81,1.56,1.56,0,0,1,1.4,0"/><path class="cls-1" d="M154.22,144.69a.43.43,0,0,1,0,.81,1.55,1.55,0,0,1-1.4,0,.43.43,0,0,1,0-.81,1.55,1.55,0,0,1,1.4,0"/><path class="cls-1" d="M128.47,155.12a.43.43,0,0,1,0,.81,1.55,1.55,0,0,1-1.4,0,.43.43,0,0,1,0-.81,1.55,1.55,0,0,1,1.4,0"/><path class="cls-1" d="M132.16,153a.43.43,0,0,1,0,.81,1.55,1.55,0,0,1-1.4,0,.43.43,0,0,1,0-.81,1.55,1.55,0,0,1,1.4,0"/><path class="cls-1" d="M135.84,150.93a.43.43,0,0,1,0,.81,1.55,1.55,0,0,1-1.4,0,.43.43,0,0,1,0-.81,1.56,1.56,0,0,1,1.4,0"/><path class="cls-1" d="M139.52,148.84a.43.43,0,0,1,0,.81,1.56,1.56,0,0,1-1.4,0,.43.43,0,0,1,0-.81,1.56,1.56,0,0,1,1.4,0"/><path class="cls-1" d="M143.2,146.74a.43.43,0,0,1,0,.81,1.55,1.55,0,0,1-1.4,0,.43.43,0,0,1,0-.81,1.55,1.55,0,0,1,1.4,0"/><path class="cls-1" d="M146.88,144.65a.43.43,0,0,1,0,.81,1.55,1.55,0,0,1-1.4,0,.43.43,0,0,1,0-.81,1.55,1.55,0,0,1,1.4,0"/><path class="cls-1" d="M150.57,142.55a.43.43,0,0,1,0,.81,1.56,1.56,0,0,1-1.4,0,.43.43,0,0,1,0-.81,1.56,1.56,0,0,1,1.4,0"/><path class="cls-1" d="M124.79,153a.43.43,0,0,1,0,.81,1.55,1.55,0,0,1-1.4,0,.43.43,0,0,1,0-.81,1.56,1.56,0,0,1,1.4,0"/><path class="cls-1" d="M128.47,150.86a.43.43,0,0,1,0,.81,1.56,1.56,0,0,1-1.4,0,.43.43,0,0,1,0-.81,1.56,1.56,0,0,1,1.4,0"/><path class="cls-1" d="M132.15,148.77a.43.43,0,0,1,0,.81,1.55,1.55,0,0,1-1.4,0,.43.43,0,0,1,0-.81,1.55,1.55,0,0,1,1.4,0"/><path class="cls-1" d="M135.83,146.67a.43.43,0,0,1,0,.81,1.55,1.55,0,0,1-1.4,0,.43.43,0,0,1,0-.81,1.56,1.56,0,0,1,1.4,0"/><path class="cls-1" d="M139.51,144.58a.43.43,0,0,1,0,.81,1.56,1.56,0,0,1-1.4,0,.43.43,0,0,1,0-.81,1.56,1.56,0,0,1,1.4,0"/><path class="cls-1" d="M143.2,142.48a.43.43,0,0,1,0,.81,1.56,1.56,0,0,1-1.4,0,.43.43,0,0,1,0-.81,1.55,1.55,0,0,1,1.4,0"/><path class="cls-1" d="M146.88,140.39a.43.43,0,0,1,0,.81,1.55,1.55,0,0,1-1.4,0,.43.43,0,0,1,0-.81,1.55,1.55,0,0,1,1.4,0"/><path class="cls-1" d="M121.13,150.82a.43.43,0,0,1,0,.81,1.56,1.56,0,0,1-1.4,0,.43.43,0,0,1,0-.81,1.55,1.55,0,0,1,1.4,0"/><path class="cls-1" d="M124.81,148.72a.43.43,0,0,1,0,.81,1.55,1.55,0,0,1-1.4,0,.43.43,0,0,1,0-.81,1.55,1.55,0,0,1,1.4,0"/><path class="cls-1" d="M128.5,146.63a.43.43,0,0,1,0,.81,1.56,1.56,0,0,1-1.4,0,.43.43,0,0,1,0-.81,1.56,1.56,0,0,1,1.4,0"/><path class="cls-1" d="M132.18,144.53a.43.43,0,0,1,0,.81,1.56,1.56,0,0,1-1.4,0,.43.43,0,0,1,0-.81,1.55,1.55,0,0,1,1.4,0"/><path class="cls-1" d="M135.86,142.44a.43.43,0,0,1,0,.81,1.55,1.55,0,0,1-1.4,0,.43.43,0,0,1,0-.81,1.55,1.55,0,0,1,1.4,0"/><path class="cls-1" d="M139.54,140.34a.43.43,0,0,1,0,.81,1.55,1.55,0,0,1-1.4,0,.43.43,0,0,1,0-.81,1.55,1.55,0,0,1,1.4,0"/><path class="cls-1" d="M143.22,138.25a.43.43,0,0,1,0,.81,1.56,1.56,0,0,1-1.4,0,.43.43,0,0,1,0-.81,1.56,1.56,0,0,1,1.4,0"/><path class="cls-1" d="M117.48,148.67a.43.43,0,0,1,0,.81,1.56,1.56,0,0,1-1.4,0,.43.43,0,0,1,0-.81,1.56,1.56,0,0,1,1.4,0"/><path class="cls-1" d="M121.16,146.58a.43.43,0,0,1,0,.81,1.55,1.55,0,0,1-1.4,0,.43.43,0,0,1,0-.81,1.55,1.55,0,0,1,1.4,0"/><path class="cls-1" d="M124.84,144.48a.43.43,0,0,1,0,.81,1.55,1.55,0,0,1-1.4,0,.43.43,0,0,1,0-.81,1.55,1.55,0,0,1,1.4,0"/><path class="cls-1" d="M128.52,142.39a.43.43,0,0,1,0,.81,1.55,1.55,0,0,1-1.4,0,.43.43,0,0,1,0-.81,1.55,1.55,0,0,1,1.4,0"/><path class="cls-1" d="M132.2,140.29a.43.43,0,0,1,0,.81,1.56,1.56,0,0,1-1.4,0,.43.43,0,0,1,0-.81,1.56,1.56,0,0,1,1.4,0"/><path class="cls-1" d="M135.89,138.2a.43.43,0,0,1,0,.81,1.56,1.56,0,0,1-1.4,0,.43.43,0,0,1,0-.81,1.55,1.55,0,0,1,1.4,0"/><path class="cls-1" d="M139.57,136.1a.43.43,0,0,1,0,.81,1.55,1.55,0,0,1-1.4,0,.43.43,0,0,1,0-.81,1.55,1.55,0,0,1,1.4,0"/><path class="cls-1" d="M117.5,144.44a.43.43,0,0,1,0,.81,1.55,1.55,0,0,1-1.4,0,.43.43,0,0,1,0-.81,1.55,1.55,0,0,1,1.4,0"/><path class="cls-1" d="M121.19,142.34a.43.43,0,0,1,0,.81,1.55,1.55,0,0,1-1.4,0,.43.43,0,0,1,0-.81,1.56,1.56,0,0,1,1.4,0"/><path class="cls-1" d="M124.87,140.25a.43.43,0,0,1,0,.81,1.55,1.55,0,0,1-1.4,0,.43.43,0,0,1,0-.81,1.55,1.55,0,0,1,1.4,0"/><path class="cls-1" d="M128.55,138.15a.43.43,0,0,1,0,.81,1.55,1.55,0,0,1-1.4,0,.43.43,0,0,1,0-.81,1.55,1.55,0,0,1,1.4,0"/><path class="cls-1" d="M132.23,136.06a.43.43,0,0,1,0,.81,1.56,1.56,0,0,1-1.4,0,.43.43,0,0,1,0-.81,1.56,1.56,0,0,1,1.4,0"/><path class="cls-1" d="M135.91,134a.43.43,0,0,1,0,.81,1.56,1.56,0,0,1-1.4,0,.43.43,0,0,1,0-.81,1.56,1.56,0,0,1,1.4,0"/><path class="cls-1" d="M117.53,140.2a.43.43,0,0,1,0,.81,1.55,1.55,0,0,1-1.4,0,.43.43,0,0,1,0-.81,1.55,1.55,0,0,1,1.4,0"/><path class="cls-1" d="M119.81,138.1a1.55,1.55,0,0,1,1.4,0,.43.43,0,0,1,0,.81,1.55,1.55,0,0,1-1.4,0,.43.43,0,0,1,0-.81"/><path class="cls-1" d="M124.89,136a.43.43,0,0,1,0,.81,1.56,1.56,0,0,1-1.4,0,.43.43,0,0,1,0-.81,1.56,1.56,0,0,1,1.4,0"/><path class="cls-1" d="M128.58,133.92a.43.43,0,0,1,0,.81,1.55,1.55,0,0,1-1.4,0,.43.43,0,0,1,0-.81,1.55,1.55,0,0,1,1.4,0"/><path class="cls-1" d="M132.26,131.82a.43.43,0,0,1,0,.81,1.55,1.55,0,0,1-1.4,0,.43.43,0,0,1,0-.81,1.55,1.55,0,0,1,1.4,0"/><path class="cls-1" d="M123.52,131.77a1.55,1.55,0,0,1,1.4,0,.43.43,0,0,1,0,.81,1.55,1.55,0,0,1-1.4,0,.43.43,0,0,1,0-.81"/><path class="cls-1" d="M128.6,129.68a.43.43,0,0,1,0,.81,1.56,1.56,0,0,1-1.4,0,.43.43,0,0,1,0-.81,1.55,1.55,0,0,1,1.4,0"/><path class="cls-1" d="M124.95,127.54a.43.43,0,0,1,0,.81,1.55,1.55,0,0,1-1.4,0,.43.43,0,0,1,0-.81,1.55,1.55,0,0,1,1.4,0"/><path class="cls-1" d="M121.29,125.4a.43.43,0,0,1,0,.81,1.56,1.56,0,0,1-1.4,0,.43.43,0,0,1,0-.81,1.56,1.56,0,0,1,1.4,0"/><path class="cls-1" d="M117.61,123.23a.43.43,0,0,1,0,.81,1.55,1.55,0,0,1-1.4,0,.43.43,0,0,1,0-.81,1.56,1.56,0,0,1,1.4,0"/><path class="cls-1" d="M113.95,121.09a.43.43,0,0,1,0,.81,1.56,1.56,0,0,1-1.4,0,.43.43,0,0,1,0-.81,1.55,1.55,0,0,1,1.4,0"/><path class="cls-1" d="M110.29,119a.43.43,0,0,1,0,.81,1.55,1.55,0,0,1-1.4,0,.43.43,0,0,1,0-.81,1.55,1.55,0,0,1,1.4,0"/><path class="cls-1" d="M106.64,116.81a.43.43,0,0,1,0,.81,1.56,1.56,0,0,1-1.4,0,.43.43,0,0,1,0-.81,1.55,1.55,0,0,1,1.4,0"/><path class="cls-1" d="M106.52,112.9a.43.43,0,0,1,0,.81,1.56,1.56,0,0,1-1.4,0,.43.43,0,0,1,0-.81,1.56,1.56,0,0,1,1.4,0"/><path class="cls-1" d="M110.2,110.81a.43.43,0,0,1,0,.81,1.55,1.55,0,0,1-1.4,0,.43.43,0,0,1,0-.81,1.55,1.55,0,0,1,1.4,0"/><path class="cls-1" d="M113.88,108.71a.43.43,0,0,1,0,.81,1.55,1.55,0,0,1-1.4,0,.43.43,0,0,1,0-.81,1.56,1.56,0,0,1,1.4,0"/><path class="cls-1" d="M102.86,110.76a.43.43,0,0,1,0,.81,1.55,1.55,0,0,1-1.4,0,.43.43,0,0,1,0-.81,1.56,1.56,0,0,1,1.4,0"/><path class="cls-1" d="M106.54,108.67a.43.43,0,0,1,0,.81,1.56,1.56,0,0,1-1.4,0,.43.43,0,0,1,0-.81,1.56,1.56,0,0,1,1.4,0"/><path class="cls-1" d="M110.23,106.57a.43.43,0,0,1,0,.81,1.55,1.55,0,0,1-1.4,0,.43.43,0,0,1,0-.81,1.55,1.55,0,0,1,1.4,0"/><path class="cls-1" d="M99.21,108.62a.43.43,0,0,1,0,.81,1.55,1.55,0,0,1-1.4,0,.43.43,0,0,1,0-.81,1.55,1.55,0,0,1,1.4,0"/><path class="cls-1" d="M102.89,106.52a.43.43,0,0,1,0,.81,1.55,1.55,0,0,1-1.4,0,.43.43,0,0,1,0-.81,1.55,1.55,0,0,1,1.4,0"/><path class="cls-1" d="M106.57,104.43a.43.43,0,0,1,0,.81,1.55,1.55,0,0,1-1.4,0,.43.43,0,0,1,0-.81,1.56,1.56,0,0,1,1.4,0"/><path class="cls-1" d="M95.55,106.48a.43.43,0,0,1,0,.81,1.55,1.55,0,0,1-1.4,0,.43.43,0,0,1,0-.81,1.56,1.56,0,0,1,1.4,0"/><path class="cls-1" d="M99.23,104.38a.43.43,0,0,1,0,.81,1.56,1.56,0,0,1-1.4,0,.43.43,0,0,1,0-.81,1.56,1.56,0,0,1,1.4,0"/><path class="cls-1" d="M102.92,102.29a.43.43,0,0,1,0,.81,1.55,1.55,0,0,1-1.4,0,.43.43,0,0,1,0-.81,1.55,1.55,0,0,1,1.4,0"/><path class="cls-1" d="M91.9,104.34a.43.43,0,0,1,0,.81,1.56,1.56,0,0,1-1.4,0,.43.43,0,0,1,0-.81,1.55,1.55,0,0,1,1.4,0"/><path class="cls-1" d="M95.58,102.24a.43.43,0,0,1,0,.81,1.55,1.55,0,0,1-1.4,0,.43.43,0,0,1,0-.81,1.55,1.55,0,0,1,1.4,0"/><path class="cls-1" d="M99.26,100.15a.43.43,0,0,1,0,.81,1.56,1.56,0,0,1-1.4,0,.43.43,0,0,1,0-.81,1.56,1.56,0,0,1,1.4,0"/><path class="cls-1" d="M91.89,100.08a.43.43,0,0,1,0,.81,1.56,1.56,0,0,1-1.4,0,.43.43,0,0,1,0-.81,1.56,1.56,0,0,1,1.4,0"/><path class="cls-1" d="M95.57,98a.43.43,0,0,1,0,.81,1.55,1.55,0,0,1-1.4,0c-.38-.23,1-1,1.41-.8"/><path class="cls-1" d="M168.87,149a.43.43,0,0,1,0,.81,1.55,1.55,0,0,1-1.4,0,.43.43,0,0,1,0-.81,1.55,1.55,0,0,1,1.4,0"/><path class="cls-1" d="M172.55,146.91a.43.43,0,0,1,0,.81,1.55,1.55,0,0,1-1.4,0,.43.43,0,0,1,0-.81,1.55,1.55,0,0,1,1.4,0"/><path class="cls-1" d="M176.23,144.82a.43.43,0,0,1,0,.81,1.56,1.56,0,0,1-1.4,0,.43.43,0,0,1,0-.81,1.56,1.56,0,0,1,1.4,0"/><path class="cls-1" d="M179.91,142.72a.43.43,0,0,1,0,.81,1.55,1.55,0,0,1-1.4,0,.43.43,0,0,1,0-.81,1.55,1.55,0,0,1,1.4,0"/><path class="cls-1" d="M165.21,146.87a.43.43,0,0,1,0,.81,1.56,1.56,0,0,1-1.4,0,.43.43,0,0,1,0-.81,1.56,1.56,0,0,1,1.4,0"/><path class="cls-1" d="M168.89,144.77a.43.43,0,0,1,0,.81,1.55,1.55,0,0,1-1.4,0,.43.43,0,0,1,0-.81,1.55,1.55,0,0,1,1.4,0"/><path class="cls-1" d="M172.57,142.68a.43.43,0,0,1,0,.81,1.55,1.55,0,0,1-1.4,0,.43.43,0,0,1,0-.81,1.55,1.55,0,0,1,1.4,0"/><path class="cls-1" d="M176.26,140.58a.43.43,0,0,1,0,.81,1.55,1.55,0,0,1-1.4,0,.43.43,0,0,1,0-.81,1.55,1.55,0,0,1,1.4,0"/><path class="cls-1" d="M161.56,144.73a.43.43,0,0,1,0,.81,1.55,1.55,0,0,1-1.4,0,.43.43,0,0,1,0-.81,1.55,1.55,0,0,1,1.4,0"/><path class="cls-1" d="M165.24,142.63a.43.43,0,0,1,0,.81,1.55,1.55,0,0,1-1.4,0,.43.43,0,0,1,0-.81,1.56,1.56,0,0,1,1.4,0"/><path class="cls-1" d="M168.92,140.54a.43.43,0,0,1,0,.81,1.56,1.56,0,0,1-1.4,0,.43.43,0,0,1,0-.81,1.56,1.56,0,0,1,1.4,0"/><path class="cls-1" d="M172.6,138.44a.43.43,0,0,1,0,.81,1.55,1.55,0,0,1-1.4,0,.43.43,0,0,1,0-.81,1.55,1.55,0,0,1,1.4,0"/><path class="cls-1" d="M157.9,142.58a.43.43,0,0,1,0,.81,1.56,1.56,0,0,1-1.4,0,.43.43,0,0,1,0-.81,1.56,1.56,0,0,1,1.4,0"/><path class="cls-1" d="M161.58,140.49a.43.43,0,0,1,0,.81,1.56,1.56,0,0,1-1.4,0,.43.43,0,0,1,0-.81,1.55,1.55,0,0,1,1.4,0"/><path class="cls-1" d="M165.26,138.39a.43.43,0,0,1,0,.81,1.55,1.55,0,0,1-1.4,0,.43.43,0,0,1,0-.81,1.55,1.55,0,0,1,1.4,0"/><path class="cls-1" d="M168.95,136.3a.43.43,0,0,1,0,.81,1.56,1.56,0,0,1-1.4,0,.43.43,0,0,1,0-.81,1.56,1.56,0,0,1,1.4,0"/><path class="cls-1" d="M172.62,135a1.55,1.55,0,0,1-1.4,0,.43.43,0,0,1,0-.81c.39-.22,1.79.6,1.4.82"/><path class="cls-1" d="M154.25,140.44a.43.43,0,0,1,0,.81,1.55,1.55,0,0,1-1.4,0,.43.43,0,0,1,0-.81,1.55,1.55,0,0,1,1.4,0"/><path class="cls-1" d="M157.93,138.35a.43.43,0,0,1,0,.81,1.56,1.56,0,0,1-1.4,0,.43.43,0,0,1,0-.81,1.56,1.56,0,0,1,1.4,0"/><path class="cls-1" d="M161.61,136.25a.43.43,0,0,1,0,.81,1.56,1.56,0,0,1-1.4,0,.43.43,0,0,1,0-.81,1.56,1.56,0,0,1,1.4,0"/><path class="cls-1" d="M165.29,134.16a.43.43,0,0,1,0,.81,1.55,1.55,0,0,1-1.4,0,.43.43,0,0,1,0-.81,1.55,1.55,0,0,1,1.4,0"/><path class="cls-1" d="M169,132.87a1.54,1.54,0,0,1-1.4,0,.43.43,0,0,1,0-.81c.39-.22,1.79.6,1.4.82"/><path class="cls-1" d="M150.56,138.28a.43.43,0,0,1,0,.81,1.56,1.56,0,0,1-1.4,0,.43.43,0,0,1,0-.81,1.56,1.56,0,0,1,1.4,0"/><path class="cls-1" d="M154.24,136.18a.43.43,0,0,1,0,.81,1.55,1.55,0,0,1-1.4,0,.43.43,0,0,1,0-.81,1.55,1.55,0,0,1,1.4,0"/><path class="cls-1" d="M157.92,134.09a.43.43,0,0,1,0,.81,1.55,1.55,0,0,1-1.4,0,.43.43,0,0,1,0-.81,1.55,1.55,0,0,1,1.4,0"/><path class="cls-1" d="M161.6,132a.43.43,0,0,1,0,.81,1.56,1.56,0,0,1-1.4,0,.43.43,0,0,1,0-.81,1.56,1.56,0,0,1,1.4,0"/><path class="cls-1" d="M165.28,130.71a1.55,1.55,0,0,1-1.4,0,.43.43,0,0,1,0-.81c.39-.22,1.79.6,1.4.82"/><path class="cls-1" d="M146.9,136.14a.43.43,0,0,1,0,.81,1.55,1.55,0,0,1-1.4,0,.43.43,0,0,1,0-.81,1.55,1.55,0,0,1,1.4,0"/><path class="cls-1" d="M150.59,134a.43.43,0,0,1,0,.81,1.55,1.55,0,0,1-1.4,0,.43.43,0,0,1,0-.81,1.56,1.56,0,0,1,1.4,0"/><path class="cls-1" d="M154.27,131.95a.43.43,0,0,1,0,.81,1.56,1.56,0,0,1-1.4,0,.43.43,0,0,1,0-.81,1.55,1.55,0,0,1,1.4,0"/><path class="cls-1" d="M157.95,129.85a.43.43,0,0,1,0,.81,1.55,1.55,0,0,1-1.4,0,.43.43,0,0,1,0-.81,1.55,1.55,0,0,1,1.4,0"/><path class="cls-1" d="M161.63,128.57a1.54,1.54,0,0,1-1.4,0,.43.43,0,0,1,0-.81c.39-.22,1.79.6,1.4.82"/><path class="cls-1" d="M143.25,134a.43.43,0,0,1,0,.81,1.56,1.56,0,0,1-1.4,0,.43.43,0,0,1,0-.81,1.55,1.55,0,0,1,1.4,0"/><path class="cls-1" d="M146.93,131.9a.43.43,0,0,1,0,.81,1.55,1.55,0,0,1-1.4,0,.43.43,0,0,1,0-.81,1.55,1.55,0,0,1,1.4,0"/><path class="cls-1" d="M150.61,129.81a.43.43,0,0,1,0,.81,1.55,1.55,0,0,1-1.4,0,.43.43,0,0,1,0-.81,1.55,1.55,0,0,1,1.4,0"/><path class="cls-1" d="M154.29,127.71a.43.43,0,0,1,0,.81,1.56,1.56,0,0,1-1.4,0,.43.43,0,0,1,0-.81,1.56,1.56,0,0,1,1.4,0"/><path class="cls-1" d="M158,126.43a1.55,1.55,0,0,1-1.4,0,.43.43,0,0,1,0-.81c.39-.22,1.79.6,1.4.82"/><path class="cls-1" d="M139.59,131.86a.43.43,0,0,1,0,.81,1.55,1.55,0,0,1-1.4,0,.43.43,0,0,1,0-.81,1.55,1.55,0,0,1,1.4,0"/><path class="cls-1" d="M143.27,129.76a.43.43,0,0,1,0,.81,1.55,1.55,0,0,1-1.4,0,.43.43,0,0,1,0-.81,1.56,1.56,0,0,1,1.4,0"/><path class="cls-1" d="M147,127.67a.43.43,0,0,1,0,.81,1.56,1.56,0,0,1-1.4,0,.43.43,0,0,1,0-.81,1.56,1.56,0,0,1,1.4,0"/><path class="cls-1" d="M150.64,125.57a.43.43,0,0,1,0,.81,1.55,1.55,0,0,1-1.4,0,.43.43,0,0,1,0-.81,1.55,1.55,0,0,1,1.4,0"/><path class="cls-1" d="M154.32,124.29a1.54,1.54,0,0,1-1.4,0,.43.43,0,0,1,0-.81c.39-.22,1.79.6,1.4.82"/><path class="cls-1" d="M135.94,129.72a.43.43,0,0,1,0,.81,1.56,1.56,0,0,1-1.4,0,.43.43,0,0,1,0-.81,1.56,1.56,0,0,1,1.4,0"/><path class="cls-1" d="M139.62,127.62a.43.43,0,0,1,0,.81,1.55,1.55,0,0,1-1.4,0,.43.43,0,0,1,0-.81,1.55,1.55,0,0,1,1.4,0"/><path class="cls-1" d="M143.3,125.53a.43.43,0,0,1,0,.81,1.55,1.55,0,0,1-1.4,0,.43.43,0,0,1,0-.81,1.55,1.55,0,0,1,1.4,0"/><path class="cls-1" d="M147,123.43a.43.43,0,0,1,0,.81,1.56,1.56,0,0,1-1.4,0,.43.43,0,0,1,0-.81,1.56,1.56,0,0,1,1.4,0"/><path class="cls-1" d="M150.66,122.15a1.55,1.55,0,0,1-1.4,0,.43.43,0,0,1,0-.81c.39-.22,1.79.6,1.4.82"/><path class="cls-1" d="M132.28,127.57a.43.43,0,0,1,0,.81,1.55,1.55,0,0,1-1.4,0,.43.43,0,0,1,0-.81,1.55,1.55,0,0,1,1.4,0"/><path class="cls-1" d="M136,125.48a.43.43,0,0,1,0,.81,1.56,1.56,0,0,1-1.4,0,.43.43,0,0,1,0-.81,1.56,1.56,0,0,1,1.4,0"/><path class="cls-1" d="M139.65,123.38a.43.43,0,0,1,0,.81,1.55,1.55,0,0,1-1.4,0,.43.43,0,0,1,0-.81,1.55,1.55,0,0,1,1.4,0"/><path class="cls-1" d="M143.33,121.29a.43.43,0,0,1,0,.81,1.55,1.55,0,0,1-1.4,0,.43.43,0,0,1,0-.81,1.55,1.55,0,0,1,1.4,0"/><path class="cls-1" d="M147,120a1.55,1.55,0,0,1-1.4,0,.43.43,0,0,1,0-.81c.39-.22,1.79.6,1.4.82"/><path class="cls-1" d="M128.63,125.43a.43.43,0,0,1,0,.81,1.56,1.56,0,0,1-1.4,0,.43.43,0,0,1,0-.81,1.55,1.55,0,0,1,1.4,0"/><path class="cls-1" d="M132.31,123.34a.43.43,0,0,1,0,.81,1.55,1.55,0,0,1-1.4,0,.43.43,0,0,1,0-.81,1.55,1.55,0,0,1,1.4,0"/><path class="cls-1" d="M136,121.24a.43.43,0,0,1,0,.81,1.55,1.55,0,0,1-1.4,0,.43.43,0,0,1,0-.81,1.56,1.56,0,0,1,1.4,0"/><path class="cls-1" d="M139.67,119.15a.43.43,0,0,1,0,.81,1.56,1.56,0,0,1-1.4,0,.43.43,0,0,1,0-.81,1.56,1.56,0,0,1,1.4,0"/><path class="cls-1" d="M125,123.29a.43.43,0,0,1,0,.81,1.55,1.55,0,0,1-1.4,0,.43.43,0,0,1,0-.81,1.56,1.56,0,0,1,1.4,0"/><path class="cls-1" d="M128.65,121.2a.43.43,0,0,1,0,.81,1.56,1.56,0,0,1-1.4,0,.43.43,0,0,1,0-.81,1.56,1.56,0,0,1,1.4,0"/><path class="cls-1" d="M132.34,119.1a.43.43,0,0,1,0,.81,1.56,1.56,0,0,1-1.4,0,.43.43,0,0,1,0-.81,1.55,1.55,0,0,1,1.4,0"/><path class="cls-1" d="M136,117a.43.43,0,0,1,0,.81,1.55,1.55,0,0,1-1.4,0,.43.43,0,0,1,0-.81,1.55,1.55,0,0,1,1.4,0"/><path class="cls-1" d="M121.28,121.13a.43.43,0,0,1,0,.81,1.55,1.55,0,0,1-1.4,0,.43.43,0,0,1,0-.81,1.55,1.55,0,0,1,1.4,0"/><path class="cls-1" d="M125,119a.43.43,0,0,1,0,.81,1.55,1.55,0,0,1-1.4,0,.43.43,0,0,1,0-.81,1.55,1.55,0,0,1,1.4,0"/><path class="cls-1" d="M128.65,116.94a.43.43,0,0,1,0,.81,1.56,1.56,0,0,1-1.4,0,.43.43,0,0,1,0-.81,1.56,1.56,0,0,1,1.4,0"/><path class="cls-1" d="M132.33,114.84a.43.43,0,0,1,0,.81,1.56,1.56,0,0,1-1.4,0,.43.43,0,0,1,0-.81,1.56,1.56,0,0,1,1.4,0"/><path class="cls-1" d="M117.63,119a.43.43,0,0,1,0,.81,1.55,1.55,0,0,1-1.4,0,.43.43,0,0,1,0-.81,1.55,1.55,0,0,1,1.4,0"/><path class="cls-1" d="M121.31,116.89a.43.43,0,0,1,0,.81,1.56,1.56,0,0,1-1.4,0,.43.43,0,0,1,0-.81,1.56,1.56,0,0,1,1.4,0"/><path class="cls-1" d="M125,114.8a.43.43,0,0,1,0,.81,1.55,1.55,0,0,1-1.4,0,.43.43,0,0,1,0-.81,1.55,1.55,0,0,1,1.4,0"/><path class="cls-1" d="M128.68,112.7a.43.43,0,0,1,0,.81,1.55,1.55,0,0,1-1.4,0,.43.43,0,0,1,0-.81,1.55,1.55,0,0,1,1.4,0"/><path class="cls-1" d="M114,116.85a.43.43,0,0,1,0,.81,1.55,1.55,0,0,1-1.4,0,.43.43,0,0,1,0-.81,1.55,1.55,0,0,1,1.4,0"/><path class="cls-1" d="M117.66,114.75a.43.43,0,0,1,0,.81,1.55,1.55,0,0,1-1.4,0,.43.43,0,0,1,0-.81,1.55,1.55,0,0,1,1.4,0"/><path class="cls-1" d="M121.34,112.66a.43.43,0,0,1,0,.81,1.55,1.55,0,0,1-1.4,0,.43.43,0,0,1,0-.81,1.56,1.56,0,0,1,1.4,0"/><path class="cls-1" d="M125,110.56a.43.43,0,0,1,0,.81,1.56,1.56,0,0,1-1.4,0,.43.43,0,0,1,0-.81,1.55,1.55,0,0,1,1.4,0h0"/><path class="cls-1" d="M110.32,114.7a.43.43,0,0,1,0,.81,1.55,1.55,0,0,1-1.4,0,.43.43,0,0,1,0-.81,1.56,1.56,0,0,1,1.4,0"/><path class="cls-1" d="M114,112.61a.43.43,0,0,1,0,.81,1.56,1.56,0,0,1-1.4,0,.43.43,0,0,1,0-.81,1.55,1.55,0,0,1,1.4,0"/><path class="cls-1" d="M117.68,110.51a.43.43,0,0,1,0,.81,1.55,1.55,0,0,1-1.4,0,.43.43,0,0,1,0-.81,1.55,1.55,0,0,1,1.4,0"/><path class="cls-1" d="M190.85,166a.43.43,0,0,1,0,.81,1.55,1.55,0,0,1-1.4,0,.43.43,0,0,1,0-.81,1.55,1.55,0,0,1,1.4,0"/><path class="cls-1" d="M187.19,163.88a.43.43,0,0,1,0,.81,1.55,1.55,0,0,1-1.4,0,.43.43,0,0,1,0-.81,1.56,1.56,0,0,1,1.4,0"/><path class="cls-1" d="M176.19,157.44a.43.43,0,0,1,0,.81,1.55,1.55,0,0,1-1.4,0,.43.43,0,0,1,0-.81,1.55,1.55,0,0,1,1.4,0"/><path class="cls-1" d="M172.54,155.3a.43.43,0,0,1,0,.81,1.56,1.56,0,0,1-1.4,0,.43.43,0,0,1,0-.81,1.56,1.56,0,0,1,1.4,0"/><path class="cls-1" d="M168.88,153.16a.43.43,0,0,1,0,.81,1.55,1.55,0,0,1-1.4,0,.43.43,0,0,1,0-.81,1.55,1.55,0,0,1,1.4,0"/><path class="cls-1" d="M183.53,161.74a.43.43,0,0,1,0,.81,1.55,1.55,0,0,1-1.4,0,.43.43,0,0,1,0-.81,1.55,1.55,0,0,1,1.4,0"/><path class="cls-1" d="M179.85,159.58a.43.43,0,0,1,0,.81,1.55,1.55,0,0,1-1.4,0,.43.43,0,0,1,0-.81,1.56,1.56,0,0,1,1.4,0"/><path class="cls-1" d="M198.18,166.06a.43.43,0,0,1,0,.81,1.55,1.55,0,0,1-1.4,0,.43.43,0,0,1,0-.81,1.55,1.55,0,0,1,1.4,0"/><path class="cls-1" d="M201.86,164a.43.43,0,0,1,0,.81,1.55,1.55,0,0,1-1.4,0,.43.43,0,0,1,0-.81,1.55,1.55,0,0,1,1.4,0"/><path class="cls-1" d="M205.54,161.87a.43.43,0,0,1,0,.81,1.55,1.55,0,0,1-1.4,0,.43.43,0,0,1,0-.81,1.56,1.56,0,0,1,1.4,0"/><path class="cls-1" d="M194.53,163.92a.43.43,0,0,1,0,.81,1.55,1.55,0,0,1-1.4,0,.43.43,0,0,1,0-.81,1.56,1.56,0,0,1,1.4,0"/><path class="cls-1" d="M198.21,161.82a.43.43,0,0,1,0,.81,1.56,1.56,0,0,1-1.4,0,.43.43,0,0,1,0-.81,1.55,1.55,0,0,1,1.4,0"/><path class="cls-1" d="M201.89,159.73a.43.43,0,0,1,0,.81,1.55,1.55,0,0,1-1.4,0,.43.43,0,0,1,0-.81,1.55,1.55,0,0,1,1.4,0"/><path class="cls-1" d="M190.87,161.78a.43.43,0,0,1,0,.81,1.55,1.55,0,0,1-1.4,0,.43.43,0,0,1,0-.81,1.55,1.55,0,0,1,1.4,0"/><path class="cls-1" d="M194.55,159.68a.43.43,0,0,1,0,.81,1.55,1.55,0,0,1-1.4,0,.43.43,0,0,1,0-.81,1.55,1.55,0,0,1,1.4,0"/><path class="cls-1" d="M187.21,159.64a.43.43,0,0,1,0,.81,1.56,1.56,0,0,1-1.4,0,.43.43,0,0,1,0-.81,1.56,1.56,0,0,1,1.4,0"/><path class="cls-1" d="M190.9,157.54a.43.43,0,0,1,0,.81,1.56,1.56,0,0,1-1.4,0,.43.43,0,0,1,0-.81,1.56,1.56,0,0,1,1.4,0"/><path class="cls-1" d="M183.53,157.47a.43.43,0,0,1,0,.81,1.55,1.55,0,0,1-1.4,0,.43.43,0,0,1,0-.81,1.55,1.55,0,0,1,1.4,0"/><path class="cls-1" d="M187.21,155.38a.43.43,0,0,1,0,.81,1.55,1.55,0,0,1-1.4,0,.43.43,0,0,1,0-.81,1.56,1.56,0,0,1,1.4,0"/><path class="cls-1" d="M190.89,153.28a.43.43,0,0,1,0,.81,1.56,1.56,0,0,1-1.4,0,.43.43,0,0,1,0-.81,1.56,1.56,0,0,1,1.4,0"/><path class="cls-1" d="M179.87,155.33a.43.43,0,0,1,0,.81,1.56,1.56,0,0,1-1.4,0,.43.43,0,0,1,0-.81,1.56,1.56,0,0,1,1.4,0"/><path class="cls-1" d="M183.55,153.24a.43.43,0,0,1,0,.81,1.56,1.56,0,0,1-1.4,0,.43.43,0,0,1,0-.81,1.55,1.55,0,0,1,1.4,0"/><path class="cls-1" d="M187.24,151.14a.43.43,0,0,1,0,.81,1.55,1.55,0,0,1-1.4,0,.43.43,0,0,1,0-.81,1.55,1.55,0,0,1,1.4,0"/><path class="cls-1" d="M176.22,153.19a.43.43,0,0,1,0,.81,1.55,1.55,0,0,1-1.4,0,.43.43,0,0,1,0-.81,1.55,1.55,0,0,1,1.4,0"/><path class="cls-1" d="M179.9,151.1a.43.43,0,0,1,0,.81,1.55,1.55,0,0,1-1.4,0,.43.43,0,0,1,0-.81,1.55,1.55,0,0,1,1.4,0"/><path class="cls-1" d="M183.58,149a.43.43,0,0,1,0,.81,1.56,1.56,0,0,1-1.4,0,.43.43,0,0,1,0-.81,1.56,1.56,0,0,1,1.4,0"/><path class="cls-1" d="M172.56,151a.43.43,0,0,1,0,.81,1.56,1.56,0,0,1-1.4,0,.43.43,0,0,1,0-.81,1.56,1.56,0,0,1,1.4,0"/><path class="cls-1" d="M176.24,149a.43.43,0,0,1,0,.81,1.55,1.55,0,0,1-1.4,0,.43.43,0,0,1,0-.81,1.55,1.55,0,0,1,1.4,0"/><path class="cls-1" d="M179.93,146.86a.43.43,0,0,1,0,.81,1.55,1.55,0,0,1-1.4,0,.43.43,0,0,1,0-.81,1.55,1.55,0,0,1,1.4,0"/><path class="cls-1" d="M183.6,145.57a1.55,1.55,0,0,1-1.4,0,.43.43,0,0,1,0-.81,1.56,1.56,0,0,1,1.4,0,.43.43,0,0,1,0,.81"/><path class="cls-2" d="M200.45,59.85,98.8,1A2.83,2.83,0,0,0,95.54,1l-5,3,3.67,5.29-.5,79.1c0,3.31,2,7.18,4.5,8.63l94.92,54.93,4.86,7,4.74-2.8c1-.51,1.7-1.81,1.71-3.69L205,68.48c0-3.32-2-7.18-4.5-8.63"/><path class="cls-3" d="M176.34,55.5l-84.49-48L90.51,4.42,94.3,2.18a2.82,2.82,0,0,1,3.26.07L199.21,61.07a9.3,9.3,0,0,1,3.46,4.15l.12.52-6.07,3.59Z"/><polygon class="cls-4" points="203.44 68.8 197.93 72.03 198.4 74.09 203.43 71.04 203.44 68.8"/><path class="cls-1" d="M95.24.58a3.31,3.31,0,0,1,3.8,0L200.69,59.43c2.64,1.53,4.77,5.59,4.74,9.05l-.53,83.91c0,2-.73,3.5-1.95,4.1l-5.13,3-5.06-7.29L98,97.36c-2.64-1.53-4.77-5.59-4.74-9.05l.5-78.94L89.82,3.77Zm-.57,8.49-.5,79.25c0,3.16,1.89,6.84,4.26,8.21l94.92,54.93,4.76,6.78,1-.6.2-1.5,3.74-2.28a1.74,1.74,0,0,0,.86-1.45h0l.53-83.91c0-3.16-1.89-6.84-4.26-8.21L98.55,1.45a2.39,2.39,0,0,0-2.77-.07l-4.57,2.7Z"/><path class="cls-1" d="M122.74,130.85l20.76-11.61a8.5,8.5,0,0,1,7.66.34l12.54,7.26,6,2.71,0,2.73h0a2.72,2.72,0,0,1-1.46,1.79l-25.58,14.32a6.91,6.91,0,0,1-3.37.76,8.88,8.88,0,0,1-4.29-1.1l-16.51-9.55a3.47,3.47,0,0,1-2-2.65,2,2,0,0,1,0-.22v-2.22Z"/><path class="cls-2" d="M167.92,131.55l-25.58,14.32a8.07,8.07,0,0,1-7.18-.34L118.66,136c-2.12-1.23-2.34-3.06-.49-4.1l25.58-14.32a8.07,8.07,0,0,1,7.18.34l16.51,9.55c2.12,1.23,2.34,3.06.49,4.1"/><path class="cls-3" d="M120.95,134,127.9,130a7.32,7.32,0,0,1,7.35,0l17.29,10L142,145.87a8.07,8.07,0,0,1-7.18-.34l-13.4-7.41c-2.12-1.23-2.34-3.06-.49-4.1"/><path class="cls-1" d="M139.21,147a6.91,6.91,0,0,0,3.37-.76L168.16,132a2.58,2.58,0,0,0,1.5-2.19,3.4,3.4,0,0,0-2-2.75l-16.51-9.55a8.5,8.5,0,0,0-7.66-.34l-25.58,14.32a2.58,2.58,0,0,0-1.5,2.19,3.39,3.39,0,0,0,2,2.75l16.51,9.55a8.88,8.88,0,0,0,4.29,1.1m28.48-15.92-25.58,14.32a7.54,7.54,0,0,1-6.7-.33l-16.51-9.55c-1-.55-1.51-1.25-1.5-1.91a1.69,1.69,0,0,1,1-1.35L144,118a7.55,7.55,0,0,1,6.7.34l16.51,9.55c1,.56,1.51,1.25,1.5,1.91a1.69,1.69,0,0,1-1,1.35Z"/><path class="cls-1" d="M90.52,3.35A3.42,3.42,0,0,1,94,3.6L195.65,62.42c2.64,1.53,4.77,5.59,4.74,9.05l-.53,83.91c0,1.88-.78,2.71-1.41,3.07a2.85,2.85,0,0,1-1.45.35,6,6,0,0,1-2.89-.91L92.91,100.35c-2.64-1.53-4.77-5.59-4.74-9.05l.53-83.91c0-1.91.68-3.38,1.83-4"/><path class="cls-2" d="M88.71,81.54l-.06,10.17a10.67,10.67,0,0,0,4.85,8.41l101,58.43c2.7,1.56,4.9.32,4.92-2.76l.06-10.17Z"/><path class="cls-1" d="M196.65,159.71a3,3,0,0,0,1.53-.39,3.85,3.85,0,0,0,1.68-3.53l.07-10.45-.24-.14L88.23,80.71l-.07,11a11.22,11.22,0,0,0,5.09,8.83l101,58.43a5,5,0,0,0,2.43.74M199,145.9l-.06,9.89a3,3,0,0,1-1.2,2.7,3,3,0,0,1-3-.35l-101-58.43a10.16,10.16,0,0,1-4.6-8l.06-9.34Z"/><path class="cls-2" d="M192.88,135.46,95.36,79a3.79,3.79,0,0,1-1.59-3l.4-64.09c0-1.17.73-1.7,1.62-1.19l97.52,56.43a3.79,3.79,0,0,1,1.59,3l-.4,64.09c0,1.17-.73,1.7-1.61,1.19"/><path class="cls-1" d="M193.51,136.14a1.31,1.31,0,0,0,.66-.17,1.87,1.87,0,0,0,.8-1.69l.4-64.09a4.27,4.27,0,0,0-1.83-3.46L96,10.29a1.5,1.5,0,0,0-1.54-.09,1.87,1.87,0,0,0-.8,1.69L93.28,76a4.26,4.26,0,0,0,1.83,3.46l97.52,56.43a1.79,1.79,0,0,0,.88.26M95.15,11a.86.86,0,0,1,.4.13l97.52,56.43a3.32,3.32,0,0,1,1.35,2.62l-.4,64.09a1,1,0,0,1-.32.86.62.62,0,0,1-.57-.09L95.6,78.61A3.32,3.32,0,0,1,94.25,76l.4-64.09A1,1,0,0,1,95,11a.35.35,0,0,1,.18,0"/><path class="cls-3" d="M165.81,100.4,120,73.57c-5.55-3.25-10-11.91-10-19.33s4.58-10.81,10.13-7.56L166,73.51c5.55,3.25,10,11.91,10,19.33h0c0,7.43-4.58,10.81-10.13,7.56"/><path class="cls-1" d="M167.47,97.78a8.64,8.64,0,0,1-4.28-1.31L117.38,69.63c-5.69-3.33-10.28-12.22-10.23-19.81,0-4.1,1.42-7.24,3.81-8.61,2-1.15,4.55-.94,7.14.58l45.81,26.83c5.69,3.33,10.28,12.22,10.24,19.81,0,4.11-1.42,7.24-3.81,8.61a5.66,5.66,0,0,1-2.87.73M113.82,41.58a4.56,4.56,0,0,0-2.32.59c-2,1.17-3.24,4-3.26,7.66,0,7.24,4.3,15.7,9.69,18.86l45.81,26.83c2.24,1.31,4.39,1.51,6,.57,2-1.17,3.24-4,3.26-7.66,0-7.24-4.3-15.7-9.69-18.86L117.55,42.74a7.58,7.58,0,0,0-3.73-1.16"/><path class="cls-3" d="M168.5,93.11l-.1,16.14c0,.64.65,1.36,1.06,1.17l2.12-1c.3-.14.76.25.92.77l2,6.73c.2.67.76,1.24,1.23,1.26l1.75.05c.45,0,.64-.48.45-1.12l-2.12-6.9c-.16-.51.09-.85.48-.66l2.84,1.38c.55.27.79-.38.38-1.06L169.45,93.18c-.36-.6-.94-.64-.95-.07"/><path class="cls-1" d="M175.28,114.37h0l-1.75-.05a2.16,2.16,0,0,1-1.74-1.65l-2-6.73a.77.77,0,0,0-.25-.38l-2,.95a1,1,0,0,1-1-.11,2,2,0,0,1-.86-1.56l.1-16.14a.89.89,0,0,1,.63-.92,1.24,1.24,0,0,1,1.33.71l10.06,16.69a1.42,1.42,0,0,1,0,1.67.91.91,0,0,1-1.11.16l-2.51-1.22,2.07,6.74a1.59,1.59,0,0,1-.15,1.44,1,1,0,0,1-.81.4m-5.77-9.93a1,1,0,0,1,.41.09,1.77,1.77,0,0,1,.9,1.09l2,6.73a1.25,1.25,0,0,0,.72.87l1.74.05s0-.16-.08-.41l-2.12-6.9a1.12,1.12,0,0,1,.25-1.22.89.89,0,0,1,1-.09l2.59,1.26a1.12,1.12,0,0,0-.08-.17l-10-16.58-.1,15.68a.89.89,0,0,0,.36.63l2.05-1a.85.85,0,0,1,.37-.08"/></g></g></svg>