<svg xmlns="http://www.w3.org/2000/svg" viewBox="0 0 46.8 46.81"><defs><style>.cls-1{fill:#00518f;fill-rule:evenodd;}</style></defs><title>correo</title><g id="Capa_2" data-name="Capa 2"><g id="Capa_1-2" data-name="Capa 1"><path class="cls-1" d="M23.39,0A23.41,23.41,0,1,1,0,23.53,23.43,23.43,0,0,1,23.39,0M2.26,23.4a21.15,21.15,0,1,0,21-21.14,21.18,21.18,0,0,0-21,21.14"/><path class="cls-1" d="M38.7,35.17H7.63V11.64H38.7ZM35,13.64H11.28l.24.27,2.34,2.27,3.55,3.47L21.88,24a8.24,8.24,0,0,0,.92.8.7.7,0,0,0,.53.08,1.62,1.62,0,0,0,.59-.35c.43-.39.83-.8,1.24-1.2l4.68-4.55,4.13-4c.35-.35.67-.71,1-1.07m-8,10.69c-.16.17-.31.33-.46.47a20.43,20.43,0,0,1-1.58,1.46,2.6,2.6,0,0,1-3.09.25,6.79,6.79,0,0,1-1.08-.85c-.44-.4-.85-.83-1.29-1.25l-8.51,8.78H35.4l-8.46-8.85M9.62,31.49l.05,0,.6-.63,4.09-4.23,3.46-3.56c.1-.1.12-.18,0-.28L14,19.06l-4.07-4-.27-.26ZM36.71,14.82l-8.28,8.07,8.28,8.66Z"/></g></g></svg>