<svg xmlns="http://www.w3.org/2000/svg" viewBox="0 0 207.7 248.82"><defs><style>.cls-1{fill:#00518f;}.cls-2{fill:#f7cf2b;}.cls-3{fill:#16110d;}.cls-4{fill:#ededed;}</style></defs><title>courier tls</title><g id="Capa_2" data-name="Capa 2"><g id="Capa_1-2" data-name="Capa 1"><path class="cls-1" d="M47.2,234.91a.85.85,0,0,1,0,1.61,3.08,3.08,0,0,1-2.79,0,.85.85,0,0,1,0-1.61,3.08,3.08,0,0,1,2.79,0"/><path class="cls-1" d="M54.5,230.7a.85.85,0,0,1,0,1.61,3.08,3.08,0,0,1-2.79,0,.85.85,0,0,1,0-1.61,3.08,3.08,0,0,1,2.79,0"/><path class="cls-1" d="M61.8,226.49a.85.85,0,0,1,0,1.61,3.08,3.08,0,0,1-2.79,0,.85.85,0,0,1,0-1.61,3.09,3.09,0,0,1,2.79,0"/><path class="cls-1" d="M69.09,222.28a.85.85,0,0,1,0,1.61,3.08,3.08,0,0,1-2.79,0,.85.85,0,0,1,0-1.61,3.08,3.08,0,0,1,2.79,0"/><path class="cls-1" d="M76.38,218.06a.85.85,0,0,1,0,1.61,3.08,3.08,0,0,1-2.79,0,.85.85,0,0,1,0-1.61,3.08,3.08,0,0,1,2.79,0"/><path class="cls-1" d="M83.68,213.85a.85.85,0,0,1,0,1.61,3.08,3.08,0,0,1-2.79,0,.85.85,0,0,1,0-1.61,3.09,3.09,0,0,1,2.79,0"/><path class="cls-1" d="M91,209.64a.85.85,0,0,1,0,1.61,3.08,3.08,0,0,1-2.79,0,.85.85,0,0,1,0-1.61,3.09,3.09,0,0,1,2.79,0"/><path class="cls-1" d="M98.27,205.43a.85.85,0,0,1,0,1.61,3.09,3.09,0,0,1-2.79,0,.85.85,0,0,1,0-1.61,3.09,3.09,0,0,1,2.79,0"/><path class="cls-1" d="M105.57,201.22a.85.85,0,0,1,0,1.61,3.08,3.08,0,0,1-2.79,0,.85.85,0,0,1,0-1.61,3.09,3.09,0,0,1,2.79,0"/><path class="cls-1" d="M132,184.37a3.09,3.09,0,0,1,2.79,0,.85.85,0,0,1,0,1.61,3.08,3.08,0,0,1-2.79,0,.85.85,0,0,1,0-1.61h0"/><path class="cls-1" d="M39.91,230.7a.85.85,0,0,1,0,1.61,3.08,3.08,0,0,1-2.79,0,.85.85,0,0,1,0-1.61,3.08,3.08,0,0,1,2.79,0"/><path class="cls-1" d="M47.2,226.49a.85.85,0,0,1,0,1.61,3.08,3.08,0,0,1-2.79,0,.85.85,0,0,1,0-1.61,3.08,3.08,0,0,1,2.79,0"/><path class="cls-1" d="M54.5,222.28a.85.85,0,0,1,0,1.61,3.08,3.08,0,0,1-2.79,0,.85.85,0,0,1,0-1.61,3.08,3.08,0,0,1,2.79,0h0"/><path class="cls-1" d="M32.61,226.49a.85.85,0,0,1,0,1.61,3.08,3.08,0,0,1-2.79,0,.85.85,0,0,1,0-1.61,3.08,3.08,0,0,1,2.79,0"/><path class="cls-1" d="M39.91,222.28a.85.85,0,0,1,0,1.61,3.08,3.08,0,0,1-2.79,0,.85.85,0,0,1,0-1.61,3.08,3.08,0,0,1,2.79,0"/><path class="cls-1" d="M47.2,218.06a.85.85,0,0,1,0,1.61,3.08,3.08,0,0,1-2.79,0,.85.85,0,0,1,0-1.61,3.08,3.08,0,0,1,2.79,0"/><path class="cls-1" d="M25.32,222.28a.85.85,0,0,1,0,1.61,3.08,3.08,0,0,1-2.79,0,.85.85,0,0,1,0-1.61,3.08,3.08,0,0,1,2.79,0"/><path class="cls-1" d="M32.61,218.06a.85.85,0,0,1,0,1.61,3.08,3.08,0,0,1-2.79,0,.85.85,0,0,1,0-1.61,3.09,3.09,0,0,1,2.79,0"/><path class="cls-1" d="M39.91,213.85a.85.85,0,0,1,0,1.61,3.08,3.08,0,0,1-2.79,0,.85.85,0,0,1,0-1.61,3.09,3.09,0,0,1,2.79,0h0"/><path class="cls-1" d="M18,218.06a.85.85,0,0,1,0,1.61,3.08,3.08,0,0,1-2.79,0,.85.85,0,0,1,0-1.61,3.09,3.09,0,0,1,2.79,0"/><path class="cls-1" d="M25.32,213.85a.85.85,0,0,1,0,1.61,3.08,3.08,0,0,1-2.79,0,.85.85,0,0,1,0-1.61,3.09,3.09,0,0,1,2.79,0"/><path class="cls-1" d="M32.61,209.64a.85.85,0,0,1,0,1.61,3.09,3.09,0,0,1-2.79,0,.85.85,0,0,1,0-1.61,3.09,3.09,0,0,1,2.79,0h0"/><path class="cls-1" d="M10.66,213.81a.85.85,0,0,1,0,1.61,3.08,3.08,0,0,1-2.79,0,.85.85,0,0,1,0-1.61,3.09,3.09,0,0,1,2.79,0"/><path class="cls-1" d="M18,209.6a.85.85,0,0,1,0,1.61,3.08,3.08,0,0,1-2.79,0,.85.85,0,0,1,0-1.61,3.09,3.09,0,0,1,2.79,0"/><path class="cls-1" d="M25.26,205.38a.85.85,0,0,1,0,1.61,3.09,3.09,0,0,1-2.79,0,.85.85,0,0,1,0-1.61,3.09,3.09,0,0,1,2.79,0h0"/><path class="cls-1" d="M3.37,209.6a.85.85,0,0,1,0,1.61,3.08,3.08,0,0,1-2.79,0,.85.85,0,0,1,0-1.61,3.09,3.09,0,0,1,2.79,0"/><path class="cls-1" d="M10.66,205.38a.85.85,0,0,1,0,1.61,3.09,3.09,0,0,1-2.79,0,.85.85,0,0,1,0-1.61,3.09,3.09,0,0,1,2.79,0"/><path class="cls-1" d="M18,201.17a.85.85,0,0,1,0,1.61,3.08,3.08,0,0,1-2.79,0,.85.85,0,0,1,0-1.61,3.08,3.08,0,0,1,2.79,0h0"/><path class="cls-1" d="M3.37,201.17a.85.85,0,0,1,0,1.61,3.08,3.08,0,0,1-2.79,0,.85.85,0,0,1,0-1.61,3.08,3.08,0,0,1,2.79,0"/><path class="cls-1" d="M10.66,197a.85.85,0,0,1,0,1.61,3.09,3.09,0,0,1-2.79,0,.85.85,0,0,1,0-1.61,3.09,3.09,0,0,1,2.79,0h0"/><path class="cls-1" d="M84,246.87a.85.85,0,0,1,0,1.61,3.08,3.08,0,0,1-2.79,0,.85.85,0,0,1,0-1.61,3.08,3.08,0,0,1,2.79,0"/><path class="cls-1" d="M91.26,242.66a.85.85,0,0,1,0,1.61,3.08,3.08,0,0,1-2.79,0,.85.85,0,0,1,0-1.61,3.09,3.09,0,0,1,2.79,0"/><path class="cls-1" d="M98.56,238.45a.85.85,0,0,1,0,1.61,3.08,3.08,0,0,1-2.79,0,.85.85,0,0,1,0-1.61,3.08,3.08,0,0,1,2.79,0"/><path class="cls-1" d="M105.85,234.24a.85.85,0,0,1,0,1.61,3.08,3.08,0,0,1-2.79,0,.85.85,0,0,1,0-1.61,3.08,3.08,0,0,1,2.79,0"/><path class="cls-1" d="M113.15,230a.85.85,0,0,1,0,1.61,3.08,3.08,0,0,1-2.79,0,.85.85,0,0,1,0-1.61,3.08,3.08,0,0,1,2.79,0"/><path class="cls-1" d="M120.44,225.81a.85.85,0,0,1,0,1.61,3.08,3.08,0,0,1-2.79,0,.85.85,0,0,1,0-1.61,3.09,3.09,0,0,1,2.79,0"/><path class="cls-1" d="M127.74,221.6a.85.85,0,0,1,0,1.61,3.08,3.08,0,0,1-2.79,0,.85.85,0,0,1,0-1.61,3.08,3.08,0,0,1,2.79,0"/><path class="cls-1" d="M135,217.39a.85.85,0,0,1,0,1.61,3.08,3.08,0,0,1-2.79,0,.85.85,0,0,1,0-1.61,3.08,3.08,0,0,1,2.79,0"/><path class="cls-1" d="M142.33,213.18a.85.85,0,0,1,0,1.61,3.08,3.08,0,0,1-2.79,0,.85.85,0,0,1,0-1.61,3.09,3.09,0,0,1,2.79,0"/><path class="cls-1" d="M149.62,209a.85.85,0,0,1,0,1.61,3.08,3.08,0,0,1-2.79,0,.85.85,0,0,1,0-1.61,3.08,3.08,0,0,1,2.79,0"/><path class="cls-1" d="M156.92,204.75a.85.85,0,0,1,0,1.61,3.09,3.09,0,0,1-2.79,0,.85.85,0,0,1,0-1.61,3.08,3.08,0,0,1,2.79,0"/><path class="cls-1" d="M164.21,200.54a.85.85,0,0,1,0,1.61,3.08,3.08,0,0,1-2.79,0,.85.85,0,0,1,0-1.61,3.08,3.08,0,0,1,2.79,0"/><path class="cls-1" d="M69.38,246.87a.85.85,0,0,1,0,1.61,3.08,3.08,0,0,1-2.79,0,.85.85,0,0,1,0-1.61,3.08,3.08,0,0,1,2.79,0"/><path class="cls-1" d="M76.67,242.66a.85.85,0,0,1,0,1.61,3.09,3.09,0,0,1-2.79,0,.85.85,0,0,1,0-1.61,3.09,3.09,0,0,1,2.79,0"/><path class="cls-1" d="M84,238.45a.85.85,0,0,1,0,1.61,3.08,3.08,0,0,1-2.79,0,.85.85,0,0,1,0-1.61,3.08,3.08,0,0,1,2.79,0"/><path class="cls-1" d="M91.26,234.24a.85.85,0,0,1,0,1.61,3.08,3.08,0,0,1-2.79,0,.85.85,0,0,1,0-1.61,3.09,3.09,0,0,1,2.79,0"/><path class="cls-1" d="M98.56,230a.85.85,0,0,1,0,1.61,3.08,3.08,0,0,1-2.79,0,.85.85,0,0,1,0-1.61,3.08,3.08,0,0,1,2.79,0"/><path class="cls-1" d="M105.85,225.81a.85.85,0,0,1,0,1.61,3.08,3.08,0,0,1-2.79,0,.85.85,0,0,1,0-1.61,3.09,3.09,0,0,1,2.79,0"/><path class="cls-1" d="M113.15,221.6a.85.85,0,0,1,0,1.61,3.08,3.08,0,0,1-2.79,0,.85.85,0,0,1,0-1.61,3.08,3.08,0,0,1,2.79,0"/><path class="cls-1" d="M120.44,217.39a.85.85,0,0,1,0,1.61,3.08,3.08,0,0,1-2.79,0,.85.85,0,0,1,0-1.61,3.09,3.09,0,0,1,2.79,0"/><path class="cls-1" d="M127.74,213.18a.85.85,0,0,1,0,1.61,3.08,3.08,0,0,1-2.79,0,.85.85,0,0,1,0-1.61,3.09,3.09,0,0,1,2.79,0"/><path class="cls-1" d="M135,209a.85.85,0,0,1,0,1.61,3.09,3.09,0,0,1-2.79,0,.85.85,0,0,1,0-1.61,3.09,3.09,0,0,1,2.79,0"/><path class="cls-1" d="M142.33,204.75a.85.85,0,0,1,0,1.61,3.08,3.08,0,0,1-2.79,0,.85.85,0,0,1,0-1.61,3.08,3.08,0,0,1,2.79,0"/><path class="cls-1" d="M149.62,200.54a.85.85,0,0,1,0,1.61,3.08,3.08,0,0,1-2.79,0,.85.85,0,0,1,0-1.61,3.08,3.08,0,0,1,2.79,0"/><path class="cls-1" d="M156.92,196.33a.85.85,0,0,1,0,1.61,3.08,3.08,0,0,1-2.79,0,.85.85,0,0,1,0-1.61,3.08,3.08,0,0,1,2.79,0"/><path class="cls-1" d="M62.08,242.66a.85.85,0,0,1,0,1.61,3.08,3.08,0,0,1-2.79,0,.85.85,0,0,1,0-1.61,3.08,3.08,0,0,1,2.79,0"/><path class="cls-1" d="M69.38,238.45a.85.85,0,0,1,0,1.61,3.08,3.08,0,0,1-2.79,0,.85.85,0,0,1,0-1.61,3.08,3.08,0,0,1,2.79,0"/><path class="cls-1" d="M76.67,234.24a.85.85,0,0,1,0,1.61,3.08,3.08,0,0,1-2.79,0,.85.85,0,0,1,0-1.61,3.09,3.09,0,0,1,2.79,0"/><path class="cls-1" d="M84,230a.85.85,0,0,1,0,1.61,3.08,3.08,0,0,1-2.79,0,.85.85,0,0,1,0-1.61A3.08,3.08,0,0,1,84,230"/><path class="cls-1" d="M91.26,225.81a.85.85,0,0,1,0,1.61,3.08,3.08,0,0,1-2.79,0,.85.85,0,0,1,0-1.61,3.09,3.09,0,0,1,2.79,0"/><path class="cls-1" d="M98.56,221.6a.85.85,0,0,1,0,1.61,3.08,3.08,0,0,1-2.79,0,.85.85,0,0,1,0-1.61,3.08,3.08,0,0,1,2.79,0"/><path class="cls-1" d="M105.85,217.39a.85.85,0,0,1,0,1.61,3.08,3.08,0,0,1-2.79,0,.85.85,0,0,1,0-1.61,3.09,3.09,0,0,1,2.79,0"/><path class="cls-1" d="M113.15,213.18a.85.85,0,0,1,0,1.61,3.08,3.08,0,0,1-2.79,0,.85.85,0,0,1,0-1.61,3.09,3.09,0,0,1,2.79,0"/><path class="cls-1" d="M120.44,209a.85.85,0,0,1,0,1.61,3.09,3.09,0,0,1-2.79,0,.85.85,0,0,1,0-1.61,3.09,3.09,0,0,1,2.79,0"/><path class="cls-1" d="M127.74,204.75a.85.85,0,0,1,0,1.61,3.08,3.08,0,0,1-2.79,0,.85.85,0,0,1,0-1.61,3.08,3.08,0,0,1,2.79,0"/><path class="cls-1" d="M135,200.54a.85.85,0,0,1,0,1.61,3.09,3.09,0,0,1-2.79,0,.85.85,0,0,1,0-1.61,3.09,3.09,0,0,1,2.79,0"/><path class="cls-1" d="M142.33,196.33a.85.85,0,0,1,0,1.61,3.08,3.08,0,0,1-2.79,0,.85.85,0,0,1,0-1.61,3.08,3.08,0,0,1,2.79,0"/><path class="cls-1" d="M149.62,192.12a.85.85,0,0,1,0,1.61,3.08,3.08,0,0,1-2.79,0,.85.85,0,0,1,0-1.61,3.08,3.08,0,0,1,2.79,0"/><path class="cls-1" d="M54.78,238.45a.85.85,0,0,1,0,1.61,3.08,3.08,0,0,1-2.79,0,.85.85,0,0,1,0-1.61,3.08,3.08,0,0,1,2.79,0"/><path class="cls-1" d="M62.08,234.24a.85.85,0,0,1,0,1.61,3.08,3.08,0,0,1-2.79,0,.85.85,0,0,1,0-1.61,3.08,3.08,0,0,1,2.79,0"/><path class="cls-1" d="M69.38,230a.85.85,0,0,1,0,1.61,3.08,3.08,0,0,1-2.79,0,.85.85,0,0,1,0-1.61,3.09,3.09,0,0,1,2.79,0"/><path class="cls-1" d="M76.67,225.81a.85.85,0,0,1,0,1.61,3.08,3.08,0,0,1-2.79,0,.85.85,0,0,1,0-1.61,3.09,3.09,0,0,1,2.79,0"/><path class="cls-1" d="M84,221.6a.85.85,0,0,1,0,1.61,3.08,3.08,0,0,1-2.79,0,.85.85,0,0,1,0-1.61,3.08,3.08,0,0,1,2.79,0"/><path class="cls-1" d="M91.26,217.39a.85.85,0,0,1,0,1.61,3.08,3.08,0,0,1-2.79,0,.85.85,0,0,1,0-1.61,3.09,3.09,0,0,1,2.79,0"/><path class="cls-1" d="M98.56,213.18a.85.85,0,0,1,0,1.61,3.08,3.08,0,0,1-2.79,0,.85.85,0,0,1,0-1.61,3.09,3.09,0,0,1,2.79,0"/><path class="cls-1" d="M105.85,209a.85.85,0,0,1,0,1.61,3.08,3.08,0,0,1-2.79,0,.85.85,0,0,1,0-1.61,3.08,3.08,0,0,1,2.79,0"/><path class="cls-1" d="M113.15,204.75a.85.85,0,0,1,0,1.61,3.08,3.08,0,0,1-2.79,0,.85.85,0,0,1,0-1.61,3.09,3.09,0,0,1,2.79,0"/><path class="cls-1" d="M120.44,200.54a.85.85,0,0,1,0,1.61,3.09,3.09,0,0,1-2.79,0,.85.85,0,0,1,0-1.61,3.09,3.09,0,0,1,2.79,0"/><path class="cls-1" d="M127.74,196.33a.85.85,0,0,1,0,1.61,3.08,3.08,0,0,1-2.79,0,.85.85,0,0,1,0-1.61,3.08,3.08,0,0,1,2.79,0"/><path class="cls-1" d="M135,192.12a.85.85,0,0,1,0,1.61,3.09,3.09,0,0,1-2.79,0,.85.85,0,0,1,0-1.61,3.09,3.09,0,0,1,2.79,0"/><path class="cls-1" d="M142.33,187.91a.85.85,0,0,1,0,1.61,3.08,3.08,0,0,1-2.79,0,.85.85,0,0,1,0-1.61,3.09,3.09,0,0,1,2.79,0"/><path class="cls-1" d="M142.1,180.19a.85.85,0,0,1,0,1.61,3.08,3.08,0,0,1-2.79,0,.85.85,0,0,1,0-1.61,3.09,3.09,0,0,1,2.79,0"/><path class="cls-1" d="M149.4,176a.85.85,0,0,1,0,1.61,3.08,3.08,0,0,1-2.79,0,.85.85,0,0,1,0-1.61,3.09,3.09,0,0,1,2.79,0"/><path class="cls-1" d="M156.69,171.77a.85.85,0,0,1,0,1.61,3.09,3.09,0,0,1-2.79,0,.85.85,0,0,1,0-1.61,3.09,3.09,0,0,1,2.79,0"/><path class="cls-1" d="M164,169.17a3.09,3.09,0,0,1-2.79,0,.85.85,0,0,1,0-1.61,3.08,3.08,0,0,1,2.79,0,.85.85,0,0,1,0,1.61"/><path class="cls-1" d="M168.77,196.37a3.09,3.09,0,0,1,2.79,0,.85.85,0,0,1,0,1.61,3.08,3.08,0,0,1-2.79,0,.85.85,0,0,1,0-1.61"/><path class="cls-1" d="M178.87,192.15a.85.85,0,0,1,0,1.61,3.09,3.09,0,0,1-2.79,0,.85.85,0,0,1,0-1.61,3.09,3.09,0,0,1,2.79,0"/><path class="cls-1" d="M186.16,187.94a.85.85,0,0,1,0,1.61,3.08,3.08,0,0,1-2.79,0,.85.85,0,0,1,0-1.61,3.09,3.09,0,0,1,2.79,0"/><path class="cls-1" d="M161.47,192.16a3.09,3.09,0,0,1,2.79,0,.85.85,0,0,1,0,1.61,3.08,3.08,0,0,1-2.79,0,.85.85,0,0,1,0-1.61"/><path class="cls-1" d="M171.57,187.94a.85.85,0,0,1,0,1.61,3.08,3.08,0,0,1-2.79,0,.85.85,0,0,1,0-1.61,3.09,3.09,0,0,1,2.79,0"/><path class="cls-1" d="M178.87,183.73a.85.85,0,0,1,0,1.61,3.09,3.09,0,0,1-2.79,0,.85.85,0,0,1,0-1.61,3.09,3.09,0,0,1,2.79,0"/><path class="cls-1" d="M186.16,179.52a.85.85,0,0,1,0,1.61,3.08,3.08,0,0,1-2.79,0,.85.85,0,0,1,0-1.61,3.09,3.09,0,0,1,2.79,0"/><path class="cls-1" d="M154.18,187.95a3.09,3.09,0,0,1,2.79,0,.85.85,0,0,1,0,1.61,3.08,3.08,0,0,1-2.79,0,.85.85,0,0,1,0-1.61"/><path class="cls-1" d="M164.27,183.73a.85.85,0,0,1,0,1.61,3.08,3.08,0,0,1-2.79,0,.85.85,0,0,1,0-1.61,3.09,3.09,0,0,1,2.79,0"/><path class="cls-1" d="M171.57,179.52a.85.85,0,0,1,0,1.61,3.08,3.08,0,0,1-2.79,0,.85.85,0,0,1,0-1.61,3.09,3.09,0,0,1,2.79,0"/><path class="cls-1" d="M178.87,175.31a.85.85,0,0,1,0,1.61,3.09,3.09,0,0,1-2.79,0,.85.85,0,0,1,0-1.61,3.09,3.09,0,0,1,2.79,0"/><path class="cls-1" d="M146.88,183.74a3.09,3.09,0,0,1,2.79,0,.85.85,0,0,1,0,1.61,3.08,3.08,0,0,1-2.79,0,.85.85,0,0,1,0-1.61"/><path class="cls-1" d="M157,179.52a.85.85,0,0,1,0,1.61,3.08,3.08,0,0,1-2.79,0,.85.85,0,0,1,0-1.61,3.09,3.09,0,0,1,2.79,0"/><path class="cls-1" d="M164.27,175.31a.85.85,0,0,1,0,1.61,3.08,3.08,0,0,1-2.79,0,.85.85,0,0,1,0-1.61,3.08,3.08,0,0,1,2.79,0"/><path class="cls-1" d="M132.34,235.46a.85.85,0,0,1,0,1.61,3.08,3.08,0,0,1-2.79,0,.85.85,0,0,1,0-1.61,3.08,3.08,0,0,1,2.79,0"/><path class="cls-1" d="M139.64,231.25a.85.85,0,0,1,0,1.61,3.09,3.09,0,0,1-2.79,0,.85.85,0,0,1,0-1.61,3.09,3.09,0,0,1,2.79,0"/><path class="cls-1" d="M146.93,227a.85.85,0,0,1,0,1.61,3.08,3.08,0,0,1-2.79,0,.85.85,0,0,1,0-1.61,3.08,3.08,0,0,1,2.79,0"/><path class="cls-1" d="M154.23,222.83a.85.85,0,0,1,0,1.61,3.08,3.08,0,0,1-2.79,0,.85.85,0,0,1,0-1.61,3.08,3.08,0,0,1,2.79,0"/><path class="cls-1" d="M161.52,218.62a.85.85,0,0,1,0,1.61,3.08,3.08,0,0,1-2.79,0,.85.85,0,0,1,0-1.61,3.08,3.08,0,0,1,2.79,0"/><path class="cls-1" d="M125,231.25a.85.85,0,0,1,0,1.61,3.08,3.08,0,0,1-2.79,0,.85.85,0,0,1,0-1.61,3.08,3.08,0,0,1,2.79,0"/><path class="cls-1" d="M132.34,227a.85.85,0,0,1,0,1.61,3.08,3.08,0,0,1-2.79,0,.85.85,0,0,1,0-1.61,3.08,3.08,0,0,1,2.79,0"/><path class="cls-1" d="M139.64,222.83a.85.85,0,0,1,0,1.61,3.08,3.08,0,0,1-2.79,0,.85.85,0,0,1,0-1.61,3.09,3.09,0,0,1,2.79,0"/><path class="cls-1" d="M146.93,218.62a.85.85,0,0,1,0,1.61,3.08,3.08,0,0,1-2.79,0,.85.85,0,0,1,0-1.61,3.08,3.08,0,0,1,2.79,0"/><path class="cls-1" d="M154.23,214.4a.85.85,0,0,1,0,1.61,3.08,3.08,0,0,1-2.79,0,.85.85,0,0,1,0-1.61,3.09,3.09,0,0,1,2.79,0"/><path class="cls-1" d="M159.56,235a.85.85,0,0,1,0,1.61,3.08,3.08,0,0,1-2.79,0,.85.85,0,0,1,0-1.61,3.09,3.09,0,0,1,2.79,0"/><path class="cls-1" d="M166.86,230.78a.85.85,0,0,1,0,1.61,3.08,3.08,0,0,1-2.79,0,.85.85,0,0,1,0-1.61,3.09,3.09,0,0,1,2.79,0"/><path class="cls-1" d="M174.15,226.57a.85.85,0,0,1,0,1.61,3.08,3.08,0,0,1-2.79,0,.85.85,0,0,1,0-1.61,3.08,3.08,0,0,1,2.79,0"/><path class="cls-1" d="M181.45,222.36a.85.85,0,0,1,0,1.61,3.09,3.09,0,0,1-2.79,0,.85.85,0,0,1,0-1.61,3.09,3.09,0,0,1,2.79,0"/><path class="cls-1" d="M188.74,218.15a.85.85,0,0,1,0,1.61,3.08,3.08,0,0,1-2.79,0,.85.85,0,0,1,0-1.61,3.08,3.08,0,0,1,2.79,0"/><path class="cls-1" d="M152.27,230.78a.85.85,0,0,1,0,1.61,3.08,3.08,0,0,1-2.79,0,.85.85,0,0,1,0-1.61,3.09,3.09,0,0,1,2.79,0"/><path class="cls-1" d="M159.56,226.57a.85.85,0,0,1,0,1.61,3.08,3.08,0,0,1-2.79,0,.85.85,0,0,1,0-1.61,3.08,3.08,0,0,1,2.79,0"/><path class="cls-1" d="M166.86,222.36a.85.85,0,0,1,0,1.61,3.08,3.08,0,0,1-2.79,0,.85.85,0,0,1,0-1.61,3.08,3.08,0,0,1,2.79,0"/><path class="cls-1" d="M174.15,218.15a.85.85,0,0,1,0,1.61,3.08,3.08,0,0,1-2.79,0,.85.85,0,0,1,0-1.61,3.08,3.08,0,0,1,2.79,0"/><path class="cls-1" d="M181.45,213.94a.85.85,0,0,1,0,1.61,3.08,3.08,0,0,1-2.79,0,.85.85,0,0,1,0-1.61,3.08,3.08,0,0,1,2.79,0"/><path class="cls-1" d="M173.28,243.64a.85.85,0,0,1,0,1.61,3.09,3.09,0,0,1-2.79,0,.85.85,0,0,1,0-1.61,3.09,3.09,0,0,1,2.79,0"/><path class="cls-1" d="M180.57,239.43a.85.85,0,0,1,0,1.61,3.08,3.08,0,0,1-2.79,0,.85.85,0,0,1,0-1.61,3.08,3.08,0,0,1,2.79,0"/><path class="cls-1" d="M187.87,235.22a.85.85,0,0,1,0,1.61,3.09,3.09,0,0,1-2.79,0,.85.85,0,0,1,0-1.61,3.09,3.09,0,0,1,2.79,0"/><path class="cls-1" d="M195.16,231a.85.85,0,0,1,0,1.61,3.08,3.08,0,0,1-2.79,0,.85.85,0,0,1,0-1.61,3.08,3.08,0,0,1,2.79,0"/><path class="cls-1" d="M202.46,226.8a.85.85,0,0,1,0,1.61,3.08,3.08,0,0,1-2.79,0,.85.85,0,0,1,0-1.61,3.09,3.09,0,0,1,2.79,0"/><path class="cls-1" d="M166,239.43a.85.85,0,0,1,0,1.61,3.08,3.08,0,0,1-2.79,0,.85.85,0,0,1,0-1.61,3.08,3.08,0,0,1,2.79,0"/><path class="cls-1" d="M173.28,235.22a.85.85,0,0,1,0,1.61,3.09,3.09,0,0,1-2.79,0,.85.85,0,0,1,0-1.61,3.08,3.08,0,0,1,2.79,0"/><path class="cls-1" d="M180.57,231a.85.85,0,0,1,0,1.61,3.08,3.08,0,0,1-2.79,0,.85.85,0,0,1,0-1.61,3.08,3.08,0,0,1,2.79,0"/><path class="cls-1" d="M187.87,226.8a.85.85,0,0,1,0,1.61,3.08,3.08,0,0,1-2.79,0,.85.85,0,0,1,0-1.61,3.09,3.09,0,0,1,2.79,0"/><path class="cls-1" d="M195.16,222.58a.85.85,0,0,1,0,1.61,3.08,3.08,0,0,1-2.79,0,.85.85,0,0,1,0-1.61,3.08,3.08,0,0,1,2.79,0"/><path class="cls-1" d="M207.12,223.32a.85.85,0,0,1,0,1.61,3.08,3.08,0,0,1-2.79,0,.85.85,0,0,1,0-1.61,3.09,3.09,0,0,1,2.79,0"/><path class="cls-1" d="M199.83,219.11a.85.85,0,0,1,0,1.61,3.08,3.08,0,0,1-2.79,0,.85.85,0,0,1,0-1.61,3.09,3.09,0,0,1,2.79,0"/><polygon class="cls-2" points="166.76 172.47 142.36 158.69 169.6 145.01 168.11 163.37 166.76 172.47"/><path class="cls-3" d="M166.2,173.13l-25.63-14.48,30-15.06L169,163.44l-1.33,9a1,1,0,0,1-1.42.7m-22-14.4,21.94,12.4,1.17-7.89,1.36-16.8Z"/><path class="cls-2" d="M153.12,163.36v0c-2.09-.87-4.7-.3-7.29,2-4.91,4.33-7.85,13.05-6.55,19.47a7.89,7.89,0,0,0,3.22,5.37l0,0,8.43,4.54L161.63,168Z"/><path class="cls-1" d="M152.24,193.74a2.16,2.16,0,0,1-3,1.1l-7.81-4.21,0-.12a9.12,9.12,0,0,1-3-5.5c-1.35-6.68,1.71-15.77,6.82-20.28,2.43-2.14,5.08-3,7.39-2.38l.06-.14.81.4,8.2,4.44a1.24,1.24,0,0,1,.56,1.56Zm-8.81-3.94,7,3.8,10.09-25.24-7.78-4.19c-1.89-.79-4.17-.14-6.4,1.83-4.7,4.15-7.52,12.52-6.28,18.67a7.1,7.1,0,0,0,2.84,4.82Z"/><path class="cls-1" d="M165.55,173.13c-.69-3.41-2.4-5.74-4.82-6.56s-5.19,0-7.81,2.31c-5.11,4.51-8.17,13.6-6.82,20.28.68,3.42,2.4,5.74,4.82,6.56a5.94,5.94,0,0,0,1.89.31,9.17,9.17,0,0,0,5.92-2.61c5.11-4.5,8.17-13.6,6.82-20.28"/><polygon class="cls-2" points="98.07 213.65 73.67 199.86 100.9 186.19 99.41 204.54 98.07 213.65"/><path class="cls-1" d="M96.69,213.84l-24.82-14,30-15.06-1.61,19.86-1.19,8.07a1.61,1.61,0,0,1-2.38,1.16M75.46,199.9l21.95,12.4,1.17-7.89,1.36-16.8Z"/><path class="cls-2" d="M82.71,201.79v0c-2.09-.87-4.7-.3-7.28,2-4.91,4.33-7.85,13.05-6.55,19.47a7.9,7.9,0,0,0,3.22,5.37l0,0,8.43,4.54L91.23,206.4Z"/><path class="cls-1" d="M81.73,232.43a1.91,1.91,0,0,1-2.67,1L71,229.06a9.43,9.43,0,0,1-3-5.62c-1.35-6.68,1.71-15.77,6.82-20.28,2.41-2.12,5-3,7.35-2.4l.06-.14.84.42,7.61,4.12a2,2,0,0,1,.91,2.51ZM73,228.23l7,3.8,10.09-25.24-7.78-4.19c-1.9-.79-4.17-.14-6.4,1.83-4.7,4.15-7.52,12.52-6.28,18.67a7.11,7.11,0,0,0,2.84,4.82Z"/><path class="cls-1" d="M95.15,211.56c-.69-3.41-2.4-5.74-4.83-6.56s-5.19,0-7.81,2.31c-5.11,4.5-8.17,13.6-6.82,20.28.68,3.41,2.4,5.74,4.82,6.56a6,6,0,0,0,1.89.31,9.17,9.17,0,0,0,5.91-2.61c5.11-4.5,8.17-13.6,6.82-20.28"/><path class="cls-2" d="M125.25,131.23l54.6-50.41-53-30.69-1.49-.86c-2.81-1.57-3.93-2.1-6.2-.87L28.76,100.81A6.49,6.49,0,0,0,26,104.69l-6.58,36.08L3.33,157.5c-1.1,1.41,1.39,3.84,1.39,5.33l1.64,18,1.58,5.89-2,1.84.26,2.55,7.66-2.66.07-5.24c.59-4.1,1.93-11.88,8.09-15.73,11-6.87,11.55,10.1,11.87,13.45.1,1.05.9,1.44,1.87.88l12.72-7.13,1.47,1.67,27.62-2,43.69-39.44,4-2.26Z"/><path class="cls-4" d="M125.58,135l52.1-49-53-30.69-1.49-.86c-2.81-1.57-3.93-2.1-6.2-.87L33.1,102.32a6.49,6.49,0,0,0-2.75,3.88l-6.58,36.08-20.11,19C2.56,162.69,5,165.12,5,166.62l1.64,18,1.58,5.89-2,1.84.26,2.55,7.66-2.66.07-5.24c.59-4.1,1.93-11.88,8.09-15.73,11-6.87,11.55,10.1,11.87,13.45.1,1.05.91,1.44,1.87.88l12.72-7.13,1.47,1.67,27.62-2,43.69-39.44,4-2.25Z"/><path class="cls-1" d="M5.33,192.39l-.44-4.26,1.95-1.77L5.41,181,3.75,162.92a5,5,0,0,0-.68-1.72c-.69-1.31-1.56-3-.5-4.31l16-16.58L25,104.52A7.44,7.44,0,0,1,28.27,100l90.36-52.42c2.74-1.48,4.26-.76,7.17.86l1.51.86,54.18,31.36-55.26,51,0,1.5-4.48,2.53L78,175.24l-28.44,2.07-1.27-1.44-12,6.75a2.26,2.26,0,0,1-2.21.17A2.15,2.15,0,0,1,32.9,181l-.07-.83c-.24-3-.89-11.14-4.55-13-1.47-.74-3.41-.37-5.76,1.1-5.34,3.34-6.89,9.79-7.64,15l-.07,5.8Zm1.6-3.48.08.83,5.85-2,.06-4.56c.49-3.45,1.76-12.3,8.55-16.55,3-1.86,5.55-2.25,7.67-1.19,4.64,2.34,5.32,10.91,5.62,14.57l.06.8a.52.52,0,0,0,.08.27,1.48,1.48,0,0,0,.33-.14l13.42-7.53,1.67,1.9,26.8-2,43.45-39.22,3.67-2.1,0-1.23L178.21,81,124.83,50.11c-2.71-1.52-3.43-1.84-5.25-.85l-90.34,52.4A5.54,5.54,0,0,0,27,104.93l-6.62,36.31L4,158.17c-.21.28.35,1.34.75,2.12a5.82,5.82,0,0,1,.9,2.54L7.33,180.7,9,187Z"/><path class="cls-2" d="M1.58,194.91h0L59.7,228.43l18-54.37-14.19-8L19.6,140.54,3.5,157.26a8,8,0,0,0-1.78,4.67Z"/><path class="cls-4" d="M4.48,196.93h0L59.6,228.7l15.21-51.6L19.69,145.33,6.4,159.28A8,8,0,0,0,4.62,164Z"/><path class="cls-1" d="M59.07,229.19.6,195.48l.15-33.55a9,9,0,0,1,2-5.27l16.69-17.34L64,165.19l14.88,8.41ZM2.56,194.35,59.15,227l17.39-52.47L63,166.89,19.77,141.77,4.2,157.94a7,7,0,0,0-1.5,4Z"/><path class="cls-2" d="M77.83,119.69,50.95,104.17c-1.41-.82-1.23-2.24.4-3.18l9.71-5.61a6.12,6.12,0,0,1,5.51-.23l26.89,15.52c1.41.82,1.23,2.24-.4,3.18l-9.71,5.61a6.12,6.12,0,0,1-5.51.23"/><path class="cls-1" d="M80.23,121.22a5.88,5.88,0,0,1-2.89-.68L50.46,105A2.62,2.62,0,0,1,49,102.79a3.2,3.2,0,0,1,1.84-2.64l9.71-5.61A7.13,7.13,0,0,1,67,94.31l26.89,15.52a2.61,2.61,0,0,1,1.44,2.23,3.2,3.2,0,0,1-1.84,2.64l-9.71,5.61a7.39,7.39,0,0,1-3.6.9m-1.91-2.37a5.22,5.22,0,0,0,4.53-.23L92.56,113c.6-.34.86-.73.86-1s-.33-.46-.46-.53L66.07,96a5.13,5.13,0,0,0-4.53.23l-9.71,5.6c-.63.37-.86.74-.86,1s.33.46.46.54Z"/><path class="cls-4" d="M70.72,112.46l-6.3-3.64c-.33-.19-.29-.52.09-.74l2.28-1.31a1.43,1.43,0,0,1,1.29-.05l6.3,3.64c.33.19.29.52-.09.75L72,112.41a1.43,1.43,0,0,1-1.29.05"/><path class="cls-1" d="M70.37,111.28a2,2,0,0,1-1-.25l-6.3-3.64a1.21,1.21,0,0,1-.65-1.05,1.36,1.36,0,0,1,.74-1.15l2.28-1.31a2.27,2.27,0,0,1,2.13-.06l6.31,3.64a1.23,1.23,0,0,1,.65,1.05,1.35,1.35,0,0,1-.74,1.16L71.52,111a2.29,2.29,0,0,1-1.15.3m-.15-1.71a.65.65,0,0,0,.45,0l1.7-1-5.63-3.25a.68.68,0,0,0-.45.05l-1.7,1Z"/><path class="cls-2" d="M54.11,199.12l-4.33-2.5a1,1,0,0,0-1-.05,1.23,1.23,0,0,0-.52,1.11v8.26a2.76,2.76,0,0,0,1.18,2.22l4.33,2.5a1.15,1.15,0,0,0,.58.17.85.85,0,0,0,.43-.12,1.23,1.23,0,0,0,.52-1.11v-8.26a2.76,2.76,0,0,0-1.18-2.22"/><path class="cls-1" d="M54.33,211.68a2,2,0,0,1-1-.28L49,208.9a3.56,3.56,0,0,1-1.6-3v-8.26a2,2,0,0,1,.95-1.85,1.82,1.82,0,0,1,1.85.05l4.33,2.51a3.56,3.56,0,0,1,1.6,3v8.26a2,2,0,0,1-.95,1.85,1.71,1.71,0,0,1-.86.23m-5-14.33c-.15,0-.2.12-.2.34v8.26a1.92,1.92,0,0,0,.76,1.49l4.33,2.5c.18,0,.26-.09.26-.33v-8.26a1.92,1.92,0,0,0-.76-1.49l-4.33-2.5h-.06"/><path class="cls-2" d="M54.53,215.28l-5.18-3a.71.71,0,0,0-.73,0,.85.85,0,0,0-.37.77v1a1.72,1.72,0,0,0,.75,1.41l5.18,3a.81.81,0,0,0,.41.11.63.63,0,0,0,.32-.09.85.85,0,0,0,.38-.77v-1a1.72,1.72,0,0,0-.75-1.41"/><path class="cls-1" d="M54.59,219.42a1.66,1.66,0,0,1-.83-.23l-5.18-3a2.55,2.55,0,0,1-1.18-2.14v-1a1.69,1.69,0,0,1,.8-1.5,1.56,1.56,0,0,1,1.57,0l5.19,3a2.55,2.55,0,0,1,1.18,2.14v1a1.69,1.69,0,0,1-.8,1.5,1.48,1.48,0,0,1-.74.2M48.93,213l.17,1a.92.92,0,0,0,.33.68l5.18,3-.16-1a.92.92,0,0,0-.33-.67Z"/><path class="cls-2" d="M10.91,174.47,6.58,172a1,1,0,0,0-1-.05A1.23,1.23,0,0,0,5,173v8.26a2.76,2.76,0,0,0,1.18,2.22l4.33,2.5a1.16,1.16,0,0,0,.58.17.85.85,0,0,0,.43-.12,1.23,1.23,0,0,0,.52-1.11v-8.26a2.75,2.75,0,0,0-1.18-2.22"/><path class="cls-1" d="M11.13,187a2,2,0,0,1-1-.28l-4.33-2.5a3.58,3.58,0,0,1-1.6-3V173a2,2,0,0,1,.95-1.85,1.82,1.82,0,0,1,1.85.06l4.33,2.5a3.56,3.56,0,0,1,1.6,3V185A2,2,0,0,1,12,186.8a1.73,1.73,0,0,1-.85.23M6.08,172.7c-.13,0-.19.11-.19.34v8.26a1.92,1.92,0,0,0,.76,1.49l4.33,2.5c.18,0,.26-.08.26-.33v-8.26a1.91,1.91,0,0,0-.76-1.49l-4.33-2.5H6.08"/><path class="cls-2" d="M11.33,190.64l-5.18-3a.71.71,0,0,0-.73,0,.85.85,0,0,0-.37.77v1a1.72,1.72,0,0,0,.75,1.41l5.18,3a.82.82,0,0,0,.41.12.64.64,0,0,0,.32-.08.85.85,0,0,0,.38-.77v-1a1.72,1.72,0,0,0-.75-1.41"/><path class="cls-1" d="M11.39,194.77a1.7,1.7,0,0,1-.82-.22l-5.19-3a2.55,2.55,0,0,1-1.17-2.14v-1a1.69,1.69,0,0,1,.8-1.5,1.56,1.56,0,0,1,1.57,0l5.19,3A2.56,2.56,0,0,1,12.93,192v1a1.69,1.69,0,0,1-.8,1.5,1.51,1.51,0,0,1-.74.2m-5.66-6.39.17,1a.92.92,0,0,0,.33.67l5.18,3-.17-1a.91.91,0,0,0-.33-.67Z"/><path class="cls-2" d="M43.34,192.32l-25.81-14.9a1.28,1.28,0,0,0-1.31-.07,1.61,1.61,0,0,0-.68,1.46v14.81a3.66,3.66,0,0,0,1.57,3l25.8,14.9a1.51,1.51,0,0,0,.75.22,1.11,1.11,0,0,0,.56-.15,1.61,1.61,0,0,0,.68-1.46V195.28a3.66,3.66,0,0,0-1.57-3"/><path class="cls-4" d="M34.3,199.41,28.42,196a.29.29,0,0,0-.3,0,.37.37,0,0,0-.16.33v3.38a.83.83,0,0,0,.36.67l5.89,3.4a.35.35,0,0,0,.17.05.25.25,0,0,0,.13,0,.37.37,0,0,0,.16-.33v-3.38a.84.84,0,0,0-.36-.68"/><path class="cls-1" d="M32.75,201.95a1.2,1.2,0,0,1-.6-.17l-5.88-3.4a1.69,1.69,0,0,1-.78-1.41V193.6a1.22,1.22,0,0,1,.57-1.06,1.16,1.16,0,0,1,1.16,0l5.89,3.4a1.69,1.69,0,0,1,.78,1.41v3.38a1.2,1.2,0,0,1-.58,1.07l-.2.11Zm-5.57-7.47V197l5,2.87v-2.47Z"/><path class="cls-1" d="M43.67,212.55a2.33,2.33,0,0,1-1.17-.34l-25.81-14.9a4.51,4.51,0,0,1-2-3.69V178.82a2.42,2.42,0,0,1,1.1-2.19,2.11,2.11,0,0,1,2.15.07l25.81,14.9a4.51,4.51,0,0,1,2,3.69v14.81a2.42,2.42,0,0,1-1.1,2.19,2,2,0,0,1-1,.26M16.79,178.05a.3.3,0,0,0-.14,0,.87.87,0,0,0-.25.73v14.81a2.82,2.82,0,0,0,1.14,2.22l25.81,14.9a.68.68,0,0,0,.33.11.74.74,0,0,0,.39-.77V195.28a2.83,2.83,0,0,0-1.14-2.22l-25.81-14.9a.72.72,0,0,0-.32-.1"/><path class="cls-1" d="M181,80.15a2.74,2.74,0,0,0-2.79.18L86.57,133.5A7.45,7.45,0,0,0,83.34,138l-6.53,35.79-16,16.58a9,9,0,0,0-2,5.27L58.73,229l1.17.67.5-.26L72.69,223a2.77,2.77,0,0,0,1.43-2.3l.5-3.8c.57-4,3.08-11.65,8.88-15.28,3-1.91,5.68-2.23,7.81-1,3.59,2.15,5.21,8.56,5,11.32v.49a2.26,2.26,0,0,0,3.38,2l43.39-24.89a2.15,2.15,0,0,0,1.08-1.73l.18-2.67c0-.22,0-.4,0-.59s0-.49,0-.81c-.09-5.82,1.77-16.82,9.26-21.1,3-1.68,5.34-2.11,7.11-1.25,3.15,1.52,3.94,6.79,4.33,9.32.07.46.13.84.18,1.1a2.14,2.14,0,0,0,1.2,1.59,2.41,2.41,0,0,0,2.21-.23l10.36-6a7,7,0,0,0,3.2-5.53v-79a2.76,2.76,0,0,0-1.24-2.5"/><path class="cls-2" d="M50,124.5,32.09,114.2a1.83,1.83,0,0,0-2.72,1.26L26,134a3.12,3.12,0,0,0,1.49,3.25l17.27,10a2,2,0,0,0,1,.28,2,2,0,0,0,.83-.18,2,2,0,0,0,1.15-1.45l3.62-18.4a2.83,2.83,0,0,0-1.36-3"/><path class="cls-1" d="M45.76,148.38a2.86,2.86,0,0,1-1.44-.4l-17.27-10a4,4,0,0,1-1.9-4.13l3.38-18.51a2.68,2.68,0,0,1,4-1.84l17.92,10.3a3.67,3.67,0,0,1,1.77,3.89l-3.62,18.41a2.88,2.88,0,0,1-2.81,2.31M31.17,114.8a1,1,0,0,0-1,.81l-3.38,18.51a2.28,2.28,0,0,0,1.09,2.37l17.27,10a1.17,1.17,0,0,0,1.74-.78l3.62-18.4a2,2,0,0,0-1-2.1l-17.91-10.3a1,1,0,0,0-.49-.13"/><path class="cls-2" d="M76.53,140l-17.91-10.3a1.83,1.83,0,0,0-2.72,1.26l-3.38,18.51A3.12,3.12,0,0,0,54,152.68l17.27,10a2,2,0,0,0,3-1.35L77.89,143a2.83,2.83,0,0,0-1.36-3"/><path class="cls-1" d="M72.29,163.85a2.87,2.87,0,0,1-1.44-.39l-17.27-10a4,4,0,0,1-1.9-4.13l3.38-18.51a2.68,2.68,0,0,1,4-1.84L77,139.23a3.67,3.67,0,0,1,1.77,3.89L75.1,161.53a2.88,2.88,0,0,1-2.81,2.31M57.7,130.27a1,1,0,0,0-.42.09,1,1,0,0,0-.56.72l-3.38,18.51A2.28,2.28,0,0,0,54.43,152L71.7,162a1.17,1.17,0,0,0,1.74-.78l3.62-18.41a2,2,0,0,0-1-2.1L58.19,130.4a1,1,0,0,0-.49-.14"/><path class="cls-2" d="M86.95,170.68a2.07,2.07,0,0,1-1.27-.42,3.16,3.16,0,0,1-.77-3.42l4.64-24.35a7.35,7.35,0,0,1,3.17-4.4l3.29-2a2.33,2.33,0,0,1,2.35-.16,2.3,2.3,0,0,1,1,2.09v21.38a8.57,8.57,0,0,1-3.94,6.81l-7,4.05a3.09,3.09,0,0,1-1.53.46m4.24-27.8-4.63,24.32c-.24.93-.09,1.53.15,1.7s.53.08.93-.15l7-4.05a6.93,6.93,0,0,0,3.09-5.35V138c0-.35-.1-.57-.19-.62s-.33,0-.64.15l-3.29,2a5.77,5.77,0,0,0-2.39,3.34"/><path class="cls-2" d="M106.31,201.19a2.85,2.85,0,0,1-2.84-2.84V135.56a4.39,4.39,0,0,1,2.21-3.8l14.57-8.28a2.33,2.33,0,0,1,3.48,2v63.4a4.6,4.6,0,0,1-2.29,4l-13.72,7.93a2.83,2.83,0,0,1-1.42.38m15.09-76.32a.6.6,0,0,0-.31.09l-14.57,8.27a2.7,2.7,0,0,0-1.36,2.33v62.79a1.12,1.12,0,0,0,.57,1,1.15,1.15,0,0,0,1.14,0l13.72-7.93a2.9,2.9,0,0,0,1.44-2.5v-63.4a.63.63,0,0,0-.32-.55.65.65,0,0,0-.32-.09"/><path class="cls-2" d="M108.44,172.28a1.44,1.44,0,0,1-.73-.19,1.86,1.86,0,0,1-.83-1.69v-2.33a3.65,3.65,0,0,1,1.61-3l6-3.47a1.58,1.58,0,0,1,1.62-.06,1.86,1.86,0,0,1,.83,1.69v2.33a3.66,3.66,0,0,1-1.61,3l-6,3.47a1.78,1.78,0,0,1-.9.25m6.82-9.16-5.92,3.41a2,2,0,0,0-.76,1.53v2.33a.69.69,0,0,0,0,.27l5.89-3.58a2,2,0,0,0,.76-1.53v-2.33a.54.54,0,0,0,0-.1"/><path class="cls-2" d="M83.7,228.46a3.78,3.78,0,0,1-1.2-.2c-1.52-.51-2.58-1.94-3-4a13.75,13.75,0,0,1,4-12c1.6-1.41,3.31-1.91,4.83-1.39s2.58,1.94,3,4a13.76,13.76,0,0,1-4,12,5.61,5.61,0,0,1-3.63,1.59m3.45-16.08a4,4,0,0,0-2.51,1.17,12.09,12.09,0,0,0-3.49,10.35A3.35,3.35,0,0,0,83,226.66c.93.32,2-.07,3.17-1.06a12.1,12.1,0,0,0,3.48-10.35,3.36,3.36,0,0,0-1.88-2.76,2.12,2.12,0,0,0-.66-.1"/><path class="cls-2" d="M154.26,190a3.76,3.76,0,0,1-1.2-.2c-1.52-.51-2.58-1.94-3-4a13.75,13.75,0,0,1,4-12c1.6-1.41,3.31-1.9,4.83-1.39s2.58,1.94,3,4a13.76,13.76,0,0,1-4,12,5.61,5.61,0,0,1-3.63,1.59m3.45-16.08a4,4,0,0,0-2.51,1.17,12.1,12.1,0,0,0-3.48,10.35,2.77,2.77,0,0,0,5.05,1.7,12.1,12.1,0,0,0,3.48-10.35,3.35,3.35,0,0,0-1.89-2.76,2.12,2.12,0,0,0-.66-.1"/><path class="cls-4" d="M101.92,3.18c-10.22,4.71-19.39,19-20.26,32.16-.35,5.28.69,9.54,2.76,12.45L98.36,74.52,106,77.84c.63-1.44,11.13-49.17,11.6-50.65,1.1-3.45,8.64-5.61,8.7-9,.21-12.28-14.43-19.64-24.4-15m-1.29,31.46c-4,2-7.11-.46-6.86-5.46s3.66-10.44,7.59-12.31,6.89.51,6.74,5.32-3.48,10.47-7.47,12.46"/><path class="cls-1" d="M105.86,78.18l-7.5-3.66-.05-.1L83.58,46.5c-2.17-3-3.15-7.43-2.8-12.64.86-13.1,10-27.66,20.46-32.46,5.18-2.39,12-1.68,17.28,1.79a15.84,15.84,0,0,1,7.62,13.59c0,2-2.17,3.41-4.43,5-1.87,1.28-3.8,2.6-4.28,4.11-.19.59-2.12,9.6-4.17,19.14-3.89,18.11-6.89,32-7.25,32.85Zm-7-4.2,6.58,3.21c.75-2.77,4.39-19.74,7.1-32.35,2.23-10.39,4-18.59,4.19-19.21.56-1.75,2.59-3.14,4.56-4.49s4.09-2.8,4.12-4.38a15.13,15.13,0,0,0-7.29-13C113,.45,106.5-.23,101.54,2.05c-10.21,4.7-19.2,19-20,31.85-.33,5,.6,9.27,2.7,12.22ZM97.43,34.25a4.11,4.11,0,0,1-2.28-.66c-1.58-1-2.4-3.18-2.27-5.88.26-5,3.75-10.69,7.79-12.62a5,5,0,0,1,5,0c1.53,1,2.36,3.06,2.28,5.66-.16,5-3.6,10.74-7.67,12.77a6.39,6.39,0,0,1-2.83.74m5.93-19.11a5.54,5.54,0,0,0-2.37.6c-3.83,1.83-7.14,7.22-7.39,12-.12,2.45.58,4.36,1.94,5.25a4.35,4.35,0,0,0,4.4-.12c3.86-1.93,7.12-7.38,7.27-12.15.07-2.34-.64-4.18-2-5a3.42,3.42,0,0,0-1.9-.54"/><path class="cls-1" d="M120.54,4.92c-3.31-2.16-7.65-2.18-12.23-.07C97.88,9.65,88.7,24.21,87.84,37.31c-.34,5.21.64,9.6,2.8,12.64l15.22,28.24,16.95-44.47a44.84,44.84,0,0,0,1.68-4.42,36.27,36.27,0,0,0,1.82-10.41c.11-6.42-2-11.51-5.77-14M96,33.68c.44-7.9,5.93-16.73,12.23-19.7a9.2,9.2,0,0,1,3.9-1,5.79,5.79,0,0,1,3.21.92c2.2,1.43,3.4,4.46,3.3,8.31-.2,7.85-5.55,16.86-11.91,20.08-2.84,1.44-5.49,1.52-7.46.23C97,41,95.8,37.81,96,33.68"/><path class="cls-1" d="M107.83,13.3c-6.53,3.07-12.27,12.19-12.74,20.49-.48,8.48,4.72,12.66,11.52,9.21S118.81,30.2,119,22.1c.2-7.93-4.76-11.82-11.19-8.8m-1,23.41c-4,2-7.11-.46-6.86-5.46s3.66-10.44,7.59-12.31,6.89.51,6.74,5.32-3.48,10.47-7.47,12.46"/><path class="cls-2" d="M102.07,44.57a6.6,6.6,0,0,1-3.67-1.06c-2.59-1.69-3.92-5.24-3.67-9.74C95.21,25.44,101,16.11,107.68,13l.15.32-.15-.32c3-1.41,5.83-1.41,8,0,2.46,1.61,3.82,4.94,3.71,9.13-.21,8.28-5.87,17.79-12.6,21.21a10.5,10.5,0,0,1-4.7,1.25M112,12.64a9.47,9.47,0,0,0-4,1c-6.45,3-12.08,12.09-12.53,20.19-.24,4.24,1,7.56,3.34,9.1,2,1.33,4.75,1.24,7.66-.23,6.53-3.31,12-12.54,12.21-20.59.1-3.94-1.13-7-3.39-8.51a5.94,5.94,0,0,0-3.3-.94M104.2,37.77a4.08,4.08,0,0,1-2.28-.66c-1.58-1-2.4-3.18-2.27-5.88.25-5,3.75-10.69,7.79-12.62a5,5,0,0,1,5,0c1.53,1,2.36,3.07,2.28,5.66-.16,5-3.6,10.74-7.66,12.77a6.38,6.38,0,0,1-2.83.74m5.93-19.11a5.56,5.56,0,0,0-2.37.6c-3.83,1.83-7.14,7.21-7.38,12-.12,2.45.58,4.36,1.94,5.25a4.34,4.34,0,0,0,4.4-.12c3.86-1.93,7.12-7.38,7.27-12.15.07-2.34-.64-4.18-2-5a3.42,3.42,0,0,0-1.9-.54"/><polygon class="cls-4" points="196.67 193.08 153.45 168.38 129.6 182.15 129.6 209.69 172.82 234.39 172.82 206.92 196.67 193.08"/><polygon class="cls-2" points="129.6 209.6 172.83 234.3 172.83 206.83 129.6 182.06 129.6 209.6"/><path class="cls-1" d="M197.15,192.8l-43.7-25-24.26,14-.07,0v.55h0V210l43.23,24.7.48.28.48-.28L196.91,221l.24-.14V193.35h0Zm-43.7-23.87L184,186.33l-22.89,13.22-30.59-17.4Zm18.9,64.63-42.27-24.14V183l42.27,24.14Zm12.16-47,11.21,6.47-13.19,7.61-9.71,5.6-11.21-6.47Z"/><path class="cls-1" d="M163.35,206.88l-4.42-2.55a1.36,1.36,0,0,0-1.4-.07,1.7,1.7,0,0,0-.72,1.55,3.82,3.82,0,0,0,1.64,3.09l4.42,2.56a1.61,1.61,0,0,0,.8.23,1.19,1.19,0,0,0,.6-.16A1.7,1.7,0,0,0,165,210a3.83,3.83,0,0,0-1.64-3.09m.44,3.81c-.13.07-.33,0-.44-.07l-4.42-2.56a2.87,2.87,0,0,1-1.16-2.26c0-.43.13-.65.24-.72s.33,0,.44.07l.31.18a3.53,3.53,0,0,0,1.5,2.56l3.78,2.18c0,.35-.13.55-.24.62"/><path class="cls-2" d="M193.23,212.57a.75.75,0,0,0-.77,0l-3.52,2a2.18,2.18,0,0,0-.93,1.76v3.78a1,1,0,0,0,.4.86.65.65,0,0,0,.33.09.87.87,0,0,0,.44-.13l3.52-2h0a2.18,2.18,0,0,0,.93-1.76v-3.78a1,1,0,0,0-.4-.86"/><polygon class="cls-2" points="121.94 234.01 105.92 224.76 105.92 206.26 121.94 215.51 121.94 234.01"/><polygon class="cls-2" points="137.96 206.26 121.94 215.51 105.92 206.26 121.94 197.01 137.96 206.26"/><polygon class="cls-4" points="137.96 208.11 123.56 216.33 107.53 207.08 121.94 198.86 137.96 208.11"/><path class="cls-1" d="M121.94,196.47l-16,9.25-.47.29v19l16,9.25.47.27.47-.27,16-9.25V206Zm0,1.09L137,206.26l-7.57,4.37L121.94,215l-2.36-1.37-12.71-7.34Zm-15.55,26.94V207.08l15.08,8.71V233.2Z"/><path class="cls-1" d="M118.08,228.47l-2.45-1.41a1.7,1.7,0,0,1-.71-1.35v-2.57c0-.52.32-.76.71-.54l2.45,1.41a1.7,1.7,0,0,1,.71,1.35v2.57c0,.52-.32.76-.71.54"/></g></g></svg>