<svg xmlns="http://www.w3.org/2000/svg" viewBox="0 0 50.73 50.72"><defs><style>.cls-1{fill:#00518f;}</style></defs><title>facebook</title><g id="Capa_2" data-name="Capa 2"><g id="Capa_1-2" data-name="Capa 1"><path class="cls-1" d="M25.36,50.45A25.09,25.09,0,1,1,50.45,25.36,25.12,25.12,0,0,1,25.36,50.45m0-47.15A22.05,22.05,0,1,0,47.42,25.36,22.08,22.08,0,0,0,25.36,3.31"/><path class="cls-1" d="M25.36,50.72A25.36,25.36,0,1,1,50.73,25.36,25.39,25.39,0,0,1,25.36,50.72m0-50.18A24.82,24.82,0,1,0,50.18,25.36,24.85,24.85,0,0,0,25.36.54m0,47.15A22.33,22.33,0,1,1,47.69,25.36,22.35,22.35,0,0,1,25.36,47.69m0-44.11A21.78,21.78,0,1,0,47.15,25.36,21.81,21.81,0,0,0,25.36,3.58"/><path class="cls-1" d="M21.77,39.61h5.74V25.24h4l.43-4.81H27.51V17.69c0-1.13.23-1.58,1.33-1.58h3.1v-5H28c-4.27,0-6.19,1.88-6.19,5.48v3.84h-3V25.3h3Z"/><path class="cls-1" d="M27.78,39.88H21.5V25.57h-3V20.15h3V16.59c0-3.82,2.18-5.75,6.46-5.75h4.25v5.54H28.84c-.86,0-1.05.23-1.05,1.31v2.47h4.45l-.48,5.36h-4ZM22,39.34h5.19V25h4l.38-4.27H27.24v-3c0-1.17.26-1.85,1.6-1.85h2.83V11.38H28c-4,0-5.92,1.65-5.92,5.21V20.7h-3V25h3Z"/></g></g></svg>