<svg xmlns="http://www.w3.org/2000/svg" viewBox="0 0 184.58 1001.11"><defs><style>.cls-1{fill:none;stroke:#03507f;stroke-miterlimit:10;}.cls-2{fill:#03507f;}</style></defs><title>flechas tls</title><g id="Capa_2" data-name="Capa 2"><g id="Capa_1-2" data-name="Capa 1"><line class="cls-1" x1="0.5" x2="0.5" y2="1001.11"/><line class="cls-1" x1="61.25" y1="39.88" x2="184.58" y2="39.88"/><line class="cls-1" x1="61.25" y1="325.95" x2="184.58" y2="325.95"/><line class="cls-1" x1="61.25" y1="637.71" x2="184.58" y2="637.71"/><line class="cls-1" x1="61.25" y1="959.75" x2="184.58" y2="959.75"/><path class="cls-2" d="M70,41a7.41,7.41,0,1,1-7.41-7.41A7.41,7.41,0,0,1,70,41"/><path class="cls-2" d="M70.61,326.4A7.41,7.41,0,1,1,63.2,319a7.41,7.41,0,0,1,7.41,7.41"/><path class="cls-2" d="M69.89,638.25a7.41,7.41,0,1,1-7.41-7.41,7.41,7.41,0,0,1,7.41,7.41"/><path class="cls-2" d="M69.7,960.07a7.41,7.41,0,1,1-7.41-7.41,7.41,7.41,0,0,1,7.41,7.41"/></g></g></svg>