<svg xmlns="http://www.w3.org/2000/svg" viewBox="0 0 50.73 50.72"><defs><style>.cls-1{fill:#00518f;}</style></defs><title>instagram</title><g id="Capa_2" data-name="Capa 2"><g id="Capa_1-2" data-name="Capa 1"><path class="cls-1" d="M25.36,50.45A25.09,25.09,0,1,1,50.45,25.36,25.12,25.12,0,0,1,25.36,50.45m0-47.15A22.06,22.06,0,1,0,47.42,25.36,22.08,22.08,0,0,0,25.36,3.3"/><path class="cls-1" d="M25.36,50.72A25.36,25.36,0,1,1,50.73,25.36,25.39,25.39,0,0,1,25.36,50.72m0-50.18A24.82,24.82,0,1,0,50.18,25.36,24.84,24.84,0,0,0,25.36.54m0,47.14A22.33,22.33,0,1,1,47.69,25.36,22.35,22.35,0,0,1,25.36,47.69m0-44.11A21.78,21.78,0,1,0,47.15,25.36,21.81,21.81,0,0,0,25.36,3.58"/><path class="cls-1" d="M25.36,14.77c3.45,0,3.86,0,5.22.07a7.09,7.09,0,0,1,2.4.45,4.27,4.27,0,0,1,2.46,2.45,7.19,7.19,0,0,1,.44,2.4c.06,1.36.08,1.77.08,5.22s0,3.86-.08,5.22a7.21,7.21,0,0,1-.44,2.4,4,4,0,0,1-1,1.49,4,4,0,0,1-1.49,1,7.18,7.18,0,0,1-2.4.45c-1.36.07-1.77.08-5.22.08s-3.86,0-5.23-.08a7.21,7.21,0,0,1-2.4-.45A4.32,4.32,0,0,1,15.28,33a7.21,7.21,0,0,1-.44-2.4c-.06-1.36-.08-1.77-.08-5.22s0-3.86.08-5.22a7.19,7.19,0,0,1,.44-2.4,4,4,0,0,1,1-1.49,3.92,3.92,0,0,1,1.48-1,7.12,7.12,0,0,1,2.4-.45c1.37-.06,1.77-.07,5.23-.07m0-2.33c-3.51,0-4,0-5.33.08a9.44,9.44,0,0,0-3.14.6A6.38,6.38,0,0,0,14.6,14.6a6.46,6.46,0,0,0-1.49,2.29,9.66,9.66,0,0,0-.6,3.14c-.06,1.38-.08,1.82-.08,5.33s0,4,.08,5.33a9.64,9.64,0,0,0,.6,3.14,6.6,6.6,0,0,0,3.78,3.78,9.54,9.54,0,0,0,3.14.6c1.38.06,1.82.08,5.33.08s3.95,0,5.33-.08a9.49,9.49,0,0,0,3.14-.6,6.57,6.57,0,0,0,3.78-3.78,9.45,9.45,0,0,0,.6-3.14c.06-1.38.08-1.82.08-5.33s0-4-.08-5.33a9.47,9.47,0,0,0-.6-3.14,6.55,6.55,0,0,0-3.78-3.78,9.39,9.39,0,0,0-3.14-.6c-1.38-.06-1.82-.08-5.33-.08"/><path class="cls-1" d="M25.36,38.56c-3.52,0-4,0-5.34-.08a9.76,9.76,0,0,1-3.22-.62,6.86,6.86,0,0,1-3.94-3.93,9.9,9.9,0,0,1-.61-3.22c-.07-1.36-.08-1.82-.08-5.34s0-4,.08-5.34a9.92,9.92,0,0,1,.61-3.22,6.88,6.88,0,0,1,3.94-3.93A9.91,9.91,0,0,1,20,12.24c1.38-.06,1.84-.08,5.34-.08s4,0,5.34.08a10,10,0,0,1,3.22.62,6.88,6.88,0,0,1,3.93,3.94A9.76,9.76,0,0,1,38.48,20c.07,1.42.08,1.89.08,5.34s0,3.92-.08,5.34a9.78,9.78,0,0,1-.62,3.22,6.67,6.67,0,0,1-1.55,2.38,6.55,6.55,0,0,1-2.38,1.55,9.8,9.8,0,0,1-3.22.62c-1.37.06-1.83.08-5.34.08m0-25.85c-3.48,0-3.94,0-5.32.08a9.24,9.24,0,0,0-3,.59A6.32,6.32,0,0,0,13.37,17,9.33,9.33,0,0,0,12.79,20c-.06,1.38-.08,1.79-.08,5.31s0,3.94.08,5.32a9.31,9.31,0,0,0,.58,3.05A6.32,6.32,0,0,0,17,37.35a9.22,9.22,0,0,0,3,.58c1.36.06,1.81.08,5.32.08s4,0,5.32-.08a9.29,9.29,0,0,0,3.05-.58,6.32,6.32,0,0,0,3.62-3.62,9.27,9.27,0,0,0,.58-3.05c.06-1.34.08-1.74.08-5.32s0-4-.08-5.32a9.26,9.26,0,0,0-.58-3,6.32,6.32,0,0,0-3.62-3.62,9.31,9.31,0,0,0-3.05-.59c-1.38-.06-1.84-.08-5.32-.08m0,23.52c-3.49,0-3.9,0-5.24-.07a7.56,7.56,0,0,1-2.49-.47,4.28,4.28,0,0,1-1.58-1,4.21,4.21,0,0,1-1-1.58,7.34,7.34,0,0,1-.46-2.49c-.06-1.34-.08-1.75-.08-5.23s0-3.89.08-5.23A7.38,7.38,0,0,1,15,17.64a4.25,4.25,0,0,1,1-1.58,4.2,4.2,0,0,1,1.58-1,7.33,7.33,0,0,1,2.49-.47c1.39-.06,1.8-.08,5.24-.08s3.85,0,5.23.08a7.26,7.26,0,0,1,2.48.47,4.19,4.19,0,0,1,1.58,1,4.32,4.32,0,0,1,1,1.58,7.43,7.43,0,0,1,.46,2.48c.06,1.36.07,1.77.07,5.23s0,3.87-.07,5.23a7.39,7.39,0,0,1-.46,2.49,4.53,4.53,0,0,1-2.61,2.61,7.49,7.49,0,0,1-2.48.47c-1.34.06-1.75.07-5.23.07m0-21.19c-3.42,0-3.84,0-5.21.07a6.89,6.89,0,0,0-2.31.43,3.75,3.75,0,0,0-1.39.9,3.82,3.82,0,0,0-.91,1.4,7,7,0,0,0-.43,2.31c-.06,1.34-.07,1.74-.07,5.21s0,3.87.07,5.21a7.05,7.05,0,0,0,.43,2.31,3.78,3.78,0,0,0,.91,1.39,3.83,3.83,0,0,0,1.39.91,7,7,0,0,0,2.31.43c1.33.06,1.73.07,5.21.07s3.88,0,5.21-.07a7,7,0,0,0,2.31-.43,3.74,3.74,0,0,0,1.39-.91,3.79,3.79,0,0,0,.91-1.39,6.91,6.91,0,0,0,.43-2.31c.06-1.35.08-1.76.08-5.21s0-3.86-.08-5.21a7,7,0,0,0-.43-2.31,3.78,3.78,0,0,0-.91-1.39,3.68,3.68,0,0,0-1.39-.9,6.82,6.82,0,0,0-2.31-.43C29.2,15,28.79,15,25.36,15"/><path class="cls-1" d="M25.36,18.72A6.64,6.64,0,1,0,32,25.36a6.64,6.64,0,0,0-6.64-6.64m0,10.94a4.31,4.31,0,1,1,4.31-4.31,4.31,4.31,0,0,1-4.31,4.31"/><path class="cls-1" d="M25.36,32.27a6.91,6.91,0,1,1,6.91-6.91,6.92,6.92,0,0,1-6.91,6.91m0-13.28a6.37,6.37,0,1,0,6.37,6.36A6.37,6.37,0,0,0,25.36,19m0,10.94a4.58,4.58,0,1,1,4.58-4.58,4.58,4.58,0,0,1-4.58,4.58m0-8.62a4,4,0,1,0,4,4,4,4,0,0,0-4-4"/><path class="cls-1" d="M33.81,18.46a1.55,1.55,0,1,1-1.55-1.55,1.55,1.55,0,0,1,1.55,1.55"/><path class="cls-1" d="M32.26,20.29a1.82,1.82,0,1,1,1.83-1.82,1.83,1.83,0,0,1-1.83,1.82m0-3.1a1.28,1.28,0,1,0,1.28,1.28,1.28,1.28,0,0,0-1.28-1.28"/></g></g></svg>