<svg xmlns="http://www.w3.org/2000/svg" viewBox="0 0 385.77 169.52"><defs><style>.cls-1{fill:#24528d;}.cls-2{fill:#d4d5d9;}</style></defs><title>logo final</title><g id="Capa_2" data-name="Capa 2"><g id="Capa_1-2" data-name="Capa 1"><path class="cls-1" d="M59.21,52.79c-2-1.15-3-2.31-1.41-5.56,2-4,3.48-8.41,5.14-12.67.5-1.28.86-2.63,1.79-5.51-13.53,3.27-26.62,6.39-39.56,9.53H48.6l-20,100.19H74.37L88,70.28Q79.36,64.91,70.7,59.56c-3.79-2.34-7.65-4.53-11.5-6.77"/><path class="cls-1" d="M78.8,17.43c10.48-1.59,21-2.58,31.51-3.29,9.63-.65,19.3-1.22,28.91-1l2-10H16l-5.8,28.66c6.91-2.22,13.85-4.22,20.81-5.87,15.83-3.76,31.81-6,47.75-8.47"/><path class="cls-1" d="M196.07,16.77,198.8,3.1H153.06L151,13.51C166,14.13,181.11,15,196,16.77h0"/><path class="cls-1" d="M139.56,70.57l-13.64,68.19h107l7.17-35.46H178.83l9.58-48.07a196.39,196.39,0,0,0-38.78,10.93q-5.09,2-10.07,4.42"/><path class="cls-1" d="M359.53,69.88c-4.3-1.22-8.6-2.45-12.91-3.63C317.69,58.33,288.39,53,258.51,51.33l-1-.05C257.85,93,322,84.73,322,99c0,4.84-6.2,7.95-18,7.95a90.63,90.63,0,0,1-45.74-12.6L240.65,128.1c13,7.95,34.49,13.76,58.72,13.76,42.25,0,68.61-20.34,68.61-50.58,0-9.47-3.33-16.31-8.46-21.4"/><path class="cls-1" d="M303.6,45.77a4.71,4.71,0,0,1-.35-1.78c0-4.65,6.59-9.11,20-9.11,13.18,0,26.36,3.29,37.21,10.08L376.9,11.63C364.3,4.07,346.28,0,326.12,0c-33.08,0-56,12-64.68,31.7Q266,33,270.58,34.47c11.08,3.47,22.12,7.15,33,11.31"/><path class="cls-2" d="M134.07,38.57l5.15-25.47c-9.6-.17-19.28.4-28.91,1-10.5.71-21,1.7-31.51,3.29-15.94,2.42-31.92,4.7-47.75,8.46-7,1.65-13.9,3.65-20.81,5.87l-1.37,6.8H25.17c12.95-3.14,26-6.26,39.56-9.53-.93,2.88-1.29,4.24-1.79,5.51-1.66,4.26-3.13,8.67-5.14,12.67-1.62,3.25-.55,4.42,1.41,5.56,3.84,2.24,7.7,4.43,11.5,6.77Q79.37,64.9,88,70.28l6.32-31.71Z"/><path class="cls-2" d="M196,16.77C181.11,15,166,14.13,151,13.51L139.56,70.57q5-2.36,10.07-4.42a196.57,196.57,0,0,1,38.77-10.93l7.66-38.45h0"/><path class="cls-2" d="M357.36,67.91c-8.09-6.71-19.56-10-29.86-12.53-11.72-2.88-21.92-4.77-23.9-9.62-10.9-4.16-21.95-7.83-33-11.3Q266,33,261.43,31.7A47.2,47.2,0,0,0,257.51,51c0,.1,0,.21,0,.31l1,.05c29.88,1.66,59.18,7,88.1,14.91,4.31,1.18,8.61,2.41,12.91,3.63q-1-1-2.17-2"/><polygon class="cls-1" points="4.29 158.19 0 158.19 0.17 157.41 9.63 157.41 9.47 158.19 5.18 158.19 2.95 169.34 2.08 169.34 4.29 158.19"/><path class="cls-1" d="M19.47,165.25l2.29,4.09h-.95l-2.23-4c-.27,0-.54,0-.83,0H14.16l-.78,3.92h-.87l2.39-11.93h4.18c2.62,0,4.14,1.19,4.14,3.29a4.33,4.33,0,0,1-3.75,4.55m2.88-4.48c0-1.67-1.19-2.57-3.33-2.57H15.61l-1.3,6.46h3.43c2.92,0,4.6-1.31,4.6-3.88"/><path class="cls-1" d="M36,166H29.08l-2.2,3.36h-1l7.87-11.93h.87l3.1,11.93h-.89Zm-.19-.73-1.75-6.92-4.52,6.92Z"/><polygon class="cls-1" points="55.15 157.41 52.76 169.34 52.03 169.34 46.01 158.85 43.91 169.34 43.04 169.34 45.43 157.41 46.15 157.41 52.18 167.91 54.28 157.41 55.15 157.41"/><path class="cls-1" d="M59.15,167.84l.46-.66a5.31,5.31,0,0,0,3.82,1.48c2.23,0,3.78-.94,3.78-2.65,0-2.93-6.31-1.48-6.31-5.16,0-2.25,2-3.53,4.62-3.53a6.19,6.19,0,0,1,3.59,1l-.41.71a5.32,5.32,0,0,0-3.22-1c-2.2,0-3.72,1-3.72,2.67,0,3,6.31,1.57,6.31,5.14,0,2.29-2,3.52-4.72,3.52a5.81,5.81,0,0,1-4.21-1.59"/><path class="cls-1" d="M84.25,160.7c0,3.07-2.11,4.74-5.49,4.74H75.2l-.78,3.9h-.87l2.38-11.93h4.16c2.62,0,4.16,1.19,4.16,3.29m-.88.07c0-1.67-1.19-2.57-3.33-2.57H76.65l-1.3,6.46h3.41c2.92,0,4.6-1.31,4.6-3.88"/><path class="cls-1" d="M88.8,164.52a7,7,0,0,1,7.14-7.19c3.51,0,5.47,2,5.47,4.91a7,7,0,0,1-7.16,7.19c-3.51,0-5.45-2-5.45-4.91m11.73-2.25c0-2.47-1.59-4.14-4.66-4.14a6.11,6.11,0,0,0-6.2,6.36c0,2.48,1.6,4.14,4.67,4.14a6.1,6.1,0,0,0,6.19-6.36"/><path class="cls-1" d="M113.22,165.25l2.3,4.09h-1l-2.24-4c-.27,0-.55,0-.83,0h-3.58l-.78,3.92h-.87l2.39-11.93h4.17c2.63,0,4.14,1.19,4.14,3.29a4.33,4.33,0,0,1-3.75,4.55m2.88-4.48c0-1.67-1.19-2.57-3.33-2.57h-3.41l-1.3,6.46h3.43c2.91,0,4.6-1.31,4.6-3.88"/><polygon class="cls-1" points="125.98 158.19 121.69 158.19 121.86 157.41 131.32 157.41 131.17 158.19 126.87 158.19 124.64 169.34 123.77 169.34 125.98 158.19"/><path class="cls-1" d="M149.27,167.14l1.39,1.84-.6.53-1.35-1.78a5.85,5.85,0,0,1-4.21,1.69c-2.13,0-3.48-1.06-3.48-2.66s1.07-2.71,3.85-4.09h0a4.2,4.2,0,0,1-1-2.47c0-1.76,1.28-2.85,3.15-2.85,1.47,0,2.44.78,2.44,2,0,1.45-1,2.32-3.41,3.53l2.79,3.7a9.44,9.44,0,0,0,1.37-2.46l.68.22a10.17,10.17,0,0,1-1.6,2.81m-1,0-3-3.94c-2.57,1.28-3.41,2.17-3.41,3.44s1,2,2.68,2a5.2,5.2,0,0,0,3.73-1.55m-2.69-4.86,0,0c2.35-1.14,3.07-1.8,3.07-2.93,0-.77-.61-1.39-1.72-1.39a2.08,2.08,0,0,0-2.32,2.1,3.7,3.7,0,0,0,1,2.2"/><polygon class="cls-1" points="165.88 157.41 166.75 157.41 164.52 168.56 171.38 168.56 171.22 169.34 163.5 169.34 165.88 157.41"/><path class="cls-1" d="M176.29,164.52a7,7,0,0,1,7.15-7.19c3.51,0,5.47,2,5.47,4.91a7,7,0,0,1-7.16,7.19c-3.51,0-5.46-2-5.46-4.91M188,162.27c0-2.47-1.58-4.14-4.65-4.14a6.11,6.11,0,0,0-6.2,6.36c0,2.48,1.6,4.14,4.67,4.14a6.1,6.1,0,0,0,6.19-6.36"/><path class="cls-1" d="M205.23,159l-.61.54a4.63,4.63,0,0,0-3.72-1.4,6.13,6.13,0,0,0-6.32,6.36c0,2.47,1.6,4.14,4.72,4.14a5.4,5.4,0,0,0,3.34-1.09l.83-4.1h.84l-.91,4.48a6.36,6.36,0,0,1-4.21,1.52c-3.49,0-5.49-2-5.49-4.91a7,7,0,0,1,7.25-7.19,5.32,5.32,0,0,1,4.28,1.65"/><polygon class="cls-1" points="212.44 157.41 213.31 157.41 210.92 169.34 210.05 169.34 212.44 157.41"/><path class="cls-1" d="M217.32,167.84l.46-.66a5.31,5.31,0,0,0,3.82,1.48c2.24,0,3.79-.94,3.79-2.65,0-2.93-6.31-1.48-6.31-5.16,0-2.25,2-3.53,4.62-3.53a6.18,6.18,0,0,1,3.6,1l-.41.71a5.34,5.34,0,0,0-3.22-1c-2.2,0-3.72,1-3.72,2.67,0,3,6.31,1.57,6.31,5.14,0,2.29-2,3.52-4.72,3.52a5.81,5.81,0,0,1-4.21-1.59"/><polygon class="cls-1" points="236.03 158.19 231.74 158.19 231.91 157.41 241.37 157.41 241.22 158.19 236.92 158.19 234.68 169.34 233.82 169.34 236.03 158.19"/><polygon class="cls-1" points="246.64 157.41 247.5 157.41 245.12 169.34 244.25 169.34 246.64 157.41"/><path class="cls-1" d="M252.35,164.52a7,7,0,0,1,7.23-7.19,5.11,5.11,0,0,1,4.15,1.63l-.62.56a4.45,4.45,0,0,0-3.59-1.4,6.14,6.14,0,0,0-6.29,6.36c0,2.47,1.61,4.14,4.69,4.14a5.46,5.46,0,0,0,3.94-1.43l.53.6a6.42,6.42,0,0,1-4.54,1.64c-3.53,0-5.49-2-5.49-4.91"/><path class="cls-1" d="M274.34,167.84l.46-.66a5.31,5.31,0,0,0,3.82,1.48c2.23,0,3.79-.94,3.79-2.65,0-2.93-6.31-1.48-6.31-5.16,0-2.25,2-3.53,4.62-3.53a6.2,6.2,0,0,1,3.6,1l-.41.71a5.31,5.31,0,0,0-3.21-1c-2.21,0-3.72,1-3.72,2.67,0,3,6.31,1.57,6.31,5.14,0,2.29-2,3.52-4.72,3.52a5.79,5.79,0,0,1-4.21-1.59"/><path class="cls-1" d="M288.68,164.52a7,7,0,0,1,7.14-7.19c3.51,0,5.48,2,5.48,4.91a7,7,0,0,1-7.16,7.19c-3.52,0-5.46-2-5.46-4.91m11.73-2.25c0-2.47-1.59-4.14-4.65-4.14a6.11,6.11,0,0,0-6.21,6.36c0,2.48,1.6,4.14,4.67,4.14a6.1,6.1,0,0,0,6.19-6.36"/><polygon class="cls-1" points="308.53 157.41 309.39 157.41 307.16 168.56 314.03 168.56 313.86 169.34 306.14 169.34 308.53 157.41"/><path class="cls-1" d="M319.76,165.61a7.84,7.84,0,0,1,.13-1.33l1.38-6.87h.87l-1.36,6.85a5.85,5.85,0,0,0-.14,1.29c0,2,1.19,3.07,3.35,3.07,2.49,0,4-1.38,4.59-4.37l1.36-6.85h.87l-1.38,6.91c-.68,3.44-2.53,5.11-5.49,5.11-2.68,0-4.19-1.41-4.19-3.82"/><polygon class="cls-1" points="339.9 158.19 335.6 158.19 335.77 157.41 345.23 157.41 345.08 158.19 340.78 158.19 338.55 169.34 337.67 169.34 339.9 158.19"/><polygon class="cls-1" points="350.5 157.41 351.36 157.41 348.98 169.34 348.11 169.34 350.5 157.41"/><path class="cls-1" d="M356.21,164.52a7,7,0,0,1,7.14-7.19c3.51,0,5.47,2,5.47,4.91a7,7,0,0,1-7.16,7.19c-3.52,0-5.45-2-5.45-4.91m11.73-2.25c0-2.47-1.59-4.14-4.65-4.14a6.12,6.12,0,0,0-6.21,6.36c0,2.48,1.6,4.14,4.67,4.14a6.1,6.1,0,0,0,6.19-6.36"/><polygon class="cls-1" points="385.77 157.41 383.38 169.34 382.65 169.34 376.63 158.85 374.54 169.34 373.67 169.34 376.05 157.41 376.77 157.41 382.8 167.91 384.9 157.41 385.77 157.41"/></g></g></svg>