<svg xmlns="http://www.w3.org/2000/svg" viewBox="0 0 366.89 161.18"><defs><style>.cls-1{fill:#00518f;}.cls-2{fill:#f7cf2b;}</style></defs><title>Logo Tls</title><g id="Capa_2" data-name="Capa 2"><g id="Capa_1-2" data-name="Capa 1"><path class="cls-1" d="M56.3,50.19C54.44,49.1,53.41,48,55,44.91c1.91-3.8,3.31-8,4.89-12.05.47-1.21.82-2.5,1.7-5.24-12.86,3.11-25.31,6.08-37.62,9.06H46.21l-19,95.27H70.72l13-65.12q-8.23-5.1-16.46-10.19c-3.61-2.22-7.28-4.3-10.93-6.44"/><path class="cls-1" d="M74.93,16.57c10-1.51,20-2.45,30-3.13,9.16-.61,18.36-1.16,27.49-1l1.92-9.5h-119L9.75,30.21c6.57-2.11,13.17-4,19.79-5.59,15-3.57,30.24-5.75,45.4-8"/><path class="cls-1" d="M186.43,15.95l2.59-13H145.53l-2,9.9c14.32.58,28.65,1.37,42.85,3.1h0"/><path class="cls-1" d="M132.7,67.1l-13,64.83H221.45l6.82-33.72H170l9.11-45.71A186.8,186.8,0,0,0,142.28,62.9c-3.23,1.3-6.42,2.71-9.58,4.2"/><path class="cls-1" d="M341.84,66.44c-4.09-1.16-8.18-2.33-12.28-3.45-27.5-7.53-55.36-12.61-83.77-14.18l-.94,0c.31,39.64,61.36,31.8,61.36,45.4,0,4.61-5.9,7.55-17.14,7.55a86.23,86.23,0,0,1-43.49-12L228.82,121.8c12.35,7.56,32.8,13.08,55.83,13.08,40.17,0,65.23-19.35,65.23-48.09,0-9-3.16-15.51-8-20.35"/><path class="cls-1" d="M288.67,43.52a4.42,4.42,0,0,1-.33-1.69c0-4.42,6.26-8.66,19-8.66,12.53,0,25.06,3.13,35.38,9.58l15.66-31.69C346.38,3.87,329.24,0,310.08,0c-31.45,0-53.22,11.44-61.5,30.14q4.36,1.28,8.69,2.63c10.53,3.3,21,6.79,31.4,10.75"/><path class="cls-2" d="M127.48,36.67l4.9-24.22c-9.13-.17-18.32.38-27.49,1-10,.67-20,1.62-30,3.13-15.15,2.3-30.35,4.48-45.4,8-6.62,1.57-13.22,3.47-19.79,5.59L8.44,36.67H23.93c12.31-3,24.76-6,37.62-9.06-.89,2.74-1.23,4-1.7,5.24-1.58,4-3,8.25-4.89,12-1.55,3.09-.52,4.2,1.34,5.29,3.65,2.14,7.32,4.21,10.93,6.44q8.24,5.08,16.46,10.19l6-30.15Z"/><path class="cls-2" d="M186.4,15.94c-14.2-1.72-28.52-2.51-42.85-3.1L132.7,67.1c3.16-1.5,6.35-2.91,9.58-4.2a187,187,0,0,1,36.87-10.4l7.28-36.56h0"/><path class="cls-2" d="M339.79,64.57c-7.7-6.38-18.6-9.51-28.4-11.91-11.15-2.73-20.84-4.54-22.72-9.14-10.36-4-20.87-7.44-31.4-10.75q-4.33-1.36-8.69-2.63a44.86,44.86,0,0,0-3.73,18.32c0,.1,0,.2,0,.3l.94,0c28.41,1.58,56.27,6.65,83.77,14.18,4.1,1.12,8.19,2.29,12.28,3.45q-1-1-2.06-1.87"/><polygon class="cls-1" points="4.08 150.41 0 150.41 0.16 149.67 9.16 149.67 9.01 150.41 4.93 150.41 2.81 161.01 1.98 161.01 4.08 150.41"/><path class="cls-1" d="M18.51,157.12,20.7,161h-.91l-2.12-3.76c-.26,0-.52,0-.79,0h-3.4L12.72,161H11.9l2.27-11.35h4c2.5,0,3.94,1.14,3.94,3.13a4.12,4.12,0,0,1-3.56,4.33m2.74-4.26c0-1.59-1.14-2.45-3.16-2.45H14.85l-1.23,6.14h3.26c2.77,0,4.38-1.25,4.38-3.7"/><path class="cls-1" d="M34.25,157.82h-6.6L25.56,161h-.92l7.49-11.35H33L35.9,161h-.84Zm-.18-.7-1.67-6.58-4.3,6.58Z"/><polygon class="cls-1" points="52.44 149.67 50.17 161.01 49.47 161.01 43.75 151.03 41.76 161.01 40.93 161.01 43.2 149.67 43.88 149.67 49.62 159.65 51.61 149.67 52.44 149.67"/><path class="cls-1" d="M56.25,159.59l.44-.63a5,5,0,0,0,3.63,1.41c2.12,0,3.6-.89,3.6-2.51,0-2.79-6-1.41-6-4.91,0-2.14,1.86-3.36,4.39-3.36a5.87,5.87,0,0,1,3.42,1l-.39.68a5.05,5.05,0,0,0-3.06-.94c-2.09,0-3.53,1-3.53,2.54,0,2.84,6,1.49,6,4.89,0,2.17-1.93,3.34-4.49,3.34a5.51,5.51,0,0,1-4-1.51"/><path class="cls-1" d="M80.11,152.8c0,2.92-2,4.51-5.22,4.51H71.5L70.76,161h-.83l2.27-11.35h4c2.5,0,4,1.14,4,3.13m-.84.06c0-1.59-1.13-2.45-3.16-2.45H72.88l-1.23,6.14h3.24c2.77,0,4.38-1.25,4.38-3.7"/><path class="cls-1" d="M84.44,156.43a6.61,6.61,0,0,1,6.79-6.84c3.34,0,5.2,1.88,5.2,4.67a6.62,6.62,0,0,1-6.81,6.84c-3.34,0-5.19-1.88-5.19-4.67m11.15-2.14c0-2.35-1.51-3.94-4.43-3.94a5.81,5.81,0,0,0-5.9,6c0,2.35,1.52,3.94,4.44,3.94a5.8,5.8,0,0,0,5.88-6"/><path class="cls-1" d="M107.65,157.12l2.19,3.89h-.91l-2.12-3.76c-.26,0-.52,0-.79,0h-3.41l-.75,3.73H101l2.27-11.35h4c2.49,0,3.94,1.14,3.94,3.13a4.12,4.12,0,0,1-3.57,4.33m2.74-4.26c0-1.59-1.13-2.45-3.16-2.45H104l-1.23,6.14H106c2.77,0,4.37-1.25,4.37-3.7"/><polygon class="cls-1" points="119.79 150.41 115.71 150.41 115.87 149.67 124.86 149.67 124.72 150.41 120.63 150.41 118.51 161.01 117.68 161.01 119.79 150.41"/><path class="cls-1" d="M141.93,158.92l1.33,1.75-.57.5-1.28-1.69a5.57,5.57,0,0,1-4,1.6c-2,0-3.31-1-3.31-2.53s1-2.58,3.66-3.89l0,0a4,4,0,0,1-1-2.35,2.69,2.69,0,0,1,3-2.71c1.39,0,2.32.74,2.32,1.9,0,1.38-.91,2.2-3.24,3.36l2.66,3.52a8.85,8.85,0,0,0,1.3-2.33l.65.21a9.51,9.51,0,0,1-1.52,2.67m-.92,0-2.85-3.74c-2.45,1.22-3.24,2.06-3.24,3.27s.94,1.94,2.55,1.94a4.94,4.94,0,0,0,3.55-1.47m-2.56-4.62,0,0c2.24-1.09,2.92-1.72,2.92-2.79,0-.73-.58-1.31-1.64-1.31a2,2,0,0,0-2.2,2,3.54,3.54,0,0,0,.91,2.09"/><polygon class="cls-1" points="157.72 149.67 158.55 149.67 156.43 160.27 162.96 160.27 162.79 161.01 155.45 161.01 157.72 149.67"/><path class="cls-1" d="M167.62,156.5a6.61,6.61,0,0,1,6.79-6.84c3.34,0,5.21,1.88,5.21,4.67a6.63,6.63,0,0,1-6.81,6.84c-3.34,0-5.19-1.88-5.19-4.67m11.16-2.14c0-2.35-1.51-3.94-4.43-3.94a5.81,5.81,0,0,0-5.9,6c0,2.35,1.52,3.94,4.44,3.94a5.8,5.8,0,0,0,5.89-6"/><path class="cls-1" d="M195.14,151.24l-.58.52a4.4,4.4,0,0,0-3.54-1.33,5.83,5.83,0,0,0-6,6c0,2.35,1.52,3.94,4.49,3.94a5.16,5.16,0,0,0,3.18-1l.8-3.91h.79l-.86,4.26a6.07,6.07,0,0,1-4,1.44c-3.33,0-5.22-1.88-5.22-4.67a6.64,6.64,0,0,1,6.89-6.84,5.06,5.06,0,0,1,4.07,1.57"/><polygon class="cls-1" points="202 149.74 202.83 149.74 200.56 161.09 199.73 161.09 202 149.74"/><path class="cls-1" d="M206.64,159.67l.44-.63a5,5,0,0,0,3.63,1.41c2.12,0,3.6-.89,3.6-2.51,0-2.79-6-1.41-6-4.91,0-2.14,1.87-3.36,4.4-3.36a5.88,5.88,0,0,1,3.42,1l-.39.68a5.06,5.06,0,0,0-3.07-.94c-2.09,0-3.54,1-3.54,2.55,0,2.84,6,1.49,6,4.9,0,2.17-1.93,3.34-4.49,3.34a5.51,5.51,0,0,1-4-1.51"/><polygon class="cls-1" points="224.45 150.49 220.36 150.49 220.53 149.74 229.52 149.74 229.38 150.49 225.29 150.49 223.17 161.09 222.34 161.09 224.45 150.49"/><polygon class="cls-1" points="234.54 149.74 235.36 149.74 233.09 161.09 232.27 161.09 234.54 149.74"/><path class="cls-1" d="M240,156.5a6.63,6.63,0,0,1,6.88-6.84,4.84,4.84,0,0,1,3.94,1.56l-.58.54a4.25,4.25,0,0,0-3.42-1.33,5.83,5.83,0,0,0-6,6c0,2.35,1.52,3.94,4.46,3.94a5.2,5.2,0,0,0,3.74-1.36l.5.57a6.09,6.09,0,0,1-4.31,1.56c-3.36,0-5.22-1.88-5.22-4.67"/><path class="cls-1" d="M260.89,159.67l.44-.63a5,5,0,0,0,3.63,1.41c2.12,0,3.6-.89,3.6-2.51,0-2.79-6-1.41-6-4.91,0-2.14,1.87-3.36,4.39-3.36a5.88,5.88,0,0,1,3.42,1l-.39.68a5.06,5.06,0,0,0-3.06-.94c-2.09,0-3.54,1-3.54,2.55,0,2.84,6,1.49,6,4.9,0,2.17-1.93,3.34-4.49,3.34a5.51,5.51,0,0,1-4-1.51"/><path class="cls-1" d="M274.53,156.5a6.61,6.61,0,0,1,6.79-6.84c3.34,0,5.21,1.88,5.21,4.67a6.63,6.63,0,0,1-6.81,6.84c-3.34,0-5.19-1.88-5.19-4.67m11.16-2.14c0-2.35-1.51-3.94-4.43-3.94a5.81,5.81,0,0,0-5.9,6c0,2.35,1.52,3.94,4.44,3.94a5.8,5.8,0,0,0,5.89-6"/><polygon class="cls-1" points="293.41 149.74 294.24 149.74 292.11 160.35 298.65 160.35 298.49 161.09 291.14 161.09 293.41 149.74"/><path class="cls-1" d="M304.1,157.54a7.38,7.38,0,0,1,.13-1.26l1.31-6.54h.83l-1.3,6.52a5.54,5.54,0,0,0-.13,1.23c0,1.9,1.13,2.92,3.19,2.92,2.37,0,3.79-1.31,4.36-4.15l1.3-6.52h.83l-1.31,6.57c-.65,3.27-2.42,4.86-5.22,4.86-2.55,0-4-1.35-4-3.63"/><polygon class="cls-1" points="323.25 150.49 319.16 150.49 319.33 149.74 328.32 149.74 328.18 150.49 324.09 150.49 321.97 161.09 321.14 161.09 323.25 150.49"/><polygon class="cls-1" points="333.34 149.74 334.17 149.74 331.89 161.09 331.07 161.09 333.34 149.74"/><path class="cls-1" d="M338.77,156.5a6.61,6.61,0,0,1,6.79-6.84c3.34,0,5.21,1.88,5.21,4.67a6.63,6.63,0,0,1-6.81,6.84c-3.34,0-5.19-1.88-5.19-4.67m11.16-2.14c0-2.35-1.51-3.94-4.43-3.94a5.81,5.81,0,0,0-5.9,6c0,2.35,1.52,3.94,4.44,3.94a5.8,5.8,0,0,0,5.89-6"/><polygon class="cls-1" points="366.89 149.74 364.62 161.09 363.92 161.09 358.2 151.11 356.2 161.09 355.38 161.09 357.65 149.74 358.33 149.74 364.07 159.73 366.06 149.74 366.89 149.74"/></g></g></svg>