<svg xmlns="http://www.w3.org/2000/svg" viewBox="0 0 264.43 209.57"><defs><style>.cls-1{fill:#ededed;}.cls-2{fill:#ffbe2e;}.cls-3{fill:#f7cf2b;}.cls-4{fill:#00518f;}.cls-5{fill:#16110d;}.cls-6{fill:#fec;}</style></defs><title>mundo tls</title><g id="Capa_2" data-name="Capa 2"><g id="Capa_1-2" data-name="Capa 1"><path class="cls-1" d="M38.94,23.17l-2,0V22.6a4.35,4.35,0,0,1,2.09-3.47l.91-.51a1.9,1.9,0,0,1,3,1.79s0,.05,0,.07l.06,0,1-.56a2.43,2.43,0,0,0,1.08-1.79,4.35,4.35,0,0,1,2.09-3.47l.87-.48a1.9,1.9,0,0,1,3,1.79s0,0,0,.07l.06,0,.73-.4a2.42,2.42,0,0,0,1.08-1.79A4.35,4.35,0,0,1,55,10.32l.87-.48a1.9,1.9,0,0,1,3,1.79v.69l-2,0V11.6s0,0,0-.07l-.06,0-.86.48a2.42,2.42,0,0,0-1.08,1.79,4.35,4.35,0,0,1-2.09,3.47l-.73.4a1.9,1.9,0,0,1-3-1.79s0,0,0-.07l-.06,0-.87.48a2.42,2.42,0,0,0-1.08,1.79A4.35,4.35,0,0,1,45,21.61l-1,.55a1.9,1.9,0,0,1-3-1.79s0,0,0-.07l-.06,0-.91.5a2.42,2.42,0,0,0-1.08,1.79Z"/><polygon class="cls-2" points="107.62 18.9 110.6 35.39 145.46 47.91 142.48 31.42 107.62 18.9"/><polygon class="cls-3" points="163.71 13.27 142.48 31.42 107.62 18.9 128.85 0.75 163.71 13.27"/><polygon class="cls-1" points="164.74 18.96 143.51 37.11 108.65 24.6 129.88 6.45 164.74 18.96"/><path class="cls-4" d="M128.72,0,106.9,18.65,110,35.89,145.6,48.66,167.42,30,164.3,12.77ZM144.6,46.9l-33.42-12-2.71-15,33.42,12ZM108.92,18.67,129,1.5l33.42,12L142.34,30.67Z"/><polygon class="cls-2" points="145.46 47.9 147.24 56.93 114.11 45.04 112.49 36.07 145.46 47.9"/><path class="cls-5" d="M145.32,47.15,111.63,35.06l1.89,10.47,33.84,12.15,19-16.26-1.92-10.63Zm-30.63-2.61-1.35-7.47L144.88,48.4l1.48,7.51Z"/><polygon class="cls-2" points="145.18 48.23 144.91 46.75 164.04 30.39 164.32 31.88 145.18 48.23"/><polygon class="cls-4" points="150.24 23.98 116.47 11.85 116.91 10.6 151.41 22.99 150.24 23.98"/><polygon class="cls-2" points="154.37 51.76 153.03 52.89 153.13 39.87 150.24 23.99 151.41 22.97 154.44 39.76 154.37 51.76"/><path class="cls-4" d="M148.79,12.5a3.39,3.39,0,0,0-3.27-1.77c-2.54,0-4.4,2.82-5.49,5.14a14.16,14.16,0,0,0-.38-1.9c-.52-1.85-3.72-4.33-6-4.19a2.55,2.55,0,0,0-2.43,2.48c-.63,4.08,5.48,6.44,7.52,7.11l-.09.29.85-.06.7.19v-.25c.9-.08,2.25-.22,3.6-.47,2-.36,4-.94,4.63-1.84a5,5,0,0,0,.37-4.73m-16.28,0c.16-1,.61-1.27,1-1.34l.19,0c1.74-.1,4.34,2,4.67,3.23a16.19,16.19,0,0,1,.5,3.7c-2.49-.85-6.79-2.89-6.37-5.57m14.82,4c-.49.71-3.75,1.4-6.83,1.7.86-2.3,2.77-6.11,5-6.12a2.16,2.16,0,0,1,2.1,1.05,3.65,3.65,0,0,1-.29,3.36"/><path class="cls-5" d="M142.55,23.84a3.89,3.89,0,0,1-1.72-.09c-1.82-.49-1.58-2-1.45-2.84.06-.4.14-.85,0-1a1,1,0,0,0-.66-.25,3.8,3.8,0,0,0-3,.63,3.68,3.68,0,0,0-1.17,2.37l-1.32-.07a5,5,0,0,1,1.64-3.3,5.05,5.05,0,0,1,4-.93,2.16,2.16,0,0,1,1.54.77,2.53,2.53,0,0,1,.24,2c-.16,1-.1,1.19.49,1.35a2.69,2.69,0,0,0,3-1.36l1.18.61a4.17,4.17,0,0,1-2.83,2.12"/><path class="cls-3" d="M111.58,28s-3.66-2.85-6.21-3.52a41.94,41.94,0,0,0-6.72-.87l-11.42-1-.41,0-11.37-1a46.42,46.42,0,0,0-7.06-.34c-3.13.17-10.1,2.09-10.1,2.09l12.1,25.73,24.13,3.32,29.17,1.36Z"/><path class="cls-1" d="M108.76,30.68s-3.66-2.85-6.21-3.52a41.92,41.92,0,0,0-6.72-.87l-11.42-1-.41,0-11.37-1a46.42,46.42,0,0,0-7.06-.34c-3.13.17-2.9.49-2.9.49l4.84,10.3A28.94,28.94,0,0,0,91.76,51.27l27.4,1.54Z"/><path class="cls-4" d="M69.77,48.81,57.67,23.08l.5-.14c.29-.08,7.06-1.93,10.2-2.1a46.51,46.51,0,0,1,7.14.34l23.19,2a41.52,41.52,0,0,1,6.79.88c2.61.68,6.22,3.48,6.37,3.6l.08.06,0,.09,12.25,26.06L94.49,52.85ZM58.9,23.65l11.77,25L94.57,52,123,53.3l-11.74-25c-.55-.42-3.74-2.8-6-3.38a41.72,41.72,0,0,0-6.63-.86L75.41,22a46.68,46.68,0,0,0-7-.34,65.91,65.91,0,0,0-9.51,1.94"/><path class="cls-5" d="M123.95,53.43c-.15-.12-3.76-2.92-6.37-3.6a41.39,41.39,0,0,0-6.79-.88l-23.19-2a46.21,46.21,0,0,0-7.14-.34c-3.14.17-9.91,2-10.2,2.1l-.5.14.57.69a3.43,3.43,0,0,0,.69.6A20.21,20.21,0,0,0,76.48,53a41.82,41.82,0,0,0,6.76.87l23.19,2a47.21,47.21,0,0,0,7.16.35c3.15-.16,9.91-2,10.2-2.05l.43-.28Z"/><path class="cls-4" d="M66.63,41.22l-.27-.83c.29-.1,7.2-2.31,11.1-2.26s13.71,1.13,14.13,1.18l20,1.82c.11,0,3.59,0,8.46,4l-.55.67C114.91,42,111.61,42,111.58,42L91.5,40.18c-.11,0-10.25-1.12-14-1.17S66.7,41.2,66.63,41.22"/><path class="cls-3" d="M85.08,36.44l-5.71-.5a4.43,4.43,0,0,1-3.17-2.43l-2.14-4.6c-.58-1.24-.09-2.16,1.09-2.05l5.71.5A4.43,4.43,0,0,1,84,29.79l2.14,4.6c.58,1.24.09,2.16-1.09,2.05"/><path class="cls-4" d="M85,36.7l-5.39-.47A5,5,0,0,1,76,33.64l-2.29-4.91c-.6-1.3.06-2.25,1.49-2.13l5.39.47a5,5,0,0,1,3.68,2.58l2.29,4.91c.6,1.3-.06,2.25-1.49,2.13m-9.62-9.55c-1.1-.1-1.62.64-1.15,1.64l2.29,4.91a3.84,3.84,0,0,0,2.84,2l5.39.47c1.1.1,1.61-.64,1.15-1.64l-2.29-4.91a3.83,3.83,0,0,0-2.84-2Z"/><path class="cls-6" d="M83.52,32l-3.68-2.7c-.24-.18-.53-.2-.62-.06l-1.36,2.26c-.06.09.1.27.25.28l1.15.1a.56.56,0,0,1,.41.29L81,34.93a.54.54,0,0,0,.4.28l2,.17c.15,0,.23-.09.16-.23L82.2,32.38c-.07-.15,0-.25.17-.24l1.15.1c.15,0,.16-.15,0-.26"/><path class="cls-4" d="M82.66,35.09l-2-.17a1.11,1.11,0,0,1-.82-.57l-1.29-2.77-1.14-.1a.92.92,0,0,1-.55-.29c-.15-.16-.2-.34-.13-.46l1.36-2.26a.43.43,0,0,1,.43-.16,1.28,1.28,0,0,1,.62.25l3.68,2.7a.65.65,0,0,1,.3.47c0,.15-.12.23-.31.22l-1.15-.1L83,34.62c.13.29,0,.5-.33.47M77.46,31l.87.08a1.13,1.13,0,0,1,.83.58l1.29,2.77,1.94.16-1.3-2.76c-.14-.29,0-.51.34-.48l.87.08-3.41-2.5a.22.22,0,0,0-.11,0,.08.08,0,0,0-.08,0Z"/><path class="cls-5" d="M98.15,36.28a10.38,10.38,0,0,1-3.46-3.9,3.8,3.8,0,0,1,0-3.86,3.8,3.8,0,0,1,3.63-1.31A11.24,11.24,0,0,1,106.62,33a3.79,3.79,0,0,1,0,3.86A3.8,3.8,0,0,1,103,38.2a10.37,10.37,0,0,1-4.85-1.92m4.57-6.52A9.57,9.57,0,0,0,98.24,28a3.06,3.06,0,0,0-2.92,1A3.07,3.07,0,0,0,95.39,32a10.37,10.37,0,0,0,7.67,5.38,3.07,3.07,0,0,0,2.92-1,3.07,3.07,0,0,0-.07-3.08,9.58,9.58,0,0,0-3.19-3.6"/><path class="cls-5" d="M98.84,35.29a7.35,7.35,0,0,1-2.45-2.77,2.76,2.76,0,0,1,0-2.81,2.75,2.75,0,0,1,2.64-1,8,8,0,0,1,5.89,4.13,2.45,2.45,0,0,1-2.64,3.77,7.35,7.35,0,0,1-3.44-1.36M102,30.75A6.58,6.58,0,0,0,99,29.53a2,2,0,0,0-1.93.64,2,2,0,0,0,.06,2,7.1,7.1,0,0,0,5.25,3.68,2,2,0,0,0,1.93-.64,2,2,0,0,0-.06-2A6.57,6.57,0,0,0,102,30.75"/><path class="cls-5" d="M100.72,46.81l.07-.78,1.84.16a.5.5,0,0,0,.56-.8l-.1-.22a2.79,2.79,0,0,0-2-1.42l-.19,0a3.55,3.55,0,0,1-2.67-1.87l-.1-.22a1.26,1.26,0,0,1,1.34-1.91l.19,0a.5.5,0,0,0,.56-.8l-.06-.13a2.78,2.78,0,0,0-2-1.42l-.19,0a3.55,3.55,0,0,1-2.67-1.87,1.26,1.26,0,0,1,1.34-1.91l.19,0a.5.5,0,0,0,.56-.8l-.08-.18a2.78,2.78,0,0,0-2-1.42l-1.84-.16.07-.78,1.84.16A3.55,3.55,0,0,1,98,32.31l.08.18A1.26,1.26,0,0,1,96.7,34.4l-.19,0a.5.5,0,0,0-.56.8,2.78,2.78,0,0,0,2,1.42l.19,0a3.55,3.55,0,0,1,2.67,1.87l.06.13a1.26,1.26,0,0,1-1.34,1.91l-.19,0a.5.5,0,0,0-.56.8l.1.22a2.78,2.78,0,0,0,2,1.42l.19,0a3.55,3.55,0,0,1,2.67,1.87l.1.22A1.25,1.25,0,0,1,102.56,47Z"/><path class="cls-2" d="M72.38,50.11l-.16-.56a28.34,28.34,0,0,1,9.12-1c3.93.42,33.88,2.84,34.19,2.86a18,18,0,0,1,5.22,1.48c1.13.61,1.35.72,1.36.72l-.24.53s-.22-.1-1.4-.74a17.73,17.73,0,0,0-5-1.41c-.29,0-30.25-2.44-34.19-2.86a28.26,28.26,0,0,0-8.89,1"/><polygon class="cls-3" points="217.78 94.23 187.58 55.53 224.03 50.43 254.22 89.13 217.78 94.23"/><polygon class="cls-2" points="187.58 55.53 175.28 85.91 205.48 124.61 217.78 94.23 187.58 55.53"/><polygon class="cls-1" points="216.25 98 186.05 59.3 222.5 54.2 252.7 92.9 216.25 98"/><path class="cls-4" d="M224.29,50.22l-.12-.16-36.84,5.15L174.89,86l30.44,39L242,119.85l.19,0,12.44-30.74Zm-18.91,73.72L175.67,85.85l12-29.65,14.61,18.73,15.1,19.35ZM188.21,55.79l35.67-5,29.71,38.08-35.67,5Z"/><path class="cls-6" d="M182.86,92.19l-3-3.79a3.72,3.72,0,0,1-.33-3.34l1.6-3.94c.43-1.06,1.27-1.29,1.88-.51l3,3.79a3.72,3.72,0,0,1,.33,3.34l-1.6,3.94c-.43,1.06-1.27,1.29-1.88.51"/><path class="cls-5" d="M182.43,90.94l-2.79-3.58a4.17,4.17,0,0,1-.52-3.73l1.7-4.21a1.15,1.15,0,0,1,2.16-.3l2.79,3.58a4.17,4.17,0,0,1,.52,3.73l-1.7,4.21a1.15,1.15,0,0,1-2.16.3m.36-11.37a.89.89,0,0,0-1.66.23L179.42,84a3.22,3.22,0,0,0,.4,2.88l2.79,3.58a.89.89,0,0,0,1.66-.23L186,86a3.22,3.22,0,0,0-.4-2.88Z"/><path class="cls-2" d="M184.29,86.76c.09.11.21.08.23-.08a4.56,4.56,0,0,0-.75-3.33c-.65-.84-1.47-.89-2-.22a.4.4,0,0,0,0,.42Z"/><path class="cls-5" d="M184.12,86.23,181.62,83a.89.89,0,0,1-.16-.48.63.63,0,0,1,.11-.43c.61-.76,1.52-.66,2.23.24a5.06,5.06,0,0,1,.83,3.68.39.39,0,0,1-.19.31.27.27,0,0,1-.31-.12m-2.29-3.64,2.47,3.16a4.15,4.15,0,0,0-.69-2.93c-.56-.71-1.28-.8-1.77-.23"/><path class="cls-5" d="M181.29,87.26a1.52,1.52,0,0,1-.19-1.36l.11-.26.31.39-.11.26a.57.57,0,0,0,.07.51.16.16,0,0,0,.29,0l1-2.56.31.39-1,2.56a.42.42,0,0,1-.79.11"/><path class="cls-6" d="M189.4,100.57l-3-3.79a3.72,3.72,0,0,1-.33-3.34l1.6-3.94c.43-1.06,1.27-1.29,1.88-.51l3,3.79a3.72,3.72,0,0,1,.33,3.34l-1.6,3.94c-.43,1.06-1.27,1.29-1.88.51"/><path class="cls-5" d="M189,99.31l-2.79-3.58a4.17,4.17,0,0,1-.52-3.73l1.7-4.21a1.15,1.15,0,0,1,2.16-.3l2.79,3.58a4.17,4.17,0,0,1,.52,3.74L191.13,99a1.15,1.15,0,0,1-2.16.3M189.33,88a.89.89,0,0,0-1.66.23L186,92.39a3.22,3.22,0,0,0,.4,2.88l2.79,3.58a.89.89,0,0,0,1.66-.23l1.7-4.21a3.22,3.22,0,0,0-.4-2.88Z"/><path class="cls-2" d="M191,95.68l-.44-3.8c0-.25-.18-.44-.32-.41l-2.17.46c-.09,0-.1.21,0,.32l.59.76a.47.47,0,0,1,.06.42l-1,2.38a.45.45,0,0,0,.06.41l1,1.3a.12.12,0,0,0,.23,0l1-2.37a.13.13,0,0,1,.24,0l.59.76c.08.1.18,0,.16-.15"/><path class="cls-5" d="M188.59,96.93l-1-1.31a.93.93,0,0,1-.12-.83l1-2.37-.59-.75a.77.77,0,0,1-.13-.51c0-.18.1-.32.21-.34l2.17-.46a.36.36,0,0,1,.34.17,1.08,1.08,0,0,1,.2.53l.44,3.8a.55.55,0,0,1-.12.45c-.09.08-.21.06-.31-.07l-.59-.76-1,2.38a.26.26,0,0,1-.48.07m-.44-5.55.45.58a1,1,0,0,1,.12.85l-1,2.38,1,1.28.95-2.37a.26.26,0,0,1,.49-.07l.45.58-.41-3.52a.18.18,0,0,0,0-.09.07.07,0,0,0-.06,0Z"/><path class="cls-1" d="M234.65,112.12l-1.83-.74.2-.5a4.37,4.37,0,0,1,3.21-2.5l1-.15a1.91,1.91,0,0,1,2.14,2.75l0,.07h.07l1.14-.16a2.43,2.43,0,0,0,1.65-1.29,4.36,4.36,0,0,1,3.2-2.5l1-.14a1.91,1.91,0,0,1,2.14,2.75l0,.07h.07l.83-.12a2.43,2.43,0,0,0,1.65-1.29,4.37,4.37,0,0,1,3.21-2.5l1-.14a1.91,1.91,0,0,1,2.14,2.75l-.26.64-1.82-.74.26-.64,0-.07h-.07l-1,.14a2.43,2.43,0,0,0-1.65,1.29,4.37,4.37,0,0,1-3.21,2.5l-.83.12a1.91,1.91,0,0,1-2.14-2.75l0-.07h-.07l-1,.14a2.43,2.43,0,0,0-1.65,1.29,4.37,4.37,0,0,1-3.2,2.5l-1.14.16a1.91,1.91,0,0,1-2.14-2.75l0-.07h-.07l-1,.15a2.43,2.43,0,0,0-1.65,1.29Z"/><path class="cls-3" d="M216.92,59.76l-7.28,1L215,67.66l7.28-1Zm-1.29,6.15-3-3.88,3.71-.52,3,3.88Z"/><path class="cls-4" d="M215.48,66.27,212,61.78l4.47-.62,3.5,4.49Zm-2.26-4,2.55,3.27,2.94-.41-2.55-3.27Z"/><path class="cls-4" d="M214.87,68,209,60.53l8-1.13,5.85,7.49Zm-4.61-7,4.9,6.28,6.52-.91-4.9-6.27Z"/><path class="cls-4" d="M204.07,63.79a8.88,8.88,0,0,1-3.64-2.59,2.87,2.87,0,0,1,2-5,9.61,9.61,0,0,1,8,3.26,2.87,2.87,0,0,1-2,5,8.87,8.87,0,0,1-4.41-.67m2.56-6.32a8.2,8.2,0,0,0-4.07-.62A2.22,2.22,0,0,0,201,60.79a8.87,8.87,0,0,0,7.43,3A2.22,2.22,0,0,0,210,59.87a8.2,8.2,0,0,0-3.35-2.39"/><path class="cls-4" d="M204.46,62.84A6.29,6.29,0,0,1,201.88,61a2.1,2.1,0,0,1,1.48-3.65,6.81,6.81,0,0,1,5.71,2.31,2.1,2.1,0,0,1-1.48,3.65,6.3,6.3,0,0,1-3.13-.47m1.78-4.4a5.61,5.61,0,0,0-2.79-.42,1.45,1.45,0,0,0-1,2.58,6.07,6.07,0,0,0,5.09,2.06,1.45,1.45,0,0,0,1-2.58,5.62,5.62,0,0,0-2.3-1.64"/><polygon class="cls-3" points="244.25 76.93 208.61 81.83 202.31 73.77 237.96 68.87 244.25 76.93"/><path class="cls-4" d="M206.51,80.26l-6.78-8.69,37.19-5.11,6.78,8.69ZM201,72.08l5.81,7.44,35.63-4.9-5.81-7.44Z"/><polygon class="cls-2" points="201.63 74.12 196.74 86.19 202.96 94.45 207.92 82.18 201.63 74.12"/><path class="cls-5" d="M201.79,92.85l-6.69-8.9,5.18-12.8,6.78,8.69Zm-5.91-9,5.73,7.63,4.67-11.53-5.81-7.44Z"/><polygon class="cls-2" points="202.59 107.78 196.36 99.8 201.42 87.3 207.65 95.28 202.59 107.78"/><path class="cls-5" d="M202.66,108.32l-6.61-8.47,5.3-13.08L208,95.23Zm-6-8.56,5.84,7.49,4.83-11.92-5.84-7.49Z"/><polygon class="cls-6" points="202.42 105.81 198.32 100.56 201.94 91.62 206.03 96.87 202.42 105.81"/><path class="cls-5" d="M202.32,105.17l-4.48-5.74,3.85-9.52,4.48,5.74Zm-3.86-5.83,3.71,4.75,3.38-8.35L201.84,91Z"/><path class="cls-5" d="M202,110.28a9.29,9.29,0,0,1-1.16-8.32c1-2.48,3.16-2.78,4.8-.67a9.3,9.3,0,0,1,1.17,8.32c-1,2.48-3.16,2.78-4.8.67m3.44-8.49c-1.46-1.87-3.37-1.6-4.27.6a8.26,8.26,0,0,0,1,7.39c1.46,1.87,3.38,1.6,4.27-.6a8.26,8.26,0,0,0-1-7.39"/><path class="cls-5" d="M202.49,109.15a6.88,6.88,0,0,1-.86-6.15c.74-1.83,2.34-2.05,3.55-.5a6.87,6.87,0,0,1,.86,6.15c-.74,1.83-2.34,2.05-3.55.5M205,103c-1-1.32-2.38-1.13-3,.42a5.83,5.83,0,0,0,.73,5.22c1,1.32,2.38,1.13,3-.42A5.83,5.83,0,0,0,205,103"/><polygon class="cls-4" points="236.37 91.46 206.33 52.73 206.99 52.47 237.14 91.35 236.37 91.46"/><polygon class="cls-3" points="224.63 122.05 223.86 122.15 236.31 91.38 237.09 91.28 224.63 122.05"/><path class="cls-3" d="M43.52,41.33s-4.63.31-7,1.51A41.79,41.79,0,0,0,31,46.67l-9.19,6.86-.33.25-9.15,6.83a46.46,46.46,0,0,0-5.49,4.45C4.57,67.27.65,73.35.65,73.35L26.81,84.48,47,70.89,69.68,52.47Z"/><path class="cls-1" d="M43.17,45.18s-4.63.31-7,1.51a41.79,41.79,0,0,0-5.59,3.83l-9.19,6.86-.33.25-9.15,6.83a46.4,46.4,0,0,0-5.49,4.45c-2.22,2.21-1.84,2.3-1.84,2.3l10.48,4.46a28.94,28.94,0,0,0,29.13-3.8l21.46-17.1Z"/><path class="cls-4" d="M26.16,84.68,0,73.55l.28-.44c.16-.25,4-6.14,6.2-8.36A46,46,0,0,1,12,60.25L30.69,46.32a41.41,41.41,0,0,1,5.65-3.87c2.4-1.23,7-1.55,7.15-1.56h.1l.1,0L70.18,52.21l-22.89,19ZM1.3,73.15,26.76,84l20-13.47L68.85,52.59,43.45,41.78c-.69.06-4.65.41-6.71,1.46A41.71,41.71,0,0,0,31.23,47L12.54,61A46.4,46.4,0,0,0,7.1,65.37a65.77,65.77,0,0,0-5.8,7.78"/><path class="cls-4" d="M69.65,52c-.19,0-4.75.33-7.15,1.56a41.35,41.35,0,0,0-5.65,3.87L38.2,71.39a46.24,46.24,0,0,0-5.55,4.5c-2.23,2.22-6,8.11-6.2,8.36l-.28.43.89.14a3.42,3.42,0,0,0,.91,0,20.2,20.2,0,0,0,6-1.48,41.82,41.82,0,0,0,5.63-3.85L58.23,65.54A47.37,47.37,0,0,0,63.81,61C66,58.82,69.89,53,70,52.71l.13-.5Z"/><path class="cls-4" d="M18.77,81.11,18,80.67c.15-.27,3.84-6.52,6.77-9.08s11-8.29,11.32-8.53l16.15-12c.08-.07,2.7-2.37,9-2.64l0,.87c-6,.25-8.45,2.42-8.48,2.44l-16.19,12c-.09.06-8.39,6-11.26,8.48s-6.56,8.8-6.59,8.86"/><path class="cls-3" d="M29.35,65.25l-4.59,3.43a4.44,4.44,0,0,1-4,.3l-4.66-2c-1.25-.54-1.5-1.55-.55-2.26l4.59-3.43a4.44,4.44,0,0,1,4-.31l4.66,2c1.25.54,1.5,1.55.56,2.25"/><path class="cls-4" d="M29.49,65.47l-4.34,3.24a5,5,0,0,1-4.47.53l-5-2.14a1.37,1.37,0,0,1-.3-2.58l4.34-3.24a5,5,0,0,1,4.47-.53l5,2.14a1.37,1.37,0,0,1,.3,2.58M16,64.75a1.06,1.06,0,0,0,.23,2l5,2.14a3.84,3.84,0,0,0,3.45-.41l4.34-3.24a1.06,1.06,0,0,0-.24-2l-5-2.14a3.84,3.84,0,0,0-3.45.41Z"/><path class="cls-1" d="M25.22,63l-4.54.43c-.3,0-.53.2-.5.37l.49,2.59c0,.11.25.13.38,0l.92-.69a.56.56,0,0,1,.5-.06l2.81,1.21a.54.54,0,0,0,.48-.06l1.58-1.18a.15.15,0,0,0,0-.28L24.5,64.14c-.15-.06-.16-.19,0-.29l.92-.69c.12-.09,0-.21-.17-.19"/><path class="cls-4" d="M26.64,65.86,25.06,67a1.11,1.11,0,0,1-1,.12L21.26,66l-.91.69a.91.91,0,0,1-.61.15c-.22,0-.37-.12-.4-.25l-.49-2.6a.43.43,0,0,1,.21-.41h0a1.3,1.3,0,0,1,.63-.22l4.54-.43a.65.65,0,0,1,.54.15c.1.11.06.26-.09.37l-.92.69,2.81,1.2a.3.3,0,0,1,.07.57M20,66.24l.7-.52a1.13,1.13,0,0,1,1-.12l2.81,1.21,1.55-1.18-2.8-1.19a.31.31,0,0,1-.07-.58l.7-.52-4.21.4a.23.23,0,0,0-.11,0,.08.08,0,0,0,0,.07Z"/><path class="cls-4" d="M39,56.43a10.38,10.38,0,0,1-5.18-.61A3.8,3.8,0,0,1,31.23,53a3.8,3.8,0,0,1,1.83-3.39,11.24,11.24,0,0,1,10.08-1.19,3.8,3.8,0,0,1,2.57,2.87,3.8,3.8,0,0,1-1.83,3.39,10.37,10.37,0,0,1-4.9,1.8m-.94-7.91a9.59,9.59,0,0,0-4.52,1.66A3.07,3.07,0,0,0,32,52.86a3.06,3.06,0,0,0,2.1,2.25,10.37,10.37,0,0,0,9.3-1.1,3.07,3.07,0,0,0,1.52-2.68,3.07,3.07,0,0,0-2.1-2.25,9.59,9.59,0,0,0-4.78-.56"/><path class="cls-4" d="M38.85,55.24a7.35,7.35,0,0,1-3.67-.43,2.45,2.45,0,0,1-.54-4.57,8,8,0,0,1,7.14-.85A2.45,2.45,0,0,1,42.32,54a7.37,7.37,0,0,1-3.47,1.28m-.65-5.52a6.55,6.55,0,0,0-3.1,1.14,1.7,1.7,0,0,0,.38,3.23,7.1,7.1,0,0,0,6.37-.75,1.7,1.7,0,0,0-.38-3.23,6.55,6.55,0,0,0-3.27-.38"/><path class="cls-3" d="M29,83.91l-.49-.31a28.33,28.33,0,0,1,6.12-6.83C37.83,74.46,61.77,56.31,62,56.13a18,18,0,0,1,4.88-2.37c1.25-.29,1.48-.36,1.5-.37l.17.56s-.23.07-1.54.38a17.73,17.73,0,0,0-4.67,2.28c-.23.17-24.18,18.33-27.41,20.64a28.29,28.29,0,0,0-6,6.67"/><path class="cls-6" d="M36.2,158.68l-1.52-.6.16-.41a3.62,3.62,0,0,1,2.64-2.09l.86-.13a1.58,1.58,0,0,1,1.8,2.26l0,.05h.06l.94-.14a2,2,0,0,0,1.36-1.08,3.62,3.62,0,0,1,2.64-2.09l.82-.12a1.58,1.58,0,0,1,1.79,2.26l0,.05h.06l.69-.1a2,2,0,0,0,1.36-1.08,3.62,3.62,0,0,1,2.64-2.09l.82-.12a1.58,1.58,0,0,1,1.8,2.26l-.21.54-1.52-.6.21-.53,0-.06h-.06l-.81.12A2,2,0,0,0,51.34,156a3.62,3.62,0,0,1-2.64,2.1l-.69.1a1.58,1.58,0,0,1-1.8-2.26l0-.06h-.06l-.82.12A2,2,0,0,0,44,157.14a3.62,3.62,0,0,1-2.64,2.1l-.94.14a1.58,1.58,0,0,1-1.8-2.26l0-.06h-.06l-.86.13a2,2,0,0,0-1.36,1.08Z"/><path class="cls-3" d="M220.62,110.17a92.34,92.34,0,1,1-92.34-92.34,92.34,92.34,0,0,1,92.34,92.34"/><path class="cls-1" d="M187.12,95.13c-11.57,0-26.12-4-40.45-11.73-26.9-14.61-42.94-37.26-35.75-50.5,2-3.68,5.54-6.33,10.52-7.86l.2,0c2.55-.19,4.8-.29,6.87-.29a89.83,89.83,0,0,1,81.61,52.62l.07.16v.17a15.21,15.21,0,0,1-1.71,8.22c-3.36,6.19-11.21,9.24-21.37,9.24M121.89,26.85c-4.45,1.39-7.59,3.72-9.33,6.94-6.7,12.34,9,33.86,35,48s52.61,15.57,59.3,3.24h0a13.31,13.31,0,0,0,1.5-7.06,88,88,0,0,0-79.85-51.37c-2,0-4.16.09-6.62.27"/><path class="cls-1" d="M173.39,166.27h-1.63c-19.57-.35-41.62-6.66-62.09-17.78S72,122.36,61.21,106.22c-10.47-15.65-13.36-30.33-8-40.29l1-1.76a89.6,89.6,0,0,1,156,86.93l-.44,1-.12-.07c-5.55,9.13-18.65,14.28-36.28,14.28M128.51,26.58A87.74,87.74,0,0,0,55.83,65.14l-1,1.68c-5.06,9.32-2.19,23.31,7.88,38.36,10.64,15.9,27.61,30.7,47.8,41.66s42,17.22,61.24,17.56c18.26.34,31.68-4.83,36.74-14.15l.22-.41A87.74,87.74,0,0,0,128.51,26.58"/><path class="cls-1" d="M218.12,114.33A89.61,89.61,0,1,0,41.81,137h0l0,.08A89.59,89.59,0,0,0,167.56,195l.12,0v0a89.71,89.71,0,0,0,50.44-80.58m-52-64.49C158.93,45.95,155.62,40.55,157,38c.65-1.2,2.35-1.88,4.7-1.88a22.35,22.35,0,0,1,10.2,3C179.11,43,182.41,48.38,181,51s-7.74,2.76-14.9-1.14M128.51,202.08a87.89,87.89,0,0,1-81.88-56.2c6.68,10.31,21.31,27.7,50,41.83a102.85,102.85,0,0,0,45.57,10.5,104.51,104.51,0,0,0,15.58-1.16,87.34,87.34,0,0,1-29.26,5m38.36-8.84c-2.86.86-34.84,9.85-69.43-7.19-41.34-20.36-53-47.45-53.84-49.56A87.74,87.74,0,0,1,165.18,34.61c-4.59-.92-8.37-.12-9.77,2.46-2.13,3.93,2.18,10.25,9.81,14.4a24.25,24.25,0,0,0,11.1,3.23c3,0,5.29-.94,6.32-2.83,1.19-2.19.37-5.13-1.91-8a87.7,87.7,0,0,1-13.85,149.38"/><path class="cls-1" d="M199.9,93.66c-2.18-2.76,2.43-10.11,5.34-12.78s1.46-3.88,0-8.25-3.16-7.28-7.28-9.23-8.26-1-12.14-1.46-7.28-5.34-11.17-6.8-6.56,6.56-7.77,5.34.24-4.86-1.94-7.32-13.11-1.9-20.64-3.12-7-5.34-4.86-7.53,2.18-4.61-3.23-7-17-1.49-20.56-.93c-7,1.12-5.1-3.68-8.75-3S98.16,37.17,95,36.44c-1.13-.26-2-1.51-2.74-2.82-1.9.9-3.74,1.88-5.56,2.92a14,14,0,0,0,4.17,6c2.91,2.67,4.86-1.69,10.44,1.34s6.07,17.36,2.18,18.09-6.31-3.4-6.07-7-.73-6.07-5.1-5.58-7,9.47-3.4,13.84S86,70.44,80.68,70.44s-7.88-6.94-7.53-11.09C73.74,52.41,79,51,80.43,47.13c.66-1.77.67-4.54.48-7a88.71,88.71,0,0,0-33.49,105,6.84,6.84,0,0,0,1.93-4c.07-3.77-2.67-7.53,0-7s3.64-1,4-9.23,5.46-5.34,12.65-6.31,7.66-1,4.31-4.8-5.4-11.43-5-19.68c.39-9.23,7.63-19.23,10.06-18.74s.57,3.58-2.46,9.87c-3.31,6.89-2.91,21.63,2.43,25.76s19.21-1.39,18-5.52S86.75,103,85.53,94.88s5.59-11.82,4.61-5.75,5.1,12.63,9.23,14.33,5.14,7.78,3.59,11.73c-2.41,6.19,7.34,4,3.92,7.69s-5.33,22.58-2.42,27.68,8,4.86,7.49.73,2.71-10.93,8-15.24,16.27-4.67,21.13,0-3.89,8.69-2.91,10.63,5.34-.49,6.8.24,2.43,3.64,3.16,6.56,2.06,7.86,5.87,9c4.76,1.47,10.64-2,10.89-5.88s-4.86-7.77-1.46-10.68,15.05-.49,20.64-4.13,3.88-16,1.94-19.18,0-6.56,5.1-2.91-.75,7.69,3.64,8.25c2.93.38,4.37-3.89,4.37-6.31s-3.89-5.83.24-6.8,4.86-2.43,6.31-11.17-3.64-7.28-5.83-10m-90-20.72c-2.54.39-.39,5.87-2.94,7.82s-7.44.83-6.25-2.74c1.37-4.11,3.13-6.26,5.28-9.39s7.24-2.15,8,1.17-1.57,2.74-4.11,3.13"/><path class="cls-4" d="M154.55,161.46a8.47,8.47,0,0,1-2.5-.36c-4.16-1.28-5.52-6.74-6.18-9.36-.34-1.36-1.37-5.48-2.91-6.25a5.44,5.44,0,0,0-2.52.22c-1.76.38-3.75.8-4.48-.67-.49-1,.46-2,1.66-3.31,2.35-2.55,3.94-4.7,1.34-7.2-4.54-4.37-15.09-4.35-20.51,0s-8.35,11.13-7.88,14.82c.22,1.72-.45,3-1.79,3.46-1.81.61-4.64-.54-6.56-3.9-2.88-5-1.19-24.31,2.48-28.23.61-.65.62-1,.6-1.05-.07-.33-.87-.64-1.57-.91-1.81-.71-4.54-1.78-3.05-5.58s.39-9.6-3.34-11.14c-4.44-1.83-10.49-8.67-9.51-14.83.23-1.44,0-2.18-.35-2.39s-.82,0-1,.18c-1.29.83-3,3.63-2.33,8,.69,4.61,2.77,5.89,4.6,7,1.34.83,2.61,1.6,3.15,3.44.41,1.39-.52,2.94-2.6,4.36-4,2.77-12.14,4.73-16.12,1.66C67.44,105,67.39,89.78,70.6,83.11l1-2.06c1.67-3.42,2.88-5.89,2.44-6.77-.06-.12-.2-.3-.66-.39-.11,0-.52,0-1.38.63C68.82,77,64.19,85,63.88,92.2c-.33,7.95,1.6,15.54,4.93,19.35,1.63,1.87,2.37,2.84,2,3.69-.39,1-2,1.26-6.38,1.84l-.27,0a36.62,36.62,0,0,1-5.18.24c-4.39,0-6.81,0-7.06,5.64s-.81,8.25-2.05,9.24a3,3,0,0,1-2.5.42c-.38-.07-.54,0-.57,0-.19.21.13,1.36.36,2.2a15.4,15.4,0,0,1,.76,4.38,7.25,7.25,0,0,1-2,4.3l-.51.59-.28-.73A89.17,89.17,0,0,1,78.8,37.85l.66-.45.06.79A18.19,18.19,0,0,1,79,45.43a11.68,11.68,0,0,1-3,4c-1.94,2-4,4-4.3,8.12a12.33,12.33,0,0,0,2.83,8.6,5.62,5.62,0,0,0,4.24,2c3.45,0,7.62-1.28,8.63-3.43a2.82,2.82,0,0,0-.73-3.09c-2.34-2.81-2.16-7.15-.93-10.19,1-2.55,2.76-4.2,4.64-4.41s3.39.11,4.34,1,1.44,2.6,1.28,5.06a7.14,7.14,0,0,0,2.08,5.59,3.93,3.93,0,0,0,3.44,1c.91-.17,1.65-1.5,2-3.55.69-4.37-.61-11.68-4.29-13.67A7.41,7.41,0,0,0,93,41.72c-1.44.36-2.8.7-4.34-.72a14,14,0,0,1-4.31-6.19l-.1-.35.32-.18c2-1.12,3.81-2.08,5.59-2.93l.38-.18.22.37c.72,1.22,1.51,2.39,2.44,2.6,1.64.38,4-1,6.38-2.39a19.59,19.59,0,0,1,5.31-2.47,2.82,2.82,0,0,1,3.18,1.34c.84,1,1.78,2.22,5.59,1.62,2.74-.44,15-1.63,20.83,1,3,1.33,4.54,2.74,4.83,4.31A4,4,0,0,1,137.91,41a3.64,3.64,0,0,0-1.15,3.52c.36,1.1,1.64,2.55,5.75,3.22,2.66.43,5.77.64,8.76.83,5.7.38,10.62.7,12.15,2.43a7.42,7.42,0,0,1,1.47,5,3.83,3.83,0,0,0,.45,2.29,8.44,8.44,0,0,0,1.4-1.67c1.49-2,3.52-4.78,6.2-3.77A19.81,19.81,0,0,1,178,56.19c2,1.64,3.94,3.18,6,3.43,3.81.48,8-.51,12.28,1.5s6.07,5.14,7.53,9.5c.29.86.58,1.6.83,2.25,1,2.67,1.61,4.14-1,6.49-2.88,2.64-7.19,9.75-5.29,12.15a6.35,6.35,0,0,0,2.31,1.59c2.2,1.09,4.7,2.33,3.62,8.82-1.43,8.55-2.16,10.48-6.66,11.55a2,2,0,0,0-1.45.84c-.3.63.19,1.68.66,2.69a7.13,7.13,0,0,1,.9,2.82,8.59,8.59,0,0,1-2.32,5.94,3.17,3.17,0,0,1-2.58.83,2.55,2.55,0,0,1-1.85-.86,3,3,0,0,1-.15-2.38c.29-1.56.62-3.34-1.85-5.1-2.06-1.47-3.79-1.89-4.63-1.11s-.62,2.08.2,3.4c2,3.18,3.88,15.93-2.08,19.81-3,2-7.79,2.23-12,2.44-3.66.19-7.12.37-8.61,1.65-1.68,1.44-1,3,.19,5.53a10,10,0,0,1,1.43,4.83,6.63,6.63,0,0,1-3.14,4.8,10.42,10.42,0,0,1-5.85,1.85m-12.14-17a2.14,2.14,0,0,1,1,.19c1.33.67,2.38,2.78,3.4,6.86.61,2.46,1.89,7.58,5.55,8.7a9,9,0,0,0,7.54-1.37,5.73,5.73,0,0,0,2.75-4.09,9.34,9.34,0,0,0-1.34-4.36c-1.12-2.29-2.27-4.66,0-6.64,1.73-1.49,5.18-1.66,9.17-1.87s8.69-.45,11.52-2.29c5.41-3.53,3.59-15.64,1.8-18.55-1.06-1.72-1.08-3.6,0-4.57.57-.53,2.27-1.49,5.8,1,2.95,2.11,2.51,4.46,2.22,6-.14.72-.25,1.34,0,1.66a1.81,1.81,0,0,0,1.22.48,2.25,2.25,0,0,0,1.85-.6,7.83,7.83,0,0,0,2-5.25,6.6,6.6,0,0,0-.81-2.42c-.57-1.21-1.16-2.46-.66-3.49a2.81,2.81,0,0,1,2.07-1.34c3.85-.91,4.52-2.12,6-10.79,1-5.81-1-6.79-3.11-7.83a7.14,7.14,0,0,1-2.62-1.85c-2.52-3.19,2.7-10.94,5.39-13.41,2.1-1.92,1.72-2.89.72-5.47-.26-.66-.55-1.42-.84-2.29-1.41-4.24-3-7.06-7-9s-8.05-.92-12-1.42c-2.29-.29-4.4-2-6.44-3.63a19.15,19.15,0,0,0-4.84-3.19c-2-.76-3.75,1.58-5.13,3.46-.88,1.2-1.46,2-2.13,2a.84.84,0,0,1-.67-.26C164,58.3,164,57.25,164,56c0-1.47-.1-3.14-1.24-4.42-1.28-1.44-6.48-1.79-11.52-2.12-3-.2-6.14-.41-8.85-.84-4.57-.74-6-2.5-6.48-3.85a4.5,4.5,0,0,1,1.37-4.47,3.08,3.08,0,0,0,1.2-2.66c-.23-1.23-1.67-2.45-4.29-3.63-5.08-2.27-16.07-1.57-20.3-.9s-5.56-.84-6.46-1.95c-.63-.79-1-1.26-2.28-1a19,19,0,0,0-5,2.37C97.49,34.07,95,35.5,93,35c-1.22-.28-2.09-1.48-2.82-2.67-1.54.75-3.13,1.58-4.83,2.54a13.87,13.87,0,0,0,3.93,5.41c1.18,1.08,2.1.85,3.49.5a8.29,8.29,0,0,1,6.86.77c4.19,2.27,5.48,10.1,4.77,14.63-.4,2.53-1.36,4.06-2.72,4.32a4.83,4.83,0,0,1-4.23-1.18A8,8,0,0,1,95.11,53c.15-2.17-.17-3.54-1-4.33s-1.92-1-3.59-.77-3,1.6-3.88,3.83c-1.09,2.7-1.3,6.74.79,9.25,1.46,1.76,1.28,3.19.86,4.08-1.21,2.58-5.78,4-9.47,4a6.6,6.6,0,0,1-4.92-2.29,13.34,13.34,0,0,1-3.07-9.31c.38-4.45,2.6-6.71,4.57-8.7a11,11,0,0,0,2.75-3.64,16.14,16.14,0,0,0,.51-6A88.24,88.24,0,0,0,45.72,142.32,5.66,5.66,0,0,0,47,139.23a14.68,14.68,0,0,0-.72-4.11c-.4-1.44-.7-2.48-.16-3.07a1.55,1.55,0,0,1,1.42-.3,2.06,2.06,0,0,0,1.76-.24c1-.78,1.47-3.26,1.71-8.55.29-6.56,3.68-6.56,8-6.52a36.19,36.19,0,0,0,5.05-.23l.27,0c3.16-.43,5.44-.73,5.63-1.25s-1.07-1.83-1.88-2.75c-3.48-4-5.51-11.83-5.16-20,.32-7.5,5.15-15.75,8.48-18.36A2.81,2.81,0,0,1,73.57,73a1.73,1.73,0,0,1,1.31.89c.64,1.28-.46,3.52-2.44,7.59l-1,2.05c-3.32,6.9-2.68,21.35,2.3,25.19,3.6,2.78,11.3.86,15-1.69,1.7-1.16,2.52-2.38,2.24-3.33-.44-1.5-1.46-2.12-2.75-2.92-1.91-1.17-4.28-2.63-5-7.67-.64-4.27.9-7.7,2.75-8.88A1.83,1.83,0,0,1,88,84c.53.35,1.09,1.2.76,3.31-.91,5.72,4.78,12.11,8.94,13.82s5.55,8,3.85,12.33c-1.15,2.94.72,3.67,2.53,4.38,1,.41,2,.76,2.13,1.57.13.55-.14,1.15-.83,1.89-3.13,3.34-5.27,22-2.35,27.13,1.65,2.89,4,4,5.46,3.48.9-.3,1.33-1.2,1.17-2.47-.58-4.59,3-11.47,8.22-15.66,5.73-4.63,16.91-4.62,21.74,0,3.46,3.33.59,6.44-1.3,8.49-.8.87-1.72,1.86-1.52,2.26.41.83,2,.48,3.46.17a11.16,11.16,0,0,1,2.17-.33M102.14,80.32a4.66,4.66,0,0,1-2.69-.78,2.93,2.93,0,0,1-1-3.52,29,29,0,0,1,4.44-8.21l.9-1.29a5,5,0,0,1,5.1-2,4.56,4.56,0,0,1,3.75,3.34,3,3,0,0,1-.21,2.55c-.58.8-1.67.89-2.92,1-.43,0-.89.07-1.36.15-.87.13-1,1.2-1.08,2.94s-.22,3.7-1.66,4.8a5.44,5.44,0,0,1-3.27,1.05m5.74-15a4,4,0,0,0-3.34,1.7l-.9,1.3a28,28,0,0,0-4.32,8,2,2,0,0,0,.67,2.47,4.42,4.42,0,0,0,4.85-.25c1.1-.84,1.2-2.5,1.29-4.12s.21-3.54,1.86-3.8c.49-.08,1-.12,1.42-.15,1-.08,1.92-.16,2.25-.62a2.33,2.33,0,0,0,.05-1.79,3.65,3.65,0,0,0-3-2.64,4.53,4.53,0,0,0-.83-.08"/><path class="cls-1" d="M54.47,138.39c-1.16,3.09-1.47,8.78,2.41,11.45s1.21-11.65,5.59-12.63.91-5.41-2.19-5.1c-2.95.29-4.94,3.94-5.81,6.28"/><path class="cls-4" d="M55.88,148.77a2,2,0,0,1-1.12-.41c-4.13-2.84-3.81-8.73-2.59-12l.43.16-.43-.16c.54-1.45,2.59-6.22,6.2-6.57a4.63,4.63,0,0,1,4.73,3.33c.1.62.07,2.13-2.4,2.68-1.87.42-2.29,4.25-2.62,7.33-.3,2.79-.54,5-1.69,5.53a1.23,1.23,0,0,1-.52.11m2.85-18.07h-.27c-2.44.24-4.41,3.25-5.42,6-1.08,2.88-1.42,8.39,2.24,10.9.22.15.53.32.73.22.67-.31.93-2.68,1.16-4.78.38-3.55.82-7.58,3.34-8.14.86-.19,1.84-.63,1.68-1.63a3.76,3.76,0,0,0-3.46-2.57"/><path class="cls-6" d="M161.7,187.32c-7.25,4.13-13.43,3.21-19,4.61-3.83,1-5.78,5.42-8.76,10.46a88.24,88.24,0,0,0,49.68-17.6,10.55,10.55,0,0,0-.61-2.33c-3.64-9.23-14.08.73-21.33,4.86"/><path class="cls-5" d="M131.28,201l.44-.73c.46-.78.9-1.54,1.32-2.28,2.3-4,4.3-7.52,7.73-8.39a42.33,42.33,0,0,1,5.73-.9c4.1-.46,8.34-.93,13.13-3.66,1.44-.82,3-1.87,4.66-3,4.89-3.28,9.94-6.68,13.71-5.5a6,6,0,0,1,3.63,3.86,10.89,10.89,0,0,1,.64,2.43l0,.27-.22.17A88.55,88.55,0,0,1,132.13,201Zm45.1-23.76c-3.28,0-7.66,2.94-11.58,5.58-1.67,1.12-3.24,2.18-4.72,3-5,2.82-9.49,3.33-13.49,3.78a41.56,41.56,0,0,0-5.6.88c-3,.77-4.86,3.94-7.15,7.95l-.89,1.56a87.58,87.58,0,0,0,48.35-17.3,9.85,9.85,0,0,0-.54-2,5,5,0,0,0-3-3.31,4.5,4.5,0,0,0-1.33-.19"/><path class="cls-6" d="M134,166.38c-8-2.9-2.55,13.6,4.71,16.53,6.35,2.57,13.85,1.35,13.61-1.08s-4.15-.42-9.67-4.79-4.86-9.28-8.65-10.66"/><path class="cls-4" d="M144.27,183a20.75,20.75,0,0,1-7.62-1.46c-5.54-2.24-10.2-12.05-8.65-16.1.36-.94,1.39-2.35,4.27-1.3,2,.74,2.89,2.41,3.88,4.34a17.32,17.32,0,0,0,4.9,6.39,14.81,14.81,0,0,0,7,3.11c1.5.3,2.69.54,2.83,2a1.84,1.84,0,0,1-.88,1.7c-1.11.83-3.24,1.33-5.75,1.33m-13.82-18.31a1.52,1.52,0,0,0-1.58,1.08c-1.25,3.24,2.85,12.77,8.13,14.91s10.73,1.55,12.46.25A1,1,0,0,0,150,180c-.07-.7-.49-.86-2.09-1.18a15.82,15.82,0,0,1-7.4-3.29,18.34,18.34,0,0,1-5.15-6.7c-.94-1.83-1.68-3.27-3.37-3.89a4.48,4.48,0,0,0-1.51-.32"/><path class="cls-6" d="M173.38,169.27c-4.67-4.15,3.37-11,7.57-10.55s3.78,4.51,1.22,8.57-6.18,4.3-8.79,2"/><path class="cls-5" d="M175.12,169.36a5.89,5.89,0,0,1-3.9-1.59h0a4.37,4.37,0,0,1-1.09-5.36c1.44-3.28,6-6.3,9-6a3.66,3.66,0,0,1,3.2,1.92c.83,1.71.23,4.39-1.64,7.36a7.15,7.15,0,0,1-4.88,3.62,5.09,5.09,0,0,1-.71.05m3.57-12c-2.65,0-6.49,2.68-7.72,5.46a3.43,3.43,0,0,0,.86,4.3h0a4.8,4.8,0,0,0,3.86,1.32,6.26,6.26,0,0,0,4.23-3.2c1.67-2.65,2.27-5.06,1.59-6.46a2.82,2.82,0,0,0-2.47-1.41l-.36,0"/><path class="cls-1" d="M200.34,130.26c-.54-2.44,3.13-4.66,5.05-4.7,2.56-.06,1.61-5.06,3.45-4.86s3,8.72-1.19,11.4c-3.39,2.17-6.49,1.81-7.31-1.83"/><path class="cls-4" d="M201.95,132a4,4,0,0,1-1.52-.29,4.26,4.26,0,0,1-2.4-3.25,3.21,3.21,0,0,1,.74-2.7,7.17,7.17,0,0,1,4.75-2.57c1,0,1.26-1,1.63-2.45.3-1.19.65-2.55,1.88-2.41.78.08,1.41,1,1.78,2.54.63,2.66.44,7.65-2.77,9.71a7.82,7.82,0,0,1-4.09,1.42m-3-3.74a3.34,3.34,0,0,0,1.85,2.59c1.22.51,2.91.13,4.76-1.05,2.66-1.7,3-6.12,2.37-8.71-.31-1.29-.76-1.81-1-1.83-.4,0-.61.62-.88,1.71-.34,1.39-.77,3.12-2.51,3.16a6.34,6.34,0,0,0-4,2.21,2.29,2.29,0,0,0-.57,1.93"/><path class="cls-4" d="M187.12,92.66c-11.57,0-26.12-4-40.45-11.73-26.9-14.61-42.94-37.26-35.75-50.5,2-3.68,5.54-6.33,10.52-7.86l.2,0c2.55-.19,4.8-.29,6.87-.29a89.83,89.83,0,0,1,81.61,52.62l.07.16v.17a15.22,15.22,0,0,1-1.71,8.22c-3.36,6.19-11.21,9.24-21.37,9.24M121.89,24.38c-4.45,1.39-7.59,3.72-9.33,6.94-6.7,12.34,9,33.86,35,48s52.61,15.57,59.3,3.24a13.31,13.31,0,0,0,1.5-7.06A88,88,0,0,0,128.52,24.1c-2,0-4.16.09-6.62.27"/><path class="cls-4" d="M173.39,163.8h-1.63c-19.57-.35-41.62-6.66-62.09-17.78S72,119.89,61.21,103.74c-10.47-15.65-13.36-30.33-8-40.29l1-1.76a89.6,89.6,0,0,1,156,86.93l-.44,1-.12-.07c-5.55,9.13-18.65,14.28-36.28,14.28M128.51,24.1A87.74,87.74,0,0,0,55.83,62.67l-1,1.68c-5.06,9.32-2.19,23.31,7.88,38.36,10.64,15.9,27.61,30.7,47.8,41.66s42,17.22,61.24,17.56c18.26.34,31.68-4.83,36.74-14.15l.22-.41A87.74,87.74,0,0,0,128.51,24.1"/><path class="cls-4" d="M218.12,111.85a89.61,89.61,0,1,0-176.3,22.66h0l0,.08a89.59,89.59,0,0,0,125.73,57.9l.12,0v0a89.71,89.71,0,0,0,50.44-80.58m-52-64.49c-7.17-3.89-10.48-9.29-9.07-11.88.65-1.2,2.35-1.88,4.7-1.88a22.34,22.34,0,0,1,10.2,3c7.17,3.9,10.48,9.29,9.07,11.88h0c-1.41,2.6-7.74,2.76-14.9-1.14M128.51,199.6a87.89,87.89,0,0,1-81.88-56.2c6.68,10.31,21.31,27.7,50,41.83a102.84,102.84,0,0,0,45.57,10.5,104.36,104.36,0,0,0,15.58-1.16,87.34,87.34,0,0,1-29.26,5m38.36-8.84c-2.86.86-34.84,9.85-69.43-7.19C56.1,163.2,44.45,136.11,43.6,134A87.74,87.74,0,0,1,165.18,32.14c-4.59-.92-8.37-.12-9.77,2.46-2.13,3.93,2.18,10.25,9.81,14.4a24.26,24.26,0,0,0,11.1,3.23c3,0,5.29-.94,6.32-2.83h0c1.19-2.19.37-5.12-1.91-8a87.7,87.7,0,0,1-13.85,149.38"/><polygon class="cls-3" points="9.82 96.76 2.69 114.82 27.08 145.53 34.21 127.48 9.82 96.76"/><path class="cls-3" d="M11.34,120.88l-3.66-4.61a4.55,4.55,0,0,1-.43-4.08l1.91-4.84c.51-1.3,1.54-1.59,2.3-.64l3.66,4.61a4.55,4.55,0,0,1,.43,4.08l-1.91,4.84c-.52,1.3-1.54,1.59-2.3.64"/><path class="cls-1" d="M11.65,122.83,8,118.22a4.55,4.55,0,0,1-.43-4.08l1.91-4.84c.51-1.3,1.54-1.59,2.3-.64l3.66,4.61a4.55,4.55,0,0,1,.43,4.08l-1.91,4.84c-.51,1.3-1.54,1.59-2.3.64"/><path class="cls-4" d="M11.12,121l-3.45-4.35A5.1,5.1,0,0,1,7,112.13L9,107a1.41,1.41,0,0,1,2.64-.39l3.45,4.35a5.1,5.1,0,0,1,.68,4.56l-2,5.17a1.41,1.41,0,0,1-2.63.39m.32-13.9a1.08,1.08,0,0,0-2,.3l-2,5.17a3.94,3.94,0,0,0,.52,3.52l3.45,4.35a1.08,1.08,0,0,0,2-.3l2-5.17a3.93,3.93,0,0,0-.52-3.52Z"/><path class="cls-3" d="M13.35,115.91c.11.14.25.09.28-.1a5.58,5.58,0,0,0-1-4.06c-.81-1-1.81-1.07-2.46-.24a.48.48,0,0,0,0,.51Z"/><path class="cls-4" d="M13.14,115.26,10,111.37a1.07,1.07,0,0,1-.2-.58.78.78,0,0,1,.13-.52c.74-.93,1.86-.82,2.73.27A6.21,6.21,0,0,1,13.75,115a.47.47,0,0,1-.24.39.33.33,0,0,1-.37-.15m-2.84-4.43,3,3.84a5.07,5.07,0,0,0-.88-3.58c-.69-.87-1.57-1-2.17-.26"/><path class="cls-4" d="M9.69,116.56a1.86,1.86,0,0,1-.25-1.66l.13-.32.38.48-.13.32a.7.7,0,0,0,.09.62.19.19,0,0,0,.36-.05l1.24-3.15.38.48-1.24,3.14a.51.51,0,0,1-1,.14"/><polygon class="cls-3" points="57.48 123.9 34.21 127.48 9.82 96.76 33.09 93.18 57.48 123.9"/><polygon class="cls-1" points="56.3 127.38 33.03 130.96 8.64 100.24 31.91 96.66 56.3 127.38"/><path class="cls-4" d="M33.3,92.64,9.46,96.31,2.12,114.9l24.75,31.17,23.84-3.67,7.34-18.59Zm-6.37,51.9L3.26,114.73l6.71-17,7.28,9.17,16.39,20.65Zm-8.67-38-7.51-9.46,22.13-3.41,23.67,29.81-22.13,3.41Z"/><polygon class="cls-3" points="39.07 126.19 16.87 98.32 24.21 97.25 46.36 125.06 39.07 126.19"/><path class="cls-4" d="M42.14,126.81,17,95.23,25.5,94l25.12,31.58ZM18.88,96l23.68,29.77,6.19-.91L25.07,95.06Z"/><polygon class="cls-3" points="37.86 134.91 41.4 125.94 42.53 125.81 39.45 133.61 45.66 132.65 48.74 124.87 49.87 124.73 46.39 133.54 37.86 134.91"/><path class="cls-1" d="M23.67,127.42c-1,2.63-3.31,3-5.07.75a9.8,9.8,0,0,1-1.3-8.78c1-2.63,3.31-3,5.07-.75a9.81,9.81,0,0,1,1.3,8.78"/><path class="cls-4" d="M18,126.59a12,12,0,0,1-1.59-10.72c1.27-3.21,4-3.62,6.19-.92a12,12,0,0,1,1.59,10.73c-1.27,3.21-4,3.62-6.19.92m4.34-11c-1.91-2.4-4.37-2-5.5.82a10.66,10.66,0,0,0,1.41,9.53c1.91,2.4,4.37,2,5.5-.82a10.66,10.66,0,0,0-1.41-9.53"/><path class="cls-4" d="M18.61,125.12a8.87,8.87,0,0,1-1.18-7.93c.94-2.37,3-2.68,4.58-.68a8.87,8.87,0,0,1,1.18,7.93c-.94,2.37-3,2.68-4.58.68m3.14-8c-1.35-1.69-3.09-1.44-3.88.58a7.53,7.53,0,0,0,1,6.73c1.35,1.7,3.09,1.44,3.89-.58a7.53,7.53,0,0,0-1-6.73"/><polygon class="cls-3" points="194.08 151.47 194.08 163.61 217.32 177.03 217.32 164.89 194.08 151.47"/><polygon class="cls-3" points="263.95 137.97 217.32 164.89 194.08 151.47 240.71 124.55 263.95 137.97"/><polygon class="cls-1" points="263.95 142.16 217.32 169.08 194.08 155.66 240.71 128.74 263.95 142.16"/><path class="cls-4" d="M240.71,124l-47.11,27.2v12.69l23.72,13.69,47.11-27.2V137.69Zm-23.87,52.2-22.28-12.87v-11l22.28,12.87ZM195,151.47l45.67-26.37L263,138l-45.67,26.37Z"/><polygon class="cls-3" points="217.32 177.03 217.43 183.69 195.34 170.94 195.34 164.34 217.32 177.03"/><path class="cls-4" d="M217.32,176.48l-22.46-13v7.71l22.56,13,44.79-25.86v-7.83Zm-21.5-5.81v-5.5l21,12.14.09,5.55Z"/><polygon class="cls-3" points="217.08 177.22 217.08 176.14 261.97 150.22 261.98 151.32 217.08 177.22"/><polygon class="cls-4" points="210.36 180.17 209.16 172.66 209.15 160.09 256.02 133.11 256.49 133.94 210.11 160.64 210.11 172.59 211.3 180.02 210.36 180.17"/><polygon class="cls-4" points="223.81 160.59 201.3 147.58 201.78 146.75 224.78 160.03 223.81 160.59"/><polygon class="cls-3" points="223.18 180.93 222.07 181.56 223.83 172.29 223.81 160.59 224.78 160.02 224.78 172.38 223.18 180.93"/><path class="cls-4" d="M224.26,152.55a2.46,2.46,0,0,0-2.1-1.68c-1.81-.34-3.5,1.44-4.58,3a10.34,10.34,0,0,0,0-1.4,5.26,5.26,0,0,0-3.76-3.77,1.85,1.85,0,0,0-2.05,1.46c-1,2.83,3.08,5.3,4.45,6l-.1.2.61.06.47.23,0-.17c.65.06,1.63.13,2.63.13,1.47,0,3-.15,3.54-.71a3.61,3.61,0,0,0,.88-3.32m-11.6-2.13c.24-.69.6-.83.89-.83h.14a4.4,4.4,0,0,1,2.91,2.91,11.71,11.71,0,0,1-.12,2.7c-1.66-.92-4.46-2.94-3.83-4.79m10.05,4.77c-.44.44-2.85.51-5.09.33.91-1.53,2.77-4,4.37-3.72a1.57,1.57,0,0,1,1.36,1,2.65,2.65,0,0,1-.64,2.36"/><path class="cls-3" d="M243.34,137.37l-5.05,2.92a4.52,4.52,0,0,1-4.06-.17l-4.47-2.58c-1.2-.69-1.33-1.74-.29-2.35l5.05-2.92a4.52,4.52,0,0,1,4.06.17L243,135c1.2.69,1.33,1.74.29,2.35"/><path class="cls-4" d="M243.46,137.6l-4.77,2.75a5.06,5.06,0,0,1-4.58,0l-4.77-2.75a1.4,1.4,0,0,1,0-2.64l4.77-2.75a5.07,5.07,0,0,1,4.58,0l4.77,2.75a1.4,1.4,0,0,1,0,2.64m-13.59-2.34a1.08,1.08,0,0,0,0,2l4.77,2.76a3.91,3.91,0,0,0,3.53,0l4.77-2.76a1.08,1.08,0,0,0,0-2l-4.77-2.75a3.91,3.91,0,0,0-3.53,0Z"/><path class="cls-1" d="M238.75,134.67c.15-.09.13-.24-.06-.29a5.52,5.52,0,0,0-4.13.35c-1.12.65-1.32,1.62-.6,2.38a.48.48,0,0,0,.51,0Z"/><path class="cls-4" d="M238.08,134.79l-4.27,2.47a1.07,1.07,0,0,1-.6.12.77.77,0,0,1-.49-.2c-.81-.86-.53-1.94.66-2.63a6.15,6.15,0,0,1,4.56-.38.47.47,0,0,1,.34.29.32.32,0,0,1-.2.35m-4.75,2.14,4.21-2.43a5,5,0,0,0-3.64.34c-.95.55-1.18,1.4-.57,2.09"/><path class="cls-3" d="M235.68,135.87l2.9,1.68a.35.35,0,0,1,0,.66,1.26,1.26,0,0,1-1.15,0l-.29-.17Z"/><path class="cls-4" d="M238.85,138.36a1.84,1.84,0,0,1-1.67,0l-.29-.17.52-.3.29.17a.68.68,0,0,0,.62,0,.19.19,0,0,0,0-.36l-2.9-1.68.52-.3,2.9,1.68a.51.51,0,0,1,0,1"/><path class="cls-4" d="M232.22,146.19a9.57,9.57,0,0,1-4.68-1.12,3.09,3.09,0,0,1,0-5.82,10.37,10.37,0,0,1,9.36,0,3.09,3.09,0,0,1,0,5.82,9.57,9.57,0,0,1-4.68,1.12m0-7.35a8.85,8.85,0,0,0-4.32,1,2.4,2.4,0,0,0,0,4.58,9.57,9.57,0,0,0,8.64,0,2.4,2.4,0,0,0,0-4.58,8.85,8.85,0,0,0-4.32-1"/><path class="cls-4" d="M232.22,145.08a6.78,6.78,0,0,1-3.32-.79,2.26,2.26,0,0,1,0-4.25,7.34,7.34,0,0,1,6.64,0,2.26,2.26,0,0,1,0,4.25,6.79,6.79,0,0,1-3.32.79m0-5.12a6.05,6.05,0,0,0-3,.71,1.56,1.56,0,0,0,0,3,6.55,6.55,0,0,0,5.92,0,1.56,1.56,0,0,0,0-3,6.06,6.06,0,0,0-3-.71"/><polygon class="cls-3" points="68.71 136.88 71.7 153.36 106.56 165.88 103.57 149.39 68.71 136.88"/><polygon class="cls-3" points="124.81 131.24 103.57 149.39 68.71 136.88 89.95 118.72 124.81 131.24"/><polygon class="cls-1" points="125.84 136.93 104.6 155.08 69.74 142.57 90.98 124.42 125.84 136.93"/><path class="cls-4" d="M89.81,118,68,136.62l3.12,17.24,35.58,12.77L128.51,148l-3.12-17.24Zm15.89,46.9-33.42-12-2.71-15,33.42,12ZM70,136.64l20.07-17.17,33.42,12-20.07,17.17Z"/><polygon class="cls-3" points="106.56 165.88 108.33 174.9 75.21 163.01 73.58 154.04 106.56 165.88"/><path class="cls-4" d="M106.42,165.12,72.73,153l1.9,10.47,33.84,12.15,19-16.26-1.92-10.63Zm-30.63-2.61-1.35-7.47L106,166.37l1.48,7.51Z"/><polygon class="cls-3" points="106.28 166.19 106.01 164.72 125.13 148.36 125.41 149.85 106.28 166.19"/><polygon class="cls-4" points="111.33 141.95 77.56 129.81 78.01 128.57 112.5 140.96 111.33 141.95"/><polygon class="cls-3" points="115.46 169.73 114.12 170.87 114.22 157.84 111.33 141.96 112.5 140.94 115.54 157.73 115.46 169.73"/><path class="cls-4" d="M109.89,130.47a3.39,3.39,0,0,0-3.27-1.77c-2.54,0-4.4,2.82-5.49,5.14a14.16,14.16,0,0,0-.38-1.9c-.52-1.85-3.72-4.33-6-4.19a2.55,2.55,0,0,0-2.43,2.48c-.63,4.08,5.48,6.44,7.52,7.11l-.09.29.85-.06.7.19v-.25c.9-.08,2.25-.22,3.6-.47,2-.36,4-.94,4.63-1.84a5,5,0,0,0,.37-4.73m-16.28,0c.15-1,.61-1.27,1-1.34l.19,0c1.74-.1,4.34,2,4.67,3.23a16.19,16.19,0,0,1,.5,3.7c-2.49-.85-6.79-2.89-6.37-5.57m14.82,4c-.49.71-3.74,1.4-6.83,1.7.86-2.3,2.77-6.11,5-6.12a2.16,2.16,0,0,1,2.1,1.06,3.65,3.65,0,0,1-.29,3.36"/><path class="cls-4" d="M103.65,141.82a3.9,3.9,0,0,1-1.72-.09c-1.82-.49-1.58-2-1.45-2.84.06-.4.14-.85,0-1a1,1,0,0,0-.66-.25,3.8,3.8,0,0,0-3,.63,3.68,3.68,0,0,0-1.17,2.37l-1.32-.07a5,5,0,0,1,1.64-3.3,5.06,5.06,0,0,1,4-.93,2.17,2.17,0,0,1,1.54.77,2.54,2.54,0,0,1,.24,2c-.17,1-.11,1.19.48,1.35a2.69,2.69,0,0,0,3-1.36l1.18.61a4.18,4.18,0,0,1-2.83,2.12"/><polygon class="cls-3" points="12.68 16.35 9.7 28.24 29.17 47.07 32.14 35.18 12.68 16.35"/><polygon class="cls-3" points="51.76 29.48 32.14 35.18 12.67 16.35 32.3 10.64 51.76 29.48"/><polygon class="cls-1" points="50.74 33.58 31.11 39.29 11.65 20.45 31.27 14.75 50.74 33.58"/><path class="cls-4" d="M32.43,10.1,12.27,16,9.16,28.39,29,47.61l20.16-5.86L52.3,29.33Zm-3.53,36L10.24,28.08l2.7-10.8L31.61,35.34ZM13.61,16.58l18.55-5.4L50.83,29.24l-18.55,5.4Z"/><polygon class="cls-3" points="29.17 47.07 27.63 53.62 9.13 35.72 10.75 29.26 29.17 47.07"/><path class="cls-4" d="M29.3,46.53,10.49,28.33,8.6,35.88,27.5,54.16,45.06,49,47,41.38Zm-19.63-11L11,30.19l17.61,17-1.28,5.45Z"/><polygon class="cls-3" points="28.88 47.2 29.15 46.14 46.82 40.99 46.56 42.07 28.88 47.2"/><polygon class="cls-4" points="39.55 32.56 20.7 14.31 21.37 13.61 40.63 32.26 39.55 32.56"/><polygon class="cls-3" points="33.95 52.32 32.71 52.67 36.7 44.02 39.55 32.57 40.64 32.24 37.61 44.34 33.95 52.32"/><path class="cls-4" d="M42,24.48a2.48,2.48,0,0,0-1.65-2.16c-1.69-.77-3.78.56-5.2,1.77a10.53,10.53,0,0,0,.32-1.38,5.31,5.31,0,0,0-2.75-4.61A1.87,1.87,0,0,0,30.4,19c-1.65,2.53,1.71,5.94,2.87,7l-.15.17.59.21.41.34.08-.16c.63.22,1.57.53,2.54.77,1.44.36,3,.58,3.64.17a3.64,3.64,0,0,0,1.67-3M31.21,19.55c.4-.62.79-.66,1.08-.59l.14,0a4.44,4.44,0,0,1,2.14,3.56,11.83,11.83,0,0,1-.78,2.62c-1.4-1.31-3.65-4-2.57-5.63m8.67,7.14c-.54.33-2.92-.2-5.07-.92,1.27-1.27,3.69-3.24,5.19-2.57a1.58,1.58,0,0,1,1.08,1.34,2.67,2.67,0,0,1-1.2,2.15"/><path class="cls-4" d="M34.47,30.16a2.86,2.86,0,0,1-1.12-.58,1.55,1.55,0,0,1-.11-2.33c.16-.25.35-.52.31-.67s-.15-.23-.36-.36a2.79,2.79,0,0,0-2.2-.49A2.69,2.69,0,0,0,29.49,27l-.86-.45a3.64,3.64,0,0,1,2.09-1.71,3.7,3.7,0,0,1,3,.6,1.58,1.58,0,0,1,.8,1A1.85,1.85,0,0,1,34,27.79c-.42.64-.43.76-.08,1a2,2,0,0,0,2.43,0l.6.76a3,3,0,0,1-2.52.56"/><polygon class="cls-3" points="159.83 178.79 133.56 152.48 167.69 143.31 193.97 169.63 159.83 178.79"/><polygon class="cls-3" points="133.56 152.48 125.42 182.88 151.7 209.2 159.83 178.79 133.56 152.48"/><polygon class="cls-1" points="158.82 182.56 132.55 156.25 166.68 147.08 192.96 173.4 158.82 182.56"/><path class="cls-4" d="M167.92,143.08l-.13-.13-34.5,9.26L125.06,183l26.54,26.58,34.32-9.22.18,0,8.23-30.77Zm-16.39,65.49-25.74-25.78,7.93-29.67,19.43,19.32,6.31,6.46Zm-17.34-55.92,33.4-9,25.74,25.78-33.41,9Z"/><polygon class="cls-4" points="177.23 173.95 151.1 147.6 151.69 147.27 177.95 173.76 177.23 173.95"/><polygon class="cls-3" points="169.66 204.5 168.93 204.68 177.16 173.89 177.89 173.7 169.66 204.5"/><path class="cls-3" d="M160.24,166.08l-6.79,1.82,5.91,5.9,6.79-1.82Zm-.5,6-3.33-3.33,3.46-.93,3.33,3.33Z"/><path class="cls-4" d="M159.64,172.42l-3.85-3.85,4.17-1.12,3.85,3.85ZM157,168.91l2.81,2.81,2.75-.74-2.81-2.81Z"/><path class="cls-4" d="M159.26,174.16l-6.43-6.43,7.51-2,6.43,6.43Zm-5.2-6.1,5.39,5.38,6.08-1.63-5.39-5.38Z"/><polygon class="cls-4" points="138.55 195.79 137.91 195.62 146.01 165.32 146.2 165.28 180.74 156.3 180.91 156.94 146.55 165.87 138.55 195.79"/><path class="cls-4" d="M188.21,161.57c-.08-2.55-1-4.37-2.76-5.39-5.1-3-15.73,1.63-19.55,3.46a20.85,20.85,0,0,0,2.5-7.87A10.13,10.13,0,0,0,163,141.43a5.41,5.41,0,0,0-6.73,1.4c-4.3,5,5.73,15.6,7.81,17.71-1,.9-1.93.56-3,.12a4.37,4.37,0,0,0-2.92-.41,7.15,7.15,0,0,0-3.78,3l.57.33a6.59,6.59,0,0,1,3.4-2.72,3.75,3.75,0,0,1,2.49.39c1.13.45,2.41,1,3.76-.26l.08.08.08-.06,0,0,1,.54a3,3,0,0,1,1.41,2.69,4.31,4.31,0,0,0,1.49,3.55,4.21,4.21,0,0,0,1.63.85,4.48,4.48,0,0,0,2.08,0l-.14-.65a3.6,3.6,0,0,1-4.42-3.78,3.54,3.54,0,0,0-.44-1.9,58.83,58.83,0,0,0,9.91,3.86c3.42.92,6.74,1.22,8.79,0,1.45-.88,2.16-2.45,2.09-4.67m-31.45-18.31a4.69,4.69,0,0,1,5-1.6,6.27,6.27,0,0,1,1,.36,9.44,9.44,0,0,1,5,9.65c-.88,5.73-2.51,7.91-3.08,8.52-1.66-1.68-11.86-12.33-7.9-16.94m29,22.41c-4.48,2.73-16-2.79-19.76-4.71a5.41,5.41,0,0,0-.61-.34c2.76-1.37,14.55-6.88,19.71-3.87,1.54.9,2.36,2.53,2.43,4.84.06,2-.52,3.32-1.77,4.09"/><path class="cls-1" d="M135.8,189.42l-4.29-4.28a4.69,4.69,0,0,1-.93-4.12l1.39-5.18c.37-1.39,1.39-1.81,2.28-.92l4.29,4.28a4.69,4.69,0,0,1,.93,4.12l-1.39,5.18c-.37,1.39-1.39,1.81-2.27.92"/><path class="cls-5" d="M135.08,187.92l-4-4a5.26,5.26,0,0,1-1.23-4.59l1.48-5.53c.39-1.46,1.58-1.78,2.65-.71l4,4a5.26,5.26,0,0,1,1.23,4.59l-1.48,5.53c-.39,1.46-1.58,1.78-2.65.71m-1.31-14.27a1.12,1.12,0,0,0-2,.55l-1.48,5.53a4.06,4.06,0,0,0,1,3.54l4,4a1.12,1.12,0,0,0,2-.55l1.48-5.53a4.06,4.06,0,0,0-1-3.54Z"/><path class="cls-3" d="M137,183.06l-1.15-4.69c-.08-.31-.29-.52-.46-.46l-2.64.91c-.11,0-.1.28,0,.4l.86.86a.59.59,0,0,1,.14.52l-.83,3.12a.57.57,0,0,0,.13.5l1.48,1.48c.12.12.24.08.29-.08l.83-3.12a.16.16,0,0,1,.3-.08l.86.86c.12.11.23,0,.18-.21"/><path class="cls-5" d="M134.23,185l-1.48-1.47a1.17,1.17,0,0,1-.27-1l.83-3.12-.86-.85a1,1,0,0,1-.25-.61c0-.23.07-.41.2-.46l2.64-.91a.45.45,0,0,1,.46.16h0a1.37,1.37,0,0,1,.33.63L137,182a.69.69,0,0,1-.08.59c-.1.12-.26.11-.4,0l-.86-.86-.83,3.12a.32.32,0,0,1-.59.16m-1.41-6.87.65.66a1.19,1.19,0,0,1,.28,1l-.83,3.12,1.47,1.45.82-3.12a.33.33,0,0,1,.6-.16l.66.65-1.06-4.34a.22.22,0,0,0-.06-.11.08.08,0,0,0-.08,0Z"/><path class="cls-1" d="M150,198.13l-1.27-.34.09-.35a2.92,2.92,0,0,1,1.92-1.92l.67-.18a1.28,1.28,0,0,1,1.65,1.65v0h0l.74-.2a1.63,1.63,0,0,0,1-1,2.92,2.92,0,0,1,1.92-1.92l.64-.17a1.28,1.28,0,0,1,1.65,1.65v0h0l.54-.15a1.63,1.63,0,0,0,1-1,2.92,2.92,0,0,1,1.92-1.92l.64-.17a1.27,1.27,0,0,1,1.65,1.65l-.12.45-1.27-.34.12-.45v0h0l-.64.17a1.62,1.62,0,0,0-1,1,2.92,2.92,0,0,1-1.92,1.92l-.54.15a1.28,1.28,0,0,1-1.65-1.65v0h0l-.64.17a1.63,1.63,0,0,0-1,1,2.93,2.93,0,0,1-1.92,1.92l-.74.2a1.28,1.28,0,0,1-1.65-1.65v0h0l-.68.18a1.63,1.63,0,0,0-1,1Z"/><polygon class="cls-3" points="86.68 102.28 44.79 77.09 76.85 59.33 118.75 84.53 86.68 102.28"/><polygon class="cls-3" points="44.79 77.09 44.21 109.72 86.1 134.91 86.68 102.28 44.79 77.09"/><polygon class="cls-1" points="86.61 106.33 44.72 81.14 76.78 63.38 118.67 88.58 86.61 106.33"/><path class="cls-4" d="M77,59l-.17-.1L44.46,76.89l-.59,33,42.23,25.4,32.23-17.85.17-.09.59-33Zm8.74,75.28L44.55,109.53l.57-31.85L65.39,89.87l21,12.6ZM45.47,77.1,76.85,59.73l41.22,24.79L86.69,101.89Z"/><path class="cls-1" d="M53.5,112.85l-4.1-2.47a3.7,3.7,0,0,1-1.49-3l.08-4.23c0-1.14.72-1.65,1.57-1.14l4.1,2.47a3.7,3.7,0,0,1,1.49,3l-.08,4.24c0,1.14-.72,1.65-1.57,1.14"/><path class="cls-4" d="M52.65,111.84l-3.87-2.33A4.16,4.16,0,0,1,47,106.22L47,101.7c0-1.2.87-1.67,1.9-1.05L52.81,103a4.15,4.15,0,0,1,1.82,3.28l-.08,4.52c0,1.2-.87,1.67-1.9,1m-3.73-10.69c-.79-.47-1.45-.11-1.46.81l-.08,4.52a3.2,3.2,0,0,0,1.4,2.53l3.88,2.33c.79.48,1.45.11,1.46-.81l.08-4.52a3.21,3.21,0,0,0-1.4-2.53Z"/><path class="cls-3" d="M52.89,107.29c.12.07.22,0,.19-.16a4.54,4.54,0,0,0-1.89-2.83c-.91-.55-1.69-.3-1.95.52a.39.39,0,0,0,.18.38Z"/><path class="cls-4" d="M52.54,106.86l-3.47-2.09a.88.88,0,0,1-.32-.39.63.63,0,0,1-.05-.44c.29-.92,1.18-1.16,2.16-.57a5.06,5.06,0,0,1,2.09,3.13.38.38,0,0,1-.07.36.27.27,0,0,1-.33,0m-3.43-2.56,3.42,2.06a4.13,4.13,0,0,0-1.69-2.48c-.77-.46-1.48-.29-1.73.42"/><path class="cls-4" d="M50.28,108.83a1.52,1.52,0,0,1-.66-1.2v-.28l.43.25v.28a.56.56,0,0,0,.25.45c.14.08.26,0,.26-.14l0-2.75.42.25,0,2.75c0,.44-.32.61-.69.38"/><path class="cls-1" d="M62.57,118.31l-4.1-2.47a3.7,3.7,0,0,1-1.49-3l.08-4.24c0-1.14.72-1.65,1.57-1.14l4.1,2.47a3.7,3.7,0,0,1,1.49,3l-.08,4.23c0,1.14-.72,1.65-1.57,1.14"/><path class="cls-4" d="M61.72,117.29,57.85,115A4.16,4.16,0,0,1,56,111.68l.08-4.52c0-1.2.87-1.67,1.9-1.05l3.88,2.33a4.15,4.15,0,0,1,1.82,3.28l-.08,4.52c0,1.2-.87,1.67-1.9,1.05M58,106.6c-.79-.48-1.45-.11-1.46.81l-.08,4.52a3.2,3.2,0,0,0,1.4,2.54l3.88,2.33c.79.48,1.45.11,1.46-.81l.08-4.52a3.21,3.21,0,0,0-1.4-2.54Z"/><path class="cls-3" d="M62.3,113.2l-1.77-3.38c-.12-.22-.32-.35-.44-.27l-1.85,1.2c-.08,0,0,.24.09.3l.82.5a.47.47,0,0,1,.21.37l0,2.55a.45.45,0,0,0,.2.36l1.41.85c.11.07.2,0,.2-.11l0-2.55c0-.13.1-.19.21-.12l.82.5c.11.07.17-.05.1-.19"/><path class="cls-4" d="M60.52,115.21l-1.41-.85a.92.92,0,0,1-.41-.73l0-2.55-.82-.49a.76.76,0,0,1-.31-.42c-.05-.18,0-.33.07-.39l1.85-1.2a.36.36,0,0,1,.38,0,1.09,1.09,0,0,1,.37.42l1.77,3.38a.55.55,0,0,1,.05.46c-.06.11-.18.13-.31.05l-.82-.5,0,2.55c0,.27-.19.37-.42.23m-2.39-5,.63.38a1,1,0,0,1,.41.74l0,2.55,1.4.83,0-2.55c0-.27.2-.38.43-.24l.63.38L60,109.18a.18.18,0,0,0-.07-.07.06.06,0,0,0-.07,0Z"/><path class="cls-3" d="M73.58,70.55l-6.41,3.55,7.45,4.48L81,75Zm1,6.18-4.2-2.52,3.26-1.8,4.2,2.52Z"/><path class="cls-4" d="M74.57,77.11l-4.86-2.92L73.64,72l4.86,2.92ZM71,74.21l3.54,2.13,2.59-1.44-3.54-2.13Z"/><path class="cls-4" d="M74.62,79l-8.11-4.88,7.08-3.92L81.7,75ZM67.84,74.1l6.79,4.09L80.37,75l-6.79-4.08Z"/><path class="cls-4" d="M63.07,78.88a8.82,8.82,0,0,1-4.3-1.11,2.86,2.86,0,0,1,.09-5.37,9.57,9.57,0,0,1,8.64.15,2.86,2.86,0,0,1-.1,5.37,8.84,8.84,0,0,1-4.34,1m.12-6.78a8.16,8.16,0,0,0-4,.88,2.21,2.21,0,0,0-.08,4.22,8.83,8.83,0,0,0,8,.14,2.21,2.21,0,0,0,.08-4.22,8.16,8.16,0,0,0-4-1"/><path class="cls-4" d="M63.09,77.85A6.25,6.25,0,0,1,60,77.07a2.09,2.09,0,0,1,.07-3.92,6.78,6.78,0,0,1,6.13.11,2.09,2.09,0,0,1-.07,3.92,6.27,6.27,0,0,1-3.08.68m.08-4.73a5.58,5.58,0,0,0-2.74.6,1.44,1.44,0,0,0,0,2.77,6,6,0,0,0,5.46.1,1.45,1.45,0,0,0,0-2.77,5.6,5.6,0,0,0-2.72-.7"/><polygon class="cls-3" points="105.12 76.75 73.73 94.03 65 88.78 96.39 71.5 105.12 76.75"/><path class="cls-4" d="M71.22,93.31l-9.4-5.66,32.74-18,9.4,5.66Zm-8-5.63,8.06,4.85,31.37-17.27-8.06-4.85Z"/><polygon class="cls-3" points="64.49 89.35 64.26 102.31 72.99 107.78 73.22 94.6 64.49 89.35"/><path class="cls-4" d="M71.33,106.71l-9.4-5.89.25-13.74,9.4,5.65Zm-8.71-6.26,8.05,5,.22-12.38-8.06-4.85Z"/><polygon class="cls-3" points="77.4 120.3 68.76 115.11 69 101.68 77.64 106.87 77.4 120.3"/><path class="cls-4" d="M77.66,120.77l-9.17-5.52.25-14.05,9.17,5.52ZM69,115l8.1,4.87.23-12.8-8.1-4.87Z"/><polygon class="cls-1" points="76.54 118.53 70.86 115.11 71.03 105.51 76.71 108.93 76.54 118.53"/><path class="cls-4" d="M76.22,118,70,114.23,70.19,104l6.21,3.74Zm-5.67-4L75.7,117l.16-9L70.71,105Z"/><path class="cls-4" d="M77.78,122.83a9.26,9.26,0,0,1-4.05-7.32c0-2.66,1.94-3.71,4.22-2.34A9.25,9.25,0,0,1,82,120.49c0,2.66-1.94,3.71-4.22,2.34m.16-9.12c-2-1.22-3.71-.29-3.75,2.08a8.23,8.23,0,0,0,3.6,6.5c2,1.22,3.71.29,3.75-2.08a8.23,8.23,0,0,0-3.6-6.5"/><path class="cls-4" d="M77.8,121.61a6.84,6.84,0,0,1-3-5.41c0-2,1.44-2.74,3.12-1.73a6.84,6.84,0,0,1,3,5.41c0,2-1.44,2.74-3.12,1.73m.12-6.6c-1.43-.86-2.62-.2-2.65,1.47a5.8,5.8,0,0,0,2.54,4.59c1.43.86,2.62.2,2.65-1.47A5.81,5.81,0,0,0,77.91,115"/><polygon class="cls-4" points="102.98 93.06 61.23 67.79 61.74 67.31 103.66 92.69 102.98 93.06"/><polygon class="cls-3" points="102.99 125.69 102.31 126.06 102.9 93.02 103.58 92.64 102.99 125.69"/></g></g></svg>