<svg xmlns="http://www.w3.org/2000/svg" xmlns:xlink="http://www.w3.org/1999/xlink" viewBox="0 0 2343.51 1822.18"><defs><style>.cls-1{fill:none;}.cls-2{isolation:isolate;}.cls-3{mix-blend-mode:color-burn;}.cls-4{clip-path:url(#clip-path);}.cls-5{fill:#b9ced6;}.cls-6{clip-path:url(#clip-path-2);}.cls-7{clip-path:url(#clip-path-3);}.cls-8{clip-path:url(#clip-path-4);}.cls-9{clip-path:url(#clip-path-5);}.cls-10{clip-path:url(#clip-path-6);}</style><clipPath id="clip-path" transform="translate(0)"><rect class="cls-1" x="1533.79" width="809.72" height="643.08"/></clipPath><clipPath id="clip-path-2" transform="translate(0)"><rect class="cls-1" y="1228.22" width="623.66" height="593.96"/></clipPath><clipPath id="clip-path-3" transform="translate(0)"><rect class="cls-1" x="102.67" y="1306.55" width="672.54" height="493.76"/></clipPath><clipPath id="clip-path-4" transform="translate(0)"><rect class="cls-1" x="1812.1" y="131.08" width="525.39" height="633.39"/></clipPath><clipPath id="clip-path-5" transform="translate(0)"><rect class="cls-1" x="1925.52" y="1479.71" width="263.29" height="274.13"/></clipPath><clipPath id="clip-path-6" transform="translate(0)"><rect class="cls-1" x="1898.5" y="1394.45" width="99.6" height="93.63"/></clipPath></defs><title>Recurso 7</title><g class="cls-2"><g id="Capa_2" data-name="Capa 2"><g id="Capa_1-2" data-name="Capa 1"><g class="cls-3"><g class="cls-4"><path class="cls-5" d="M1577,568.25c135.24,145.14,307.69-25.4,410.94,60.1s416.4-221.61,345.14-391.91c-44.92-107.35-172.82-332.36-430.75-191.31s-460.57,378-325.33,523.12" transform="translate(0)"/></g></g><g class="cls-3"><g class="cls-6"><path class="cls-5" d="M559.52,1252.56c-140.73-86.44-241.24,88.68-343.07,43S-68.47,1565.8,26.51,1686.62c59.88,76.17,212.44,228.32,388.09,57.9s285.65-405.52,144.92-492" transform="translate(0)"/></g></g><g class="cls-3"><g class="cls-7"><path class="cls-5" d="M766.86,1512.42c-54.85-149.87-236-77.4-285.8-173.06s-377.95,34-378.39,182.54c-.28,93.62,24.15,300.4,259.44,276.52s459.6-136.12,404.74-286" transform="translate(0)"/></g></g><g class="cls-3"><g class="cls-8"><path class="cls-5" d="M1923.43,760.59c156.09,33.27,191.07-158.68,298.57-150s172.21-338.15,46.68-417.52c-79.13-50-267.23-139.33-372.15,72.62s-129.19,461.59,26.91,494.86" transform="translate(0)"/></g></g><g class="cls-3"><g class="cls-9"><path class="cls-5" d="M2153.48,1486.51c-66.43-30.4-101.17,51.88-148.33,37.28s-110.61,133.94-62.42,181.9c30.38,30.23,105.52,88.85,173.51,4.61s103.68-193.38,37.25-223.78" transform="translate(0)"/></g></g><g class="cls-3"><g class="cls-10"><path class="cls-5" d="M1900.64,1407.85c-10.22,24.23,19.76,35.84,15,53s49.39,38.35,66.13,20.5c10.55-11.26,30.83-38.93-.22-62.48s-70.7-35.22-80.93-11" transform="translate(0)"/></g></g><rect class="cls-1" x="203.09" y="114.79" width="1919.83" height="1637.55"/></g></g></g></svg>